<?xml version="1.0" encoding="UTF-8" standalone="no"?>
<!-- Created with Inkscape (http://www.inkscape.org/) -->

<svg
   width="289.99725mm"
   height="281.96378mm"
   viewBox="0 0 289.99725 281.96378"
   version="1.1"
   id="svg1"
   xml:space="preserve"
   xmlns="http://www.w3.org/2000/svg"
   xmlns:svg="http://www.w3.org/2000/svg"><defs
     id="defs1" /><g
     id="layer1"
     transform="translate(-2035.3415,488.51502)"><path
       id="path10"
       style="opacity:1;fill:#051412;fill-opacity:1;stroke:none;stroke-width:0.264583"
       d="m 2309.064,-488.51502 c -65.0827,78.55097 -169.0497,115.03489 -141.2922,226.12987 -1.6995,3.02557 -3.3739,6.06685 -5.0183,9.12554 -14.7166,27.27502 -19.7378,44.471 -17.5953,46.55219 2.1426,2.08119 7.4275,-16.87791 23.9696,-42.4248 0.7032,-1.08589 1.4103,-2.16897 2.1213,-3.24941 17.0913,-25.96981 36.4142,-50.39839 55.3393,-75.07139 19.3465,-25.22231 38.5506,-50.70215 54.1585,-78.39418 1.6962,-3.00956 3.3478,-6.04559 4.9464,-9.10952 -1.3437,3.19687 -2.7452,6.37469 -4.1956,9.53275 -13.3447,29.05512 -30.6363,56.46498 -47.9325,83.32256 -14.6763,22.83274 -29.5556,45.34488 -42.6315,68.27387 126.6794,13.80224 158.0562,-171.73759 118.1303,-234.68748 z m -262.9204,49.52979 c -26.5002,41.78212 -5.6745,164.9319 78.4071,155.77086 -8.6789,-15.2188 -18.5547,-30.16118 -28.2959,-45.3161 -11.4801,-17.82634 -22.9573,-36.01867 -31.8146,-55.3036 -0.9627,-2.09612 -1.893,-4.2059 -2.7849,-6.32778 1.0611,2.03364 2.1577,4.04911 3.2836,6.04666 10.3594,18.3802 23.1057,35.29205 35.9466,52.033 12.5613,16.37637 25.3865,32.59035 36.7306,49.82745 0.4719,0.71713 0.9409,1.43623 1.4076,2.15697 10.9797,16.9564 14.4876,29.53985 15.9097,28.15849 1.422,-1.38136 -1.9104,-12.79496 -11.6784,-30.89837 -1.0914,-2.03017 -2.2025,-4.04882 -3.3305,-6.057 18.4237,-73.73774 -50.5832,-97.95346 -93.7809,-150.09058 z" /></g></svg>
