<?xml version="1.0" encoding="UTF-8" standalone="no"?>
<!-- Created with Inkscape (http://www.inkscape.org/) -->

<svg
   width="289.99725mm"
   height="281.96378mm"
   viewBox="0 0 289.99725 281.96378"
   version="1.1"
   id="svg1"
   xml:space="preserve"
   xmlns="http://www.w3.org/2000/svg"
   xmlns:svg="http://www.w3.org/2000/svg"><defs
     id="defs1" /><g
     id="layer1"
     transform="translate(-1620.7035,495.52097)"><path
       id="path9"
       style="opacity:1;fill:#f5faf9;fill-opacity:1;stroke:none;stroke-width:0.264583"
       d="m 1894.4261,-495.52097 c -65.0827,78.55097 -169.0498,115.03489 -141.2922,226.12987 -1.6996,3.02557 -3.3739,6.06685 -5.0183,9.12554 -14.7166,27.27502 -19.7378,44.471 -17.5953,46.55219 2.1425,2.08119 7.4274,-16.87791 23.9696,-42.4248 0.7031,-1.08589 1.4103,-2.16897 2.1213,-3.24941 17.0913,-25.96981 36.4142,-50.39839 55.3393,-75.07139 19.3464,-25.22231 38.5506,-50.70215 54.1584,-78.39418 1.6963,-3.00956 3.3479,-6.04559 4.9465,-9.10952 -1.3438,3.19687 -2.7452,6.37469 -4.1956,9.53275 -13.3447,29.05512 -30.6363,56.46498 -47.9325,83.32256 -14.6763,22.83274 -29.5556,45.34488 -42.6315,68.27387 126.6793,13.80224 158.0561,-171.73759 118.1303,-234.68748 z m -262.9204,49.52979 c -26.5003,41.78212 -5.6746,164.9319 78.4071,155.77086 -8.679,-15.2188 -18.5548,-30.16118 -28.296,-45.3161 -11.4801,-17.82634 -22.9572,-36.01867 -31.8146,-55.3036 -0.9627,-2.09612 -1.8929,-4.2059 -2.7848,-6.32778 1.061,2.03364 2.1577,4.04911 3.2835,6.04666 10.3595,18.3802 23.1057,35.29205 35.9466,52.033 12.5613,16.37637 25.3865,32.59035 36.7306,49.82745 0.472,0.71713 0.941,1.43623 1.4077,2.15697 10.9796,16.9564 14.4875,29.53985 15.9096,28.15849 1.4221,-1.38136 -1.9104,-12.79496 -11.6783,-30.89837 -1.0915,-2.03017 -2.2025,-4.04882 -3.3306,-6.057 18.4237,-73.73774 -50.5831,-97.95346 -93.7808,-150.09058 z" /></g></svg>
