<?xml version="1.0" encoding="UTF-8" standalone="no"?>
<!-- Created with Inkscape (http://www.inkscape.org/) -->

<svg
   width="838.66919mm"
   height="361.59344mm"
   viewBox="0 0 838.66919 361.59344"
   version="1.1"
   id="svg1"
   xml:space="preserve"
   xmlns="http://www.w3.org/2000/svg"
   xmlns:svg="http://www.w3.org/2000/svg"><defs
     id="defs1" /><g
     id="layer1"
     transform="translate(-2950.515,-3.8132039)"><g
       id="g16"><path
         d="m 3136.0804,3.8132039 c -40.2958,48.6347401 -104.6671,71.2236891 -87.481,140.0079961 -1.0525,1.87328 -2.0886,3.75599 -3.1067,5.64978 -2.5178,4.66633 -4.5773,8.85606 -6.2115,12.50363 1.3427,0.13714 2.6629,0.31643 3.9594,0.5364 1.7163,-3.18296 3.7598,-6.71833 6.1986,-10.48463 0.4355,-0.67234 0.8729,-1.34281 1.3131,-2.01176 10.5822,-16.07916 22.5461,-31.20411 34.2635,-46.48037 11.9784,-15.616349 23.8688,-31.392127 33.5323,-48.537607 1.0502,-1.86336 2.0726,-3.742946 3.0624,-5.639966 -0.8319,1.97935 -1.6997,3.946656 -2.5978,5.901966 -8.2624,17.98944 -18.9684,34.960287 -29.6772,51.589097 -9.0867,14.13687 -18.2995,28.0754 -26.3953,42.27184 78.4334,8.54563 97.8603,-106.331036 73.1402,-145.3063761 z m -162.787,30.6658281 c -16.4076,25.86933 -3.5132,102.117318 48.5459,96.445278 -5.3734,-9.42268 -11.488,-18.67403 -17.5193,-28.0572 -7.108,-11.037168 -14.2137,-22.301095 -19.698,-34.241325 -0.5959,-1.29782 -1.1722,-2.60382 -1.7245,-3.91759 0.6571,1.25912 1.3361,2.507178 2.033,3.743958 6.4143,11.38008 14.306,21.850983 22.2565,32.216117 7.7775,10.1394 15.7181,20.178 22.7418,30.85032 0.2922,0.44402 0.5827,0.88959 0.8717,1.33583 6.7979,10.49854 8.9696,18.28936 9.8501,17.43408 0.8805,-0.85526 -1.1828,-7.92191 -7.2306,-19.13061 -0.6757,-1.25698 -1.3639,-2.50682 -2.0624,-3.75016 11.4071,-45.654611 -31.3183,-60.648078 -58.0642,-92.928698 z"
         style="opacity:1;fill:#117d3b;stroke-width:0.163816"
         id="path16" /><path
         d="m 3435.8275,102.37566 c -30.7621,0 -51.6465,18.62677 -51.6465,46.28452 v 18.62677 h -21.7309 v 37.53517 h 21.7309 v 104.1399 h 41.2042 v -104.1399 h 40.3578 v -37.53517 h -40.3578 v -14.67559 c 0,-7.61999 5.08,-12.7 12.7,-12.7 7.9022,0 12.9822,5.08001 12.9822,12.7 h 36.6892 c 0,-30.7622 -20.3202,-50.2357 -51.9291,-50.2357 z m -403.1857,59.26667 c -16.3689,0 -30.1976,5.64445 -40.9221,16.93333 V 165.0292 h -41.2047 v 143.93282 h 41.2047 v -80.99764 c 0,-15.80443 11.0063,-26.52861 27.0929,-26.52861 14.9578,0 24.8357,10.44209 24.8357,25.9643 v 81.56195 h 41.2047 v -80.99764 c 0,-15.80443 11.0063,-26.52861 27.093,-26.52861 14.9578,0 24.8357,10.44209 24.8357,25.9643 v 39.22913 c 0,27.93998 14.9578,42.33282 44.0267,42.33282 h 11.5709 V 269.1691 h -2.822 c -7.3377,0 -11.5714,-4.23362 -11.5714,-11.57139 v -42.61548 c 0,-32.17331 -20.8842,-53.3399 -52.2108,-53.3399 -20.6022,0 -36.9712,8.18442 -48.5423,23.42441 -8.7489,-14.67554 -24.5532,-23.42441 -44.591,-23.42441 z m 678.9316,0 c -44.3089,0 -77.6112,32.4558 -77.6112,75.35354 0,42.89775 33.3023,75.35302 77.8934,75.35302 35.56,0 64.3464,-19.75555 75.0709,-48.82441 h -44.0268 c -5.9266,7.90222 -16.6511,13.54646 -29.9155,13.54646 -17.2155,0 -30.4798,-10.44189 -34.9953,-26.81076 h 110.0667 c 0.8466,-3.66889 1.1286,-8.46674 1.1286,-12.41785 0,-44.02663 -33.5842,-76.2 -77.6108,-76.2 z m -520.6333,3.38687 57.2911,140.82862 c -7.3378,13.54665 -16.0864,19.47323 -32.7375,19.47323 h -4.2334 v 40.07559 h 4.2334 c 39.2289,0 57.573,-10.44225 68.8619,-38.1 l 66.0399,-162.27744 h -46.0018 l -33.0203,91.4399 -33.3023,-91.4399 z m 289.5136,0 57.2911,140.82862 c -7.3378,13.54665 -16.0865,19.47323 -32.7376,19.47323 h -4.2333 v 40.07559 h 4.2333 c 39.2288,0 57.5731,-10.44225 68.862,-38.1 l 66.0399,-162.27744 h -46.0019 l -33.0202,91.4399 -33.3023,-91.4399 z m 231.1197,31.89108 c 16.3689,0 29.3507,10.15988 33.584,25.96431 h -66.8863 c 4.5156,-15.80443 16.9334,-25.96431 33.3023,-25.96431 z"
         style="font-weight:bold;font-size:282.222px;line-height:0;font-family:'Neulis Neue';-inkscape-font-specification:'Neulis Neue Bold';fill:#051412;stroke-width:0.264583"
         id="path15" /></g></g></svg>
