<?xml version="1.0" encoding="UTF-8" standalone="no"?>
<!-- Created with Inkscape (http://www.inkscape.org/) -->

<svg
   width="838.66864mm"
   height="361.59344mm"
   viewBox="0 0 838.66864 361.59344"
   version="1.1"
   id="svg1"
   xml:space="preserve"
   xmlns="http://www.w3.org/2000/svg"
   xmlns:svg="http://www.w3.org/2000/svg"><defs
     id="defs1" /><g
     id="layer1"
     transform="translate(-791.85244,-28.80496)"><path
       id="text4"
       style="font-weight:bold;font-size:282.222px;line-height:0;font-family:Nexa;-inkscape-font-specification:'Nexa Bold';text-align:start;writing-mode:lr-tb;direction:ltr;text-anchor:start;fill:#051412;fill-opacity:1;stroke-width:0.264583"
       d="m 977.41786,28.80496 c -40.2958,48.63474 -104.66707,71.22369 -87.48097,140.00799 -1.0525,1.87328 -2.0892,3.756 -3.1073,5.64979 -2.51779,4.66632 -4.57733,8.85604 -6.21151,12.50363 -2.15617,-0.22023 -4.37057,-0.33228 -6.63939,-0.33228 -16.36887,0 -30.19761,5.64445 -40.92205,16.93333 v -13.54646 h -41.2042 v 143.93282 h 41.2042 v -80.99764 c 0,-15.80444 11.00679,-26.52862 27.09344,-26.52862 14.95777,0 24.83518,10.4421 24.83518,25.96431 v 81.56195 h 41.20472 v -80.99764 c 0,-15.80444 11.00678,-26.52862 27.09343,-26.52862 14.95777,0 24.83518,10.4421 24.83518,25.96431 v 39.22913 c 0,27.93998 14.95791,42.33282 44.02681,42.33282 h 11.5708 v -39.79292 h -2.822 c -7.3378,0 -11.5709,-4.23362 -11.5709,-11.57139 v -42.61549 c 0,-32.1733 -20.88463,-53.33989 -52.21127,-53.33989 -20.60221,0 -36.97116,8.18442 -48.54226,23.42441 -7.14138,-11.97909 -18.98376,-20.00922 -33.99224,-22.55573 1.71625,-3.18302 3.75983,-6.71828 6.19859,-10.48463 0.4355,-0.67234 0.87341,-1.34282 1.31361,-2.01177 10.5822,-16.07916 22.54615,-31.2041 34.26355,-46.48036 11.9784,-15.61635 23.8683,-31.392136 33.5318,-48.537611 1.0502,-1.86336 2.07306,-3.742946 3.06286,-5.639966 -0.8319,1.97935 -1.69967,3.946656 -2.59777,5.901966 -8.2624,17.989435 -18.96898,34.960281 -29.67778,51.589101 -9.0867,14.13687 -18.29897,28.0754 -26.39477,42.27184 C 982.711,182.65697 1002.138,67.7803 977.41786,28.80496 Z M 814.6309,59.470789 c -16.4076,25.86933 -3.51375,102.117311 48.54535,96.445271 -5.3734,-9.42268 -11.48804,-18.67403 -17.51934,-28.0572 -7.108,-11.03716 -14.21372,-22.30109 -19.69802,-34.241318 -0.5959,-1.29782 -1.17163,-2.603821 -1.72393,-3.917591 0.6571,1.25912 1.33605,2.507178 2.03295,3.743958 6.4143,11.380071 14.30551,21.850971 22.25601,32.216121 7.7775,10.1394 15.71806,20.17799 22.74176,30.85031 0.2922,0.44402 0.58278,0.8896 0.87178,1.33584 6.7979,10.49854 8.97006,18.28936 9.85056,17.43408 0.8805,-0.85526 -1.18328,-7.92192 -7.23108,-19.13062 -0.6757,-1.25698 -1.36339,-2.50682 -2.06189,-3.75016 11.4071,-45.65461 -31.31825,-60.648071 -58.06415,-92.928691 z m 462.5335,67.896631 c -30.7622,0 -51.6464,18.62676 -51.6464,46.28451 v 18.62677 h -21.731 v 37.53518 h 21.731 v 104.1399 h 41.2047 v -104.1399 h 40.3577 V 192.2787 h -40.3577 v -14.67559 c 0,-7.61999 5.0795,-12.7 12.6995,-12.7 7.9022,0 12.9826,5.08001 12.9826,12.7 h 36.6888 c 0,-30.76219 -20.3203,-50.23569 -51.9292,-50.23569 z m 275.746,59.26667 c -44.3089,0 -77.6113,32.45579 -77.6113,75.35354 0,42.89774 33.3024,75.35302 77.8934,75.35302 35.56,0 64.3465,-19.75555 75.0709,-48.82441 h -44.0262 c -5.9267,7.90221 -16.6511,13.54646 -29.9155,13.54646 -17.2156,0 -30.4803,-10.44189 -34.9958,-26.81077 h 110.0666 c 0.8467,-3.66888 1.1286,-8.46674 1.1286,-12.41784 0,-44.02663 -33.5841,-76.2 -77.6107,-76.2 z m -520.6334,3.38687 57.2911,140.82861 c -7.3378,13.54666 -16.0864,19.47323 -32.7375,19.47323 h -4.2334 v 40.07559 h 4.2334 c 39.2288,0 57.573,-10.44224 68.8619,-38.1 l 66.0399,-162.27743 h -46.0018 l -33.0202,91.4399 -33.3019,-91.4399 z m 289.5142,0 57.291,140.82861 c -7.3377,13.54666 -16.0869,19.47323 -32.738,19.47323 h -4.2334 v 40.07559 h 4.2334 c 39.2288,0 57.5736,-10.44224 68.8624,-38.1 l 66.0399,-162.27743 h -46.0023 l -33.0202,91.4399 -33.3019,-91.4399 z m 231.1192,31.89108 c 16.3689,0 29.3512,10.15987 33.5845,25.9643 h -66.8869 c 4.5156,-15.80443 16.9335,-25.9643 33.3024,-25.9643 z" /></g></svg>
