<?xml version="1.0" encoding="UTF-8" standalone="no"?>
<!-- Created with Inkscape (http://www.inkscape.org/) -->

<svg
   width="838.6687mm"
   height="361.59341mm"
   viewBox="0 0 838.6687 361.59341"
   version="1.1"
   id="svg1"
   xml:space="preserve"
   xmlns="http://www.w3.org/2000/svg"
   xmlns:svg="http://www.w3.org/2000/svg"><defs
     id="defs1" /><g
     id="layer1"
     transform="translate(-1841.5062,-19.432922)"><path
       id="text5"
       style="font-weight:bold;font-size:282.222px;line-height:0;font-family:Nexa;-inkscape-font-specification:'Nexa Bold';text-align:start;writing-mode:lr-tb;direction:ltr;text-anchor:start;fill:#f5faf9;fill-opacity:1;stroke-width:0.264583"
       d="m 2027.0711,19.432922 c -40.2958,48.63474 -104.6665,71.223696 -87.4804,140.007988 -1.0525,1.87328 -2.0893,3.756 -3.1074,5.64979 -2.5177,4.66632 -4.5773,8.85656 -6.2115,12.50414 -2.1561,-0.22022 -4.3706,-0.33279 -6.6393,-0.33279 -16.3689,0 -30.1977,5.64445 -40.9221,16.93333 v -13.54646 h -41.2042 v 143.93334 h 41.2042 v -80.99764 c 0,-15.80444 11.0068,-26.52913 27.0934,-26.52913 14.9578,0 24.8352,10.44209 24.8352,25.9643 v 81.56247 h 41.2047 v -80.99764 c 0,-15.80444 11.0068,-26.52913 27.0935,-26.52913 14.9577,0 24.8352,10.44209 24.8352,25.9643 v 39.22913 c 0,27.93998 14.9579,42.33334 44.0267,42.33334 h 11.5709 v -39.79344 h -2.8221 c -7.3377,0 -11.5708,-4.2331 -11.5708,-11.57087 v -42.61601 c 0,-32.1733 -20.8847,-53.33989 -52.2113,-53.33989 -20.6022,0 -36.9712,8.18442 -48.5423,23.42441 -7.1414,-11.97911 -18.9837,-20.00923 -33.9922,-22.55573 1.7162,-3.18301 3.7598,-6.71828 6.1986,-10.48463 0.4355,-0.67234 0.8734,-1.34282 1.3136,-2.01177 10.5822,-16.07916 22.5456,-31.2041 34.263,-46.48036 11.9784,-15.61635 23.8688,-31.392129 33.5323,-48.537609 1.0502,-1.86336 2.0726,-3.742945 3.0624,-5.639965 -0.8319,1.97935 -1.6997,3.946655 -2.5978,5.901965 -8.2624,17.98944 -18.9684,34.960279 -29.6772,51.589099 -9.0867,14.13687 -18.2995,28.0754 -26.3953,42.27184 78.4334,8.54563 97.8603,-106.331038 73.1402,-145.306378 z m -162.7864,30.666346 c -16.4076,25.86933 -3.5138,102.117312 48.5453,96.445272 -5.3734,-9.42268 -11.488,-18.67455 -17.5193,-28.05772 -7.108,-11.03716 -14.2138,-22.300569 -19.6981,-34.240799 -0.5959,-1.29782 -1.1721,-2.604338 -1.7244,-3.918108 0.6571,1.25912 1.3361,2.507178 2.033,3.743958 6.4143,11.38008 14.306,21.850969 22.2565,32.216119 7.7775,10.1394 15.718,20.178 22.7417,30.85032 0.2922,0.44402 0.5828,0.88959 0.8718,1.33583 6.7979,10.49854 8.9696,18.28936 9.8501,17.43408 0.8805,-0.85526 -1.1828,-7.92192 -7.2306,-19.13062 -0.6757,-1.25698 -1.3634,-2.50681 -2.0619,-3.75015 11.4071,-45.654611 -31.3182,-60.647562 -58.0641,-92.928182 z m 462.5335,67.896112 c -30.7622,0 -51.6465,18.62676 -51.6465,46.28452 v 18.62677 h -21.731 v 37.53569 h 21.731 v 104.1399 h 41.2042 v -104.1399 h 40.3578 v -37.53569 h -40.3578 v -14.67559 c 0,-7.62 5.08,-12.7 12.7,-12.7 7.9022,0 12.9827,5.08 12.9827,12.7 h 36.6887 c 0,-30.7622 -20.3203,-50.2357 -51.9291,-50.2357 z m 275.7459,59.26667 c -44.3088,0 -77.6112,32.4558 -77.6112,75.35354 0,42.89774 33.3023,75.35302 77.8934,75.35302 35.56,0 64.3464,-19.75554 75.0709,-48.82441 h -44.0263 c -5.9267,7.90222 -16.6516,13.54698 -29.916,13.54698 -17.2155,0 -30.4797,-10.44241 -34.9953,-26.81128 h 110.0667 c 0.8467,-3.66889 1.1286,-8.46674 1.1286,-12.41785 0,-44.02663 -33.5841,-76.2 -77.6108,-76.2 z m -520.6333,3.38687 57.2911,140.82861 c -7.3378,13.54666 -16.0865,19.47323 -32.7376,19.47323 h -4.2333 v 40.07559 h 4.2333 c 39.2289,0 57.5731,-10.44224 68.862,-38.1 l 66.0399,-162.27743 h -46.0019 l -33.0202,91.4399 -33.3023,-91.4399 z m 289.5141,0 57.2911,140.82861 c -7.3378,13.54666 -16.087,19.47323 -32.7381,19.47323 h -4.2333 v 40.07559 h 4.2333 c 39.2289,0 57.5736,-10.44224 68.8625,-38.1 l 66.0399,-162.27743 h -46.0024 l -33.0202,91.4399 -33.3018,-91.4399 z M 2602.5641,212.54 c 16.3689,0 29.3512,10.15987 33.5846,25.96431 h -66.8869 c 4.5155,-15.80444 16.9335,-25.96431 33.3023,-25.96431 z" /></g></svg>
