<svg width="379" height="172" viewBox="0 0 379 172" fill="none" xmlns="http://www.w3.org/2000/svg">
<path fill-rule="evenodd" clip-rule="evenodd" d="M55.4999 85.5C54.6619 85.158 54.3279 84.492 54.4999 83.5C56.8169 79.518 59.8169 76.185 63.4999 73.5C70.9389 70.24 77.4389 65.574 82.9999 59.5C90.6489 51.542 96.8159 42.542 101.5 32.5C101.154 31.304 100.654 31.304 99.9999 32.5C91.9999 46.833 81.4999 58.999 68.4999 69C66.5929 70.122 64.5929 70.955 62.4999 71.5C60.8879 58.179 64.0549 46.179 71.9999 35.5C75.8329 31.667 79.6669 27.833 83.4999 24C89.0469 21.147 94.7129 18.481 100.5 16C105.589 11.646 109.589 6.48 112.5 0.5C115.426 23.969 109.426 44.803 94.4999 63C91.6719 65.248 88.6719 67.248 85.4999 69C78.3629 70.934 71.3629 73.268 64.4999 76C60.9579 78.707 57.9579 81.874 55.4999 85.5Z" fill="white"/>
<path fill-rule="evenodd" clip-rule="evenodd" d="M16.5001 4.5C19.8438 12.672 25.8438 17.839 34.5001 20C42.9741 25.127 48.9741 32.294 52.5001 41.5C53.2921 47.13 53.6251 52.797 53.5001 58.5C48.2591 55.433 43.4261 51.767 39.0001 47.5C33.9471 41.448 29.2808 35.115 25.0001 28.5C30.2898 41.641 39.1231 51.974 51.5001 59.5C51.4401 60.043 51.1071 60.376 50.5001 60.5C47.9791 59.215 45.3131 58.548 42.5001 58.5C31.3414 55.511 23.8414 48.511 20.0001 37.5C17.4302 31.41 15.9302 25.077 15.5001 18.5C15.1806 13.637 15.514 8.97 16.5001 4.5Z" fill="white"/>
<path fill-rule="evenodd" clip-rule="evenodd" d="M16.4999 4.5C15.5138 8.97 15.1804 13.637 15.4999 18.5C14.1862 13.652 14.1862 8.652 15.4999 3.5C16.1066 3.624 16.4399 3.957 16.4999 4.5Z" fill="white"/>
<path fill-rule="evenodd" clip-rule="evenodd" d="M53.5 58.5C53.833 58.5 54.167 58.5 54.5 58.5C54.5 59.167 54.5 59.833 54.5 60.5C53.391 60.443 52.391 60.11 51.5 59.5C39.123 51.974 30.2897 41.641 25 28.5C29.2807 35.115 33.947 41.448 39 47.5C43.426 51.767 48.259 55.433 53.5 58.5Z" fill="white"/>
<path fill-rule="evenodd" clip-rule="evenodd" d="M216.5 78.5C221.305 79.487 226.305 79.821 231.5 79.5C231.5 84.167 231.5 88.833 231.5 93.5C226.5 93.5 221.5 93.5 216.5 93.5C216.5 110.167 216.5 126.833 216.5 143.5C210.5 143.5 204.5 143.5 198.5 143.5C198.5 126.833 198.5 110.167 198.5 93.5C194.833 93.5 191.167 93.5 187.5 93.5C187.5 88.5 187.5 83.5 187.5 78.5C191.167 78.5 194.833 78.5 198.5 78.5C198.503 54.006 210.503 44.506 234.5 50C234.957 50.414 235.291 50.914 235.5 51.5C233.551 56.01 232.218 60.677 231.5 65.5C220.018 62.314 215.018 66.647 216.5 78.5Z" fill="white"/>
<path fill-rule="evenodd" clip-rule="evenodd" d="M52.5 41.5C53.268 42.263 53.768 43.263 54 44.5C54.499 49.155 54.666 53.821 54.5 58.5C54.167 58.5 53.833 58.5 53.5 58.5C53.625 52.797 53.292 47.13 52.5 41.5Z" fill="white"/>
<path fill-rule="evenodd" clip-rule="evenodd" d="M63.5 73.5C63.167 72.833 62.833 72.167 62.5 71.5C64.593 70.955 66.593 70.122 68.5 69C81.5 58.999 92 46.833 100 32.5C100.654 31.304 101.154 31.304 101.5 32.5C96.816 42.542 90.649 51.542 83 59.5C77.439 65.574 70.939 70.24 63.5 73.5Z" fill="white"/>
<path fill-rule="evenodd" clip-rule="evenodd" d="M42.5 58.5C45.313 58.548 47.979 59.215 50.5 60.5C51.107 60.376 51.44 60.043 51.5 59.5C52.391 60.11 53.391 60.443 54.5 60.5C55.793 62.296 57.293 63.963 59 65.5C59.982 66.759 60.315 68.092 60 69.5C58.122 67.957 56.622 66.124 55.5 64C51.107 62.044 46.774 60.211 42.5 58.5Z" fill="white"/>
<path fill-rule="evenodd" clip-rule="evenodd" d="M54.5 83.5C54.328 84.492 54.662 85.158 55.5 85.5C55.811 86.478 56.478 87.145 57.5 87.5C69.573 74.509 82.74 73.175 97 83.5C99.434 86.795 101.101 90.462 102 94.5C102.5 110.83 102.667 127.163 102.5 143.5C96.833 143.5 91.167 143.5 85.5 143.5C85.667 128.83 85.5 114.163 85 99.5C78.495 90.566 71.495 90.232 64 98.5C62.725 100.717 61.725 103.051 61 105.5C60.5 118.162 60.333 130.829 60.5 143.5C54.833 143.5 49.167 143.5 43.5 143.5C43.667 129.496 43.5 115.496 43 101.5C39.37 92.445 33.204 90.278 24.5 95C21.7692 97.626 19.9358 100.793 19 104.5C18.5001 117.496 18.3334 130.496 18.5 143.5C12.8333 143.5 7.1667 143.5 1.5 143.5C1.5 122.167 1.5 100.833 1.5 79.5C6.5 79.5 11.5 79.5 16.5 79.5C16.1936 82.385 16.5269 85.052 17.5 87.5C28.5545 74.494 40.888 73.161 54.5 83.5Z" fill="white"/>
<path fill-rule="evenodd" clip-rule="evenodd" d="M341.5 76.5C367.784 76.279 380.117 89.112 378.5 115C362.49 115.167 346.49 115.667 330.5 116.5C334.453 128.311 342.453 132.477 354.5 129C358.282 127.046 361.615 124.546 364.5 121.5C368.614 123.057 372.614 124.89 376.5 127C377.451 127.718 377.617 128.551 377 129.5C365.093 145.154 349.926 149.32 331.5 142C316.892 133.277 311.059 120.444 314 103.5C317.783 88.883 326.949 79.883 341.5 76.5Z" fill="white"/>
<path fill-rule="evenodd" clip-rule="evenodd" d="M130.5 79.5C123.978 79.177 117.645 79.51 111.5 80.5C110.957 80.44 110.624 80.107 110.5 79.5C117.322 78.182 123.989 78.182 130.5 79.5Z" fill="white"/>
<path fill-rule="evenodd" clip-rule="evenodd" d="M216.5 78.5C221.833 78.5 227.167 78.5 232.5 78.5C232.821 83.695 232.487 88.695 231.5 93.5C231.5 88.833 231.5 84.167 231.5 79.5C226.305 79.821 221.305 79.487 216.5 78.5Z" fill="white"/>
<path fill-rule="evenodd" clip-rule="evenodd" d="M258.5 79.5C251.978 79.177 245.645 79.51 239.5 80.5C238.957 80.44 238.624 80.107 238.5 79.5C245.322 78.182 251.989 78.182 258.5 79.5Z" fill="white"/>
<path fill-rule="evenodd" clip-rule="evenodd" d="M17.5 87.5C16.5269 85.052 16.1936 82.385 16.5 79.5C11.5 79.5 6.49998 79.5 1.49998 79.5C1.49998 100.833 1.49998 122.167 1.49998 143.5C0.502676 122.006 0.169276 100.34 0.499976 78.5C6.16668 78.5 11.8333 78.5 17.5 78.5C17.5 81.5 17.5 84.5 17.5 87.5Z" fill="white"/>
<path fill-rule="evenodd" clip-rule="evenodd" d="M111.5 80.5C117.645 79.51 123.978 79.177 130.5 79.5C135.274 92.384 140.608 105.051 146.5 117.5C152.626 104.903 157.959 91.903 162.5 78.5C168.833 78.5 175.167 78.5 181.5 78.5C168.695 109.581 155.695 140.581 142.5 171.5C136.158 171.666 129.825 171.5 123.5 171C128.021 160.789 132.688 150.622 137.5 140.5C128.821 120.479 120.154 100.479 111.5 80.5Z" fill="white"/>
<path fill-rule="evenodd" clip-rule="evenodd" d="M239.5 80.5C245.645 79.51 251.978 79.177 258.5 79.5C263.274 92.384 268.608 105.051 274.5 117.5C280.626 104.903 285.959 91.903 290.5 78.5C296.833 78.5 303.167 78.5 309.5 78.5C296.695 109.581 283.695 140.581 270.5 171.5C264.158 171.666 257.825 171.5 251.5 171C256.021 160.789 260.688 150.622 265.5 140.5C256.821 120.479 248.154 100.479 239.5 80.5Z" fill="white"/>
<path fill-rule="evenodd" clip-rule="evenodd" d="M343.5 90.5C352.439 89.799 358.773 93.466 362.5 101.5C352.167 102.833 341.833 102.833 331.5 101.5C334.294 96.366 338.294 92.699 343.5 90.5Z" fill="#F6F6F6"/>
</svg>
