<svg version="1.1" id="Layer_1" xmlns="http://www.w3.org/2000/svg" xmlns:xlink="http://www.w3.org/1999/xlink" x="0px" y="0px"
	 width="100%" viewBox="0 0 776 722" enable-background="new 0 0 776 722" xml:space="preserve">
<path fill="#000000" opacity="1.000000" stroke="none" 
	d="
M19.999992,723.000000 
	C13.667852,723.000000 7.335704,723.000000 1.002667,723.000000 
	C1.001778,482.379547 1.001778,241.759125 1.001778,1.069342 
	C259.571991,1.069342 518.144043,1.069342 776.858032,1.069342 
	C776.858032,241.666611 776.858032,482.333282 776.858032,723.000000 
	C763.254517,723.000000 749.589905,723.000000 735.147583,722.699524 
	C735.003479,721.936768 735.571716,721.288635 736.280212,721.039490 
	C751.464539,715.700867 760.868469,705.119629 762.831116,689.217896 
	C764.141785,678.598877 763.565552,667.746887 763.905945,656.536133 
	C763.929260,650.380432 763.880249,644.687805 763.903564,638.531738 
	C763.928223,625.045044 763.880615,612.021790 763.905029,598.534790 
	C763.929138,589.047180 763.881226,580.023132 763.905884,570.535522 
	C763.930115,562.047119 763.881775,554.022400 763.905762,545.534180 
	C763.929260,536.378296 763.880371,527.686035 763.903687,518.530396 
	C763.927734,505.709930 763.879578,493.352875 763.904175,480.532410 
	C763.929810,466.046234 763.882568,452.023468 763.908081,437.538574 
	C763.931274,432.049561 763.881775,427.022644 763.905396,421.532471 
	C763.930115,410.711975 763.881653,400.354797 763.906372,389.534424 
	C763.930054,382.713745 763.880615,376.356323 763.905396,369.536499 
	C763.930359,363.715698 763.881104,358.357239 763.905884,352.535400 
	C763.980042,342.403534 763.980042,332.735046 763.980042,323.066589 
	C763.399292,322.765625 762.818481,322.464661 762.237732,322.163727 
	C758.465027,326.294159 754.830994,330.562134 750.896545,334.532318 
	C728.898132,356.730316 706.827087,378.856384 684.446289,401.170258 
	C683.407532,402.850067 682.155945,404.346252 682.098450,405.887024 
	C681.898254,411.248840 682.111816,416.626129 682.092529,422.460205 
	C682.066833,428.614471 682.116638,434.306030 682.090576,440.460999 
	C682.065674,451.614807 682.116760,462.305267 682.092102,473.458252 
	C682.065735,479.280609 682.115112,484.640381 682.089478,490.463501 
	C682.065796,504.949341 682.117188,518.971863 682.093018,533.458191 
	C682.068054,546.278442 682.118652,558.634949 682.093506,571.455444 
	C682.067444,580.612061 682.117004,589.304565 682.091980,598.460754 
	C682.067200,606.949097 682.116943,614.973816 682.092529,623.461548 
	C681.998230,629.912537 681.978149,635.900513 681.496948,641.937866 
	C676.356323,642.046997 671.676819,642.106750 666.533813,642.094116 
	C656.378113,642.070374 646.685913,642.118958 636.530457,642.095581 
	C624.043945,642.071289 612.020813,642.119019 599.534058,642.094177 
	C590.046326,642.069885 581.022156,642.118225 571.537170,642.093750 
	C566.398254,641.976257 561.720154,641.931580 557.021973,641.425781 
	C556.946472,631.309814 556.891052,621.654968 556.908447,611.540283 
	C556.932007,606.719971 556.882812,602.359497 556.907410,597.540955 
	C556.931641,593.054626 556.882019,589.026306 556.906494,584.534790 
	C556.931580,577.047913 556.882568,570.024353 556.907471,562.541016 
	C556.932007,557.720520 556.882629,553.359802 556.907532,548.543457 
	C556.931641,544.390991 556.881592,540.694031 556.905640,536.535767 
	C556.932678,527.927917 557.606201,519.695801 554.062500,511.577362 
	C552.242249,505.084778 549.202087,499.801483 543.920166,495.574921 
	C537.550903,489.680847 530.545837,485.758575 521.583801,485.089600 
	C517.696655,485.010223 514.216187,484.840546 510.755341,485.029541 
	C500.769989,485.574829 492.671478,490.238525 486.005432,497.328125 
	C477.128571,506.769012 474.174591,518.292419 475.086304,531.462524 
	C475.061066,541.950073 475.112823,551.974548 475.087952,562.462097 
	C475.062714,570.616211 475.114075,578.307312 475.089264,586.461609 
	C475.064880,595.615234 475.116638,604.305603 475.091980,613.451538 
	C475.065826,617.604370 475.116058,621.301636 475.090637,625.458252 
	C475.065186,630.277893 475.115326,634.638184 475.088684,639.433289 
	C474.093262,640.578613 473.227692,641.802673 472.246063,641.904114 
	C469.187134,642.220398 466.084320,642.111450 462.535797,642.093384 
	C456.381348,642.068604 450.689636,642.117859 444.534882,642.092712 
	C437.713623,642.067749 431.355408,642.117188 424.533997,642.092529 
	C417.380005,642.067871 410.689178,642.117249 403.536072,642.092163 
	C397.714386,642.068054 392.355011,642.118225 386.532471,642.094177 
	C375.044922,642.068848 364.020538,642.117676 352.532898,642.092651 
	C339.046448,642.067322 326.023285,642.115845 312.536957,642.088013 
	C298.383118,642.063354 284.692444,642.115051 270.538483,642.090393 
	C258.050751,642.064941 246.026260,642.115967 233.538605,642.090210 
	C217.051605,642.064758 201.027786,642.116089 184.540527,642.090759 
	C170.718369,642.064758 157.359665,642.115356 143.537750,642.089600 
	C132.918060,642.008789 122.760948,641.948914 112.605713,642.060547 
	C111.103485,642.077026 109.236229,642.479919 108.169701,643.420471 
	C95.348633,654.727539 82.591644,666.108948 69.929405,677.593811 
	C57.598793,688.777954 45.415615,700.124451 33.128643,711.356934 
	C28.811960,715.303040 24.379555,719.122620 19.999992,723.000000 
M204.139709,262.669312 
	C208.384277,266.793976 212.628830,270.918610 217.140671,275.665344 
	C222.745972,281.149658 228.351257,286.633942 234.208740,292.732300 
	C239.124908,297.529877 244.041077,302.327484 249.206406,307.739044 
	C253.431198,311.837738 257.656006,315.936432 262.145996,320.658295 
	C266.725616,325.118286 271.305206,329.578247 276.149139,334.661133 
	C282.085449,340.477112 288.021790,346.293091 294.205933,352.725708 
	C298.965149,357.419556 303.724396,362.113434 308.884979,367.299530 
	C318.296204,376.640900 327.707458,385.982239 337.318604,395.795074 
	C337.482208,395.843872 337.645782,395.892639 338.030884,396.479065 
	C338.342224,396.690155 338.653564,396.901276 339.205902,397.731384 
	C343.126526,401.516998 347.047150,405.302612 351.210968,409.706421 
	C353.792145,412.181610 356.373352,414.656830 359.209351,417.763184 
	C361.806824,419.786224 364.404327,421.809265 367.671448,424.135742 
	C373.447815,426.034973 379.224152,427.934174 385.917603,429.982727 
	C391.748718,429.266266 397.579803,428.549805 404.193268,427.944183 
	C412.392303,424.572754 418.762482,418.820892 424.946075,412.629486 
	C509.218811,328.249817 593.564453,243.942871 677.905701,159.631638 
	C679.165955,158.371857 680.598145,157.284134 682.007874,156.570068 
	C682.007874,156.570068 682.164795,156.999954 682.016479,157.927109 
	C682.066467,165.951996 682.116516,173.976883 682.016724,182.928238 
	C682.066956,191.620300 682.117188,200.312378 682.017761,209.930573 
	C682.066589,226.952881 682.115417,243.975189 682.009949,261.923798 
	C682.061584,272.281891 682.113281,282.639984 682.011536,293.924408 
	C682.062805,301.615814 682.114075,309.307251 682.012878,317.925079 
	C682.012878,328.734955 682.012878,339.544830 682.012878,351.228058 
	C684.073242,349.661102 685.834778,348.600891 687.255127,347.195801 
	C696.398376,338.151123 705.466980,329.030945 714.560059,319.935547 
	C730.089722,304.401886 745.568726,288.816925 761.205444,273.391907 
	C763.451599,271.176178 764.536133,269.027832 763.983215,265.071136 
	C763.933716,257.046844 763.884277,249.022522 763.982666,240.071472 
	C763.932678,220.046158 763.882690,200.020859 763.980591,179.069138 
	C763.931152,160.047440 763.881714,141.025726 763.985657,121.077179 
	C763.934692,113.052002 763.883728,105.026817 763.985779,96.075172 
	C763.935608,87.716736 763.885437,79.358307 763.988037,70.077522 
	C763.992859,66.591660 764.287598,63.077305 763.948425,59.625225 
	C762.895569,48.907696 759.675354,39.114071 750.789612,31.254082 
	C745.230713,28.155375 739.671753,25.056667 733.821533,21.328184 
	C732.918335,21.202383 732.015137,21.076582 730.708313,20.229715 
	C730.050903,20.150450 729.381592,20.125229 728.737732,19.983994 
	C713.627197,16.669283 700.701599,20.827045 689.889709,31.634527 
	C591.136169,130.347748 492.414215,229.092575 393.674591,327.819733 
	C392.509827,328.984344 391.233368,330.037292 389.312256,330.983551 
	C387.937531,329.883179 386.462982,328.885712 385.204834,327.665192 
	C378.810211,321.461609 372.471619,315.200256 366.008881,308.260040 
	C361.380493,303.489777 356.752136,298.719482 351.861450,293.325623 
	C345.908142,287.599457 339.954834,281.873291 333.363068,275.849152 
	C328.575562,270.947754 323.788025,266.046387 318.371277,260.879028 
	C314.269836,256.536102 310.168365,252.193192 305.813934,247.236908 
	C300.542145,242.205322 295.270386,237.173737 289.369812,231.877686 
	C284.599213,226.862595 279.828613,221.847504 274.779663,216.196854 
	C270.541595,212.077393 266.303528,207.957932 261.810974,203.227158 
	C258.245728,199.803299 254.680496,196.379440 250.849335,192.329132 
	C245.511429,187.222870 240.173508,182.116623 234.821884,176.337372 
	C230.253922,171.875290 225.685959,167.413223 220.843735,162.316788 
	C216.842102,158.546982 212.840454,154.777176 208.824661,150.335236 
	C203.235168,144.846146 197.645660,139.357056 191.803360,133.254166 
	C184.888275,126.459030 177.973190,119.663895 170.779388,112.229172 
	C165.209366,106.807137 159.639359,101.385101 153.815048,95.340431 
	C149.481689,91.230263 145.148346,87.120094 140.782410,82.340981 
	C136.550339,78.218323 132.318283,74.095673 127.824463,69.346130 
	C119.921608,61.883389 112.018753,54.420647 103.999352,46.250324 
	C97.987473,40.323151 92.094872,34.268658 85.935425,28.499018 
	C76.973404,20.104164 66.510384,16.973274 54.023781,17.797932 
	C32.497864,19.219580 17.179575,38.854912 16.252785,57.655880 
	C15.214437,78.719887 16.111416,99.879295 16.019020,121.924873 
	C16.068226,137.615860 16.117430,153.306839 16.019289,169.925369 
	C16.068344,177.617188 16.117397,185.308990 16.018950,193.927704 
	C16.068138,202.952087 16.117327,211.976471 16.019020,221.927704 
	C16.068480,229.619400 16.117937,237.311096 16.019896,245.929428 
	C16.068638,263.619202 16.117378,281.308960 16.018826,299.926147 
	C16.068150,307.951019 16.117474,315.975861 16.019203,324.927643 
	C16.068491,333.951752 16.117781,342.975830 16.019293,352.926971 
	C16.068489,361.284637 16.117683,369.642273 16.019077,378.926971 
	C16.068520,387.285004 16.117962,395.643066 16.019707,404.927948 
	C16.068676,416.618622 16.117643,428.309296 16.018728,440.926971 
	C16.067963,448.618378 16.117199,456.309814 16.018717,464.928070 
	C16.067921,475.285461 16.117125,485.642883 16.018547,496.927246 
	C16.067846,504.951843 16.117146,512.976440 16.018505,521.927856 
	C16.067728,533.952087 16.116951,545.976318 16.018543,558.927551 
	C16.067719,567.618774 16.116896,576.309998 16.018141,585.928040 
	C16.067619,595.952576 16.117098,605.977051 16.018885,616.928284 
	C16.068087,627.952576 16.117290,638.976807 16.018473,650.927917 
	C16.018473,661.476746 16.018473,672.025635 16.018473,683.623413 
	C43.426556,656.174011 70.013924,629.571472 96.522881,602.890991 
	C97.419472,601.988525 97.927544,600.304321 97.936859,598.979736 
	C98.002419,589.654236 97.889557,580.327454 97.984695,570.074402 
	C97.934364,559.050232 97.884033,548.026062 97.984482,536.075073 
	C97.934326,525.383850 97.884171,514.692688 97.984024,503.074554 
	C97.934013,494.716309 97.884003,486.358093 97.984062,477.073242 
	C97.933739,464.716003 97.883415,452.358765 97.982803,439.074554 
	C97.932755,431.049927 97.882706,423.025299 97.982323,414.073853 
	C97.932640,404.716309 97.882965,395.358734 97.982689,385.074249 
	C97.933105,377.049500 97.883522,369.024780 97.982910,360.073212 
	C97.932945,348.382599 97.882980,336.692017 97.982262,324.074371 
	C97.932640,315.716278 97.883011,307.358185 97.982277,298.073242 
	C97.932678,289.048950 97.883087,280.024628 97.982224,270.073425 
	C97.932861,261.049347 97.883499,252.025238 97.982498,242.074112 
	C97.933029,234.382477 97.883568,226.690842 97.982552,218.072449 
	C97.932594,200.382462 97.882637,182.692459 97.980354,164.160065 
	C97.980354,161.933792 97.980354,159.707520 97.980354,157.481262 
	C98.577904,157.063675 99.175461,156.646088 99.773010,156.228500 
	C105.168480,162.192307 110.563942,168.156113 116.210205,174.733826 
	C122.096642,180.504883 127.983070,186.275940 134.138382,192.668472 
	C139.410522,197.817505 144.682663,202.966553 150.204163,208.731033 
	C153.762817,212.167374 157.321457,215.603729 161.146286,219.662292 
	C166.749786,225.146835 172.353287,230.631393 178.207123,236.731003 
	C183.125214,241.527115 188.043289,246.323227 193.210892,251.733429 
	C196.767090,255.170486 200.323303,258.607513 204.139709,262.669312 
z"/>
<path fill="#AAF46E" opacity="1.000000" stroke="none" 
	d="
M763.833008,598.998474 
	C763.880615,612.021790 763.928223,625.045044 763.541260,638.544434 
	C762.013611,639.383972 760.781799,639.534119 759.847839,640.141907 
	C735.917297,655.715149 711.982971,671.283569 688.189392,687.064209 
	C686.568237,688.139343 685.177002,690.882690 685.209534,692.824524 
	C685.260193,695.850281 686.152710,699.094727 687.540955,701.810791 
	C689.636169,705.909912 689.032410,708.782227 685.722595,711.928528 
	C682.177307,715.298828 679.216125,719.283508 676.000000,723.000000 
	C663.645752,723.000000 651.291565,723.000000 638.516113,722.658447 
	C650.425659,709.734741 662.449158,696.826904 675.253418,684.746521 
	C679.746765,680.507263 681.417053,675.918701 681.935120,670.422241 
	C682.261963,666.954590 681.233948,663.202698 682.192871,659.989929 
	C683.451843,655.771851 685.053284,650.556152 688.281006,648.220703 
	C700.650940,639.270325 713.713623,631.274597 726.550293,622.972900 
	C738.957092,614.949219 751.403870,606.987488 763.833008,598.998474 
z"/>
<path fill="#B1F175" opacity="1.000000" stroke="none" 
	d="
M763.905029,598.534790 
	C751.403870,606.987488 738.957092,614.949219 726.550293,622.972900 
	C713.713623,631.274597 700.650940,639.270325 688.281006,648.220703 
	C685.053284,650.556152 683.451843,655.771851 682.192871,659.989929 
	C681.233948,663.202698 682.261963,666.954590 681.935120,670.422241 
	C681.417053,675.918701 679.746765,680.507263 675.253418,684.746521 
	C662.449158,696.826904 650.425659,709.734741 638.047485,722.658447 
	C628.645752,723.000000 619.291565,723.000000 609.516174,722.658447 
	C609.506165,721.610657 609.787903,720.774780 610.347107,720.216980 
	C630.444763,700.169678 650.482422,680.060852 670.746033,660.182312 
	C676.095398,654.934631 682.192993,650.433655 681.958008,641.888428 
	C681.978149,635.900513 681.998230,629.912537 682.435669,623.406128 
	C684.359924,622.184204 685.978638,621.651855 687.356262,620.750854 
	C700.437073,612.195740 713.441406,603.523376 726.538940,594.994141 
	C738.925903,586.927551 751.398438,578.992188 763.833313,570.999146 
	C763.881226,580.023132 763.929138,589.047180 763.905029,598.534790 
z"/>
<path fill="#EBC3D6" opacity="1.000000" stroke="none" 
	d="
M185.003983,642.167419 
	C201.027786,642.116089 217.051605,642.064758 233.482666,642.420288 
	C232.629196,644.348816 231.480515,645.982361 230.090927,647.375610 
	C211.029007,666.487549 191.944458,685.576965 172.829117,704.635376 
	C171.073227,706.386108 168.851059,707.695557 167.222595,709.542480 
	C163.361084,713.921936 159.726379,718.501404 156.000000,723.000000 
	C139.645767,723.000000 123.291542,723.000000 106.516212,722.658447 
	C106.856812,721.251831 107.479767,720.044922 108.401199,719.143005 
	C120.998238,706.813660 133.699036,694.589844 146.246826,682.210815 
	C158.572311,670.051208 170.766525,657.758240 182.968048,645.473816 
	C183.856125,644.579712 184.334900,643.279053 185.003983,642.167419 
z"/>
<path fill="#D5E09C" opacity="1.000000" stroke="none" 
	d="
M556.835571,612.000183 
	C556.891052,621.654968 556.946472,631.309814 557.000977,641.817139 
	C555.782043,649.313538 551.995605,654.039795 547.071106,658.682495 
	C529.791870,674.972961 512.980225,691.761780 496.109100,708.480469 
	C493.390717,711.174316 490.887115,712.892822 486.932953,711.276978 
	C485.881927,710.847473 483.898376,710.997314 483.191254,711.715881 
	C479.639587,715.325134 476.369202,719.211182 473.000000,723.000000 
	C459.979095,723.000000 446.958221,723.000000 433.477966,722.634888 
	C433.167816,721.628601 433.102753,720.765625 433.500244,720.381470 
	C436.591125,717.395081 439.853943,714.584595 442.907715,711.562317 
	C451.655579,702.904663 460.341858,694.184509 469.024841,685.461609 
	C471.263855,683.212219 473.233398,681.725708 475.959595,685.118225 
	C476.650299,685.977722 479.184753,685.996887 480.544556,685.502258 
	C481.982544,684.979126 483.060883,683.413635 484.243073,682.249329 
	C507.098602,659.739563 529.937195,637.212646 552.822693,614.733459 
	C553.958923,613.617371 555.488892,612.902100 556.835571,612.000183 
z"/>
<path fill="#F7C8CF" opacity="1.000000" stroke="none" 
	d="
M271.001740,642.166809 
	C284.692444,642.115051 298.383118,642.063354 312.482788,642.427124 
	C309.203857,646.785583 305.620117,650.832336 301.810944,654.654358 
	C280.553284,675.983521 259.228546,697.245789 237.979568,718.583557 
	C236.748978,719.819275 235.982483,721.517212 235.000000,723.000000 
	C221.312439,723.000000 207.624878,723.000000 193.477356,722.636475 
	C194.050201,720.643433 194.817902,718.744324 196.157578,717.426880 
	C207.260437,706.508484 218.499802,695.729126 229.636734,684.845154 
	C240.219009,674.503357 250.809006,664.166809 261.223297,653.657227 
	C264.753174,650.095032 267.757355,646.011902 271.001740,642.166809 
z"/>
<path fill="#DABBDF" opacity="1.000000" stroke="none" 
	d="
M20.468651,723.000000 
	C24.379555,719.122620 28.811960,715.303040 33.128643,711.356934 
	C45.415615,700.124451 57.598793,688.777954 69.929405,677.593811 
	C82.591644,666.108948 95.348633,654.727539 108.169701,643.420471 
	C109.236229,642.479919 111.103485,642.077026 112.605713,642.060547 
	C122.760948,641.948914 132.918060,642.008789 143.526794,642.442627 
	C142.917145,644.483276 142.100739,646.344727 140.753998,647.665466 
	C131.313126,656.923462 121.671211,665.977234 112.268669,675.273376 
	C97.868713,689.510315 83.589470,703.869690 69.323448,718.241150 
	C67.980484,719.594055 67.096863,721.402832 66.000000,723.000000 
	C50.979103,723.000000 35.958210,723.000000 20.468651,723.000000 
z"/>
<path fill="#E3BFDA" opacity="1.000000" stroke="none" 
	d="
M66.468658,723.000000 
	C67.096863,721.402832 67.980484,719.594055 69.323448,718.241150 
	C83.589470,703.869690 97.868713,689.510315 112.268669,675.273376 
	C121.671211,665.977234 131.313126,656.923462 140.753998,647.665466 
	C142.100739,646.344727 142.917145,644.483276 143.989990,642.519043 
	C157.359665,642.115356 170.718369,642.064758 184.540527,642.090759 
	C184.334900,643.279053 183.856125,644.579712 182.968048,645.473816 
	C170.766525,657.758240 158.572311,670.051208 146.246826,682.210815 
	C133.699036,694.589844 120.998238,706.813660 108.401199,719.143005 
	C107.479767,720.044922 106.856812,721.251831 106.047554,722.658447 
	C92.979103,723.000000 79.958214,723.000000 66.468658,723.000000 
z"/>
<path fill="#FDCCCA" opacity="1.000000" stroke="none" 
	d="
M235.468658,723.000000 
	C235.982483,721.517212 236.748978,719.819275 237.979568,718.583557 
	C259.228546,697.245789 280.553284,675.983521 301.810944,654.654358 
	C305.620117,650.832336 309.203857,646.785583 312.945923,642.503540 
	C326.023285,642.115845 339.046448,642.067322 352.523254,642.445679 
	C352.033081,644.366394 351.333893,646.110962 350.103455,647.310791 
	C344.532654,652.742798 338.701813,657.909546 333.164978,663.374817 
	C314.388184,681.908630 295.681763,700.513855 277.013123,719.156494 
	C276.036530,720.131714 275.657318,721.705078 275.000000,723.000000 
	C261.979095,723.000000 248.958206,723.000000 235.468658,723.000000 
z"/>
<path fill="#E1DBAA" opacity="1.000000" stroke="none" 
	d="
M556.833618,563.000793 
	C556.882568,570.024353 556.931580,577.047913 556.574097,584.591675 
	C553.437073,587.249451 550.475952,589.151184 548.012329,591.561523 
	C526.726135,612.386841 505.529236,633.303650 484.306854,654.194275 
	C483.476318,655.011780 482.599915,655.791748 481.843842,656.674011 
	C479.402893,659.522217 477.129608,659.608459 475.158478,656.250000 
	C473.439606,653.321350 471.696259,653.855713 469.608643,655.867310 
	C462.549622,662.669495 455.321320,669.298889 448.353210,676.191956 
	C434.268829,690.124573 420.292267,704.166565 406.336700,718.228394 
	C404.989563,719.585815 404.101257,721.398621 403.000000,723.000000 
	C397.311951,723.000000 391.623932,723.000000 385.515137,722.658447 
	C386.209808,720.897522 387.197235,719.351135 388.460846,718.079041 
	C399.026917,707.442383 409.581299,696.792603 420.265411,686.275024 
	C428.560791,678.108948 437.073608,670.164307 445.419617,662.049072 
	C450.674164,656.939758 455.864990,651.760132 460.928406,646.462891 
	C461.973022,645.369995 462.326477,643.616455 462.998505,642.167419 
	C466.084320,642.111450 469.187134,642.220398 472.246063,641.904114 
	C473.227692,641.802673 474.093262,640.578613 475.420105,639.378052 
	C478.849335,636.348633 482.045654,633.988953 484.863678,631.241211 
	C506.827209,609.826233 528.693542,588.311523 550.678650,566.918762 
	C552.385193,565.258179 554.766052,564.290527 556.833618,563.000793 
z"/>
<path fill="#F2C6D2" opacity="1.000000" stroke="none" 
	d="
M270.538483,642.090393 
	C267.757355,646.011902 264.753174,650.095032 261.223297,653.657227 
	C250.809006,664.166809 240.219009,674.503357 229.636734,684.845154 
	C218.499802,695.729126 207.260437,706.508484 196.157578,717.426880 
	C194.817902,718.744324 194.050201,720.643433 193.008698,722.636475 
	C180.979111,723.000000 168.958206,723.000000 156.468658,723.000000 
	C159.726379,718.501404 163.361084,713.921936 167.222595,709.542480 
	C168.851059,707.695557 171.073227,706.386108 172.829117,704.635376 
	C191.944458,685.576965 211.029007,666.487549 230.090927,647.375610 
	C231.480515,645.982361 232.629196,644.348816 233.945862,642.496948 
	C246.026260,642.115967 258.050751,642.064941 270.538483,642.090393 
z"/>
<path fill="#A0F963" opacity="1.000000" stroke="none" 
	d="
M763.833740,656.999146 
	C763.565552,667.746887 764.141785,678.598877 762.831116,689.217896 
	C760.868469,705.119629 751.464539,715.700867 736.280212,721.039490 
	C735.571716,721.288635 735.003479,721.936768 734.684937,722.699524 
	C721.312439,723.000000 707.624878,723.000000 693.518799,722.650024 
	C697.132446,717.952942 698.100464,714.013855 693.142822,709.204285 
	C690.830933,706.961487 690.818909,703.096680 694.529602,700.667664 
	C715.638672,686.849365 736.693054,672.947388 757.834961,659.179810 
	C759.571472,658.048950 761.822021,657.707458 763.833740,656.999146 
z"/>
<path fill="#C3E889" opacity="1.000000" stroke="none" 
	d="
M599.997559,642.166748 
	C612.020813,642.119019 624.043945,642.071289 636.476379,642.425537 
	C636.097412,643.877625 635.430359,645.051636 634.502625,645.959045 
	C621.899231,658.286072 609.197449,670.513000 596.646790,682.893188 
	C584.437073,694.937073 572.355286,707.111145 560.277527,719.287659 
	C559.282349,720.290955 558.748291,721.751770 558.000000,723.000000 
	C547.645752,723.000000 537.291565,723.000000 526.519653,722.656006 
	C527.391663,721.089050 528.562561,719.701843 529.989807,718.668945 
	C541.307251,710.478760 551.093201,701.023560 557.095276,688.057007 
	C558.656738,684.683655 561.095093,681.522888 563.745117,678.880737 
	C574.561157,668.096436 585.640808,657.577026 596.549927,646.885071 
	C597.922302,645.540039 598.859009,643.750366 599.997559,642.166748 
z"/>
<path fill="#F7D0C2" opacity="1.000000" stroke="none" 
	d="
M275.468658,723.000000 
	C275.657318,721.705078 276.036530,720.131714 277.013123,719.156494 
	C295.681763,700.513855 314.388184,681.908630 333.164978,663.374817 
	C338.701813,657.909546 344.532654,652.742798 350.103455,647.310791 
	C351.333893,646.110962 352.033081,644.366394 352.986511,642.519592 
	C364.020538,642.117676 375.044922,642.068848 386.522766,642.447144 
	C385.914246,644.485535 385.097626,646.346924 383.750793,647.667725 
	C374.313721,656.922485 364.674957,665.972412 355.276947,675.266113 
	C340.640076,689.740540 326.126495,704.339966 311.619110,718.944458 
	C310.509583,720.061340 309.862183,721.637390 309.000000,723.000000 
	C297.979095,723.000000 286.958221,723.000000 275.468658,723.000000 
z"/>
<path fill="#BBEC80" opacity="1.000000" stroke="none" 
	d="
M558.468628,723.000000 
	C558.748291,721.751770 559.282349,720.290955 560.277527,719.287659 
	C572.355286,707.111145 584.437073,694.937073 596.646790,682.893188 
	C609.197449,670.513000 621.899231,658.286072 634.502625,645.959045 
	C635.430359,645.051636 636.097412,643.877625 636.939697,642.497559 
	C646.685913,642.118958 656.378113,642.070374 666.523865,642.447510 
	C666.716248,643.644287 666.678894,644.649536 666.157288,645.148193 
	C662.809631,648.348450 659.257507,651.337524 655.952759,654.579712 
	C634.979919,675.156067 614.022583,695.748657 593.168457,716.445068 
	C591.375977,718.223999 590.370850,720.796265 589.000000,723.000000 
	C578.979126,723.000000 568.958191,723.000000 558.468628,723.000000 
z"/>
<path fill="#DBDDA3" opacity="1.000000" stroke="none" 
	d="
M556.908386,611.540283 
	C555.488892,612.902100 553.958923,613.617371 552.822693,614.733459 
	C529.937195,637.212646 507.098602,659.739563 484.243073,682.249329 
	C483.060883,683.413635 481.982544,684.979126 480.544556,685.502258 
	C479.184753,685.996887 476.650299,685.977722 475.959595,685.118225 
	C473.233398,681.725708 471.263855,683.212219 469.024841,685.461609 
	C460.341858,694.184509 451.655579,702.904663 442.907715,711.562317 
	C439.853943,714.584595 436.591125,717.395081 433.500244,720.381470 
	C433.102753,720.765625 433.167816,721.628601 433.009277,722.634888 
	C427.977905,723.000000 422.955811,723.000000 417.475525,722.636475 
	C418.168518,720.525085 419.054657,718.508789 420.511505,717.070740 
	C436.129333,701.654480 451.848907,686.341370 467.513885,670.972778 
	C472.577057,666.005371 472.536530,665.972656 477.238953,671.360046 
	C477.413879,671.560425 477.852539,671.530701 478.355713,671.654236 
	C484.846802,665.656128 491.544586,659.728516 497.948761,653.499084 
	C515.688232,636.243347 533.277161,618.832764 551.018799,601.579285 
	C552.611450,600.030457 554.879333,599.175964 556.833557,597.999023 
	C556.882812,602.359497 556.932007,606.719971 556.908386,611.540283 
z"/>
<path fill="#C9E590" opacity="1.000000" stroke="none" 
	d="
M599.534058,642.094116 
	C598.859009,643.750366 597.922302,645.540039 596.549927,646.885071 
	C585.640808,657.577026 574.561157,668.096436 563.745117,678.880737 
	C561.095093,681.522888 558.656738,684.683655 557.095276,688.057007 
	C551.093201,701.023560 541.307251,710.478760 529.989807,718.668945 
	C528.562561,719.701843 527.391663,721.089050 526.051025,722.656006 
	C515.312439,723.000000 504.624878,723.000000 493.528015,722.635132 
	C495.500763,721.180420 497.847870,720.003784 500.275482,719.027222 
	C502.330933,718.200378 504.989441,718.171387 506.500458,716.811218 
	C513.894958,710.154358 521.061523,703.238586 528.179993,696.282593 
	C535.550171,689.080688 543.004456,681.939453 549.949036,674.339600 
	C552.861145,671.152649 554.578125,666.866394 556.797974,663.056396 
	C558.760010,659.689148 560.371338,656.071533 562.671814,652.959412 
	C565.489929,649.147034 568.864197,645.745728 571.997986,642.166626 
	C581.022156,642.118225 590.046326,642.069885 599.534058,642.094116 
z"/>
<path fill="#DEDCA7" opacity="1.000000" stroke="none" 
	d="
M556.907410,597.540955 
	C554.879333,599.175964 552.611450,600.030457 551.018799,601.579285 
	C533.277161,618.832764 515.688232,636.243347 497.948761,653.499084 
	C491.544586,659.728516 484.846802,665.656128 478.355713,671.654236 
	C477.852539,671.530701 477.413879,671.560425 477.238953,671.360046 
	C472.536530,665.972656 472.577057,666.005371 467.513885,670.972778 
	C451.848907,686.341370 436.129333,701.654480 420.511505,717.070740 
	C419.054657,718.508789 418.168518,720.525085 417.008667,722.636475 
	C412.643097,723.000000 408.286194,723.000000 403.464661,723.000000 
	C404.101257,721.398621 404.989563,719.585815 406.336700,718.228394 
	C420.292267,704.166565 434.268829,690.124573 448.353210,676.191956 
	C455.321320,669.298889 462.549622,662.669495 469.608643,655.867310 
	C471.696259,653.855713 473.439606,653.321350 475.158478,656.250000 
	C477.129608,659.608459 479.402893,659.522217 481.843842,656.674011 
	C482.599915,655.791748 483.476318,655.011780 484.306854,654.194275 
	C505.529236,633.303650 526.726135,612.386841 548.012329,591.561523 
	C550.475952,589.151184 553.437073,587.249451 556.500000,585.054993 
	C556.882019,589.026306 556.931641,593.054626 556.907410,597.540955 
z"/>
<path fill="#EDD4B8" opacity="1.000000" stroke="none" 
	d="
M403.998352,642.166565 
	C410.689178,642.117249 417.380005,642.067871 424.479248,642.422668 
	C423.745087,644.231262 422.712341,645.744873 421.442505,647.022827 
	C411.575409,656.952881 401.724274,666.900085 391.748932,676.720886 
	C377.992920,690.263916 364.091827,703.659912 350.373901,717.241089 
	C348.846161,718.753540 348.105652,721.061157 347.000000,723.000000 
	C340.312347,723.000000 333.624725,723.000000 326.478516,722.632568 
	C326.651001,721.167908 327.078491,719.864441 327.946747,719.007568 
	C332.875488,714.143311 337.954102,709.431213 342.899872,704.583862 
	C361.638733,686.217834 380.383698,667.857605 399.012024,649.380005 
	C401.052032,647.356506 402.354034,644.588989 403.998352,642.166565 
z"/>
<path fill="#E9D7B2" opacity="1.000000" stroke="none" 
	d="
M347.468292,723.000000 
	C348.105652,721.061157 348.846161,718.753540 350.373901,717.241089 
	C364.091827,703.659912 377.992920,690.263916 391.748932,676.720886 
	C401.724274,666.900085 411.575409,656.952881 421.442505,647.022827 
	C422.712341,645.744873 423.745087,644.231262 424.942413,642.496704 
	C431.355408,642.117188 437.713623,642.067749 444.479858,642.422852 
	C443.628418,644.348206 442.489258,645.990967 441.091583,647.372009 
	C417.299347,670.881226 393.461182,694.343933 369.691101,717.875488 
	C368.215637,719.336121 367.219269,721.280640 366.000000,723.000000 
	C359.978851,723.000000 353.957703,723.000000 347.468292,723.000000 
z"/>
<path fill="#A4F767" opacity="1.000000" stroke="none" 
	d="
M763.906006,656.536133 
	C761.822021,657.707458 759.571472,658.048950 757.834961,659.179810 
	C736.693054,672.947388 715.638672,686.849365 694.529602,700.667664 
	C690.818909,703.096680 690.830933,706.961487 693.142822,709.204285 
	C698.100464,714.013855 697.132446,717.952942 693.050171,722.650024 
	C687.645081,723.000000 682.290100,723.000000 676.467590,723.000000 
	C679.216125,719.283508 682.177307,715.298828 685.722595,711.928528 
	C689.032410,708.782227 689.636169,705.909912 687.540955,701.810791 
	C686.152710,699.094727 685.260193,695.850281 685.209534,692.824524 
	C685.177002,690.882690 686.568237,688.139343 688.189392,687.064209 
	C711.982971,671.283569 735.917297,655.715149 759.847839,640.141907 
	C760.781799,639.534119 762.013611,639.383972 763.468994,639.007812 
	C763.880249,644.687805 763.929260,650.380432 763.906006,656.536133 
z"/>
<path fill="#B5EF7A" opacity="1.000000" stroke="none" 
	d="
M589.468384,723.000000 
	C590.370850,720.796265 591.375977,718.223999 593.168457,716.445068 
	C614.022583,695.748657 634.979919,675.156067 655.952759,654.579712 
	C659.257507,651.337524 662.809631,648.348450 666.157288,645.148193 
	C666.678894,644.649536 666.716248,643.644287 666.987427,642.519897 
	C671.676819,642.106750 676.356323,642.046997 681.496948,641.937866 
	C682.192993,650.433655 676.095398,654.934631 670.746033,660.182312 
	C650.482422,680.060852 630.444763,700.169678 610.347107,720.216980 
	C609.787903,720.774780 609.506165,721.610657 609.047485,722.658447 
	C602.645569,723.000000 596.291199,723.000000 589.468384,723.000000 
z"/>
<path fill="#E6D8AF" opacity="1.000000" stroke="none" 
	d="
M366.468262,723.000000 
	C367.219269,721.280640 368.215637,719.336121 369.691101,717.875488 
	C393.461182,694.343933 417.299347,670.881226 441.091583,647.372009 
	C442.489258,645.990967 443.628418,644.348206 444.942871,642.497192 
	C450.689636,642.117859 456.381348,642.068604 462.535797,642.093384 
	C462.326477,643.616455 461.973022,645.369995 460.928406,646.462891 
	C455.864990,651.760132 450.674164,656.939758 445.419617,662.049072 
	C437.073608,670.164307 428.560791,678.108948 420.265411,686.275024 
	C409.581299,696.792603 399.026917,707.442383 388.460846,718.079041 
	C387.197235,719.351135 386.209808,720.897522 385.047180,722.658447 
	C378.978851,723.000000 372.957703,723.000000 366.468262,723.000000 
z"/>
<path fill="#CFE396" opacity="1.000000" stroke="none" 
	d="
M571.537170,642.093750 
	C568.864197,645.745728 565.489929,649.147034 562.671814,652.959412 
	C560.371338,656.071533 558.760010,659.689148 556.797974,663.056396 
	C554.578125,666.866394 552.861145,671.152649 549.949036,674.339600 
	C543.004456,681.939453 535.550171,689.080688 528.179993,696.282593 
	C521.061523,703.238586 513.894958,710.154358 506.500458,716.811218 
	C504.989441,718.171387 502.330933,718.200378 500.275482,719.027222 
	C497.847870,720.003784 495.500763,721.180420 493.059387,722.635132 
	C486.645599,723.000000 480.291199,723.000000 473.468414,723.000000 
	C476.369202,719.211182 479.639587,715.325134 483.191254,711.715881 
	C483.898376,710.997314 485.881927,710.847473 486.932953,711.276978 
	C490.887115,712.892822 493.390717,711.174316 496.109100,708.480469 
	C512.980225,691.761780 529.791870,674.972961 547.071106,658.682495 
	C551.995605,654.039795 555.782043,649.313538 557.021118,642.278320 
	C561.720154,641.931580 566.398254,641.976257 571.537170,642.093750 
z"/>
<path fill="#F1D2BC" opacity="1.000000" stroke="none" 
	d="
M403.536041,642.092163 
	C402.354034,644.588989 401.052032,647.356506 399.012024,649.380005 
	C380.383698,667.857605 361.638733,686.217834 342.899872,704.583862 
	C337.954102,709.431213 332.875488,714.143311 327.946747,719.007568 
	C327.078491,719.864441 326.651001,721.167908 326.009979,722.632568 
	C320.645081,723.000000 315.290131,723.000000 309.467590,723.000000 
	C309.862183,721.637390 310.509583,720.061340 311.619110,718.944458 
	C326.126495,704.339966 340.640076,689.740540 355.276947,675.266113 
	C364.674957,665.972412 374.313721,656.922485 383.750793,647.667725 
	C385.097626,646.346924 385.914246,644.485535 386.985931,642.521362 
	C392.355011,642.118225 397.714386,642.068054 403.536041,642.092163 
z"/>
<path fill="#D6B9E1" opacity="1.000000" stroke="none" 
	d="
M358.954529,417.132019 
	C356.373352,414.656830 353.792145,412.181610 351.158875,408.981384 
	C351.404907,405.129211 351.435791,401.945221 352.084869,398.892731 
	C352.613068,396.408813 353.361145,393.650452 354.922119,391.769135 
	C359.160156,386.661255 363.795685,381.870880 368.427887,377.104553 
	C382.908020,362.205017 397.400696,347.316742 411.995026,332.529236 
	C443.118195,300.994080 474.319214,269.535767 505.467102,238.025024 
	C523.965698,219.310867 542.450378,200.582840 560.892944,181.813446 
	C580.185974,162.178406 599.406372,142.471970 618.685364,122.823112 
	C637.992676,103.145355 657.356995,83.523453 676.628113,63.810421 
	C678.966858,61.418087 680.881592,58.611351 682.994629,56.430252 
	C682.666077,62.577110 682.335876,68.290382 682.004883,74.453400 
	C682.002808,77.602104 682.001404,80.301048 681.667236,83.067352 
	C679.183716,85.628998 677.161865,88.249474 674.862000,90.597717 
	C655.667480,110.196304 636.436951,129.759796 617.187500,149.304565 
	C593.364014,173.493530 569.500061,197.642685 545.676086,221.831146 
	C526.299683,241.504059 506.963684,261.216766 487.596802,280.899109 
	C446.049042,323.123749 404.520447,365.367432 362.878876,407.499390 
	C360.069336,410.342010 358.448029,413.177246 358.954529,417.132019 
z"/>
<path fill="#D2B7E3" opacity="1.000000" stroke="none" 
	d="
M682.992859,55.996666 
	C680.881592,58.611351 678.966858,61.418087 676.628113,63.810421 
	C657.356995,83.523453 637.992676,103.145355 618.685364,122.823112 
	C599.406372,142.471970 580.185974,162.178406 560.892944,181.813446 
	C542.450378,200.582840 523.965698,219.310867 505.467102,238.025024 
	C474.319214,269.535767 443.118195,300.994080 411.995026,332.529236 
	C397.400696,347.316742 382.908020,362.205017 368.427887,377.104553 
	C363.795685,381.870880 359.160156,386.661255 354.922119,391.769135 
	C353.361145,393.650452 352.613068,396.408813 352.084869,398.892731 
	C351.435791,401.945221 351.404907,405.129211 351.037292,408.672302 
	C347.047150,405.302612 343.126526,401.516998 338.951233,397.175598 
	C338.400848,396.393677 338.105103,396.167542 337.809357,395.941406 
	C337.645782,395.892639 337.482208,395.843872 337.585785,395.417511 
	C341.447418,390.617523 345.265594,386.355774 348.583893,381.735016 
	C353.572449,374.788574 357.626617,367.093262 363.138550,360.619202 
	C370.925629,351.472778 379.698944,343.167877 387.993347,334.448730 
	C388.862915,333.534607 389.346436,332.253296 390.009033,331.142365 
	C391.233368,330.037292 392.509827,328.984344 393.674591,327.819733 
	C492.414215,229.092575 591.136169,130.347748 689.889709,31.634527 
	C700.701599,20.827045 713.627197,16.669283 728.737732,19.983994 
	C729.381592,20.125229 730.050903,20.150450 730.436157,20.602009 
	C727.014587,20.981697 723.865173,20.986816 720.715820,20.996857 
	C702.414551,21.055204 684.432129,37.740067 682.992859,55.996666 
z"/>
<path fill="#DDBCDD" opacity="1.000000" stroke="none" 
	d="
M385.000519,429.833405 
	C379.224152,427.934174 373.447815,426.034973 367.347656,423.625214 
	C368.131348,421.128174 368.873749,418.788239 370.402161,417.209167 
	C387.963287,399.065948 405.677216,381.070831 423.283112,362.970795 
	C441.373505,344.372681 459.336273,325.650299 477.452606,307.077576 
	C495.932800,288.131836 514.467041,269.237823 533.091858,250.434311 
	C576.335083,206.776169 619.697876,163.236221 662.878723,119.516602 
	C669.611877,112.699379 675.643799,105.189522 682.228821,98.271080 
	C682.307556,102.697197 682.157471,106.852203 682.006958,111.471405 
	C682.004395,116.290504 682.002197,120.645409 681.658813,125.050400 
	C680.871582,125.313873 680.312988,125.420799 679.995789,125.756096 
	C670.294861,136.011292 660.818359,146.487076 650.901611,156.528244 
	C610.871704,197.060318 570.692810,237.445160 530.606567,277.921631 
	C523.933960,284.659210 517.488342,291.621002 510.868622,298.411713 
	C493.573273,316.154022 476.279938,333.898651 458.911316,351.569122 
	C435.220581,375.671539 411.431702,399.677551 387.801605,423.839081 
	C386.346313,425.327057 385.910614,427.812225 385.000519,429.833405 
z"/>
<path fill="#DABBDF" opacity="1.000000" stroke="none" 
	d="
M682.000000,97.999985 
	C675.643799,105.189522 669.611877,112.699379 662.878723,119.516602 
	C619.697876,163.236221 576.335083,206.776169 533.091858,250.434311 
	C514.467041,269.237823 495.932800,288.131836 477.452606,307.077576 
	C459.336273,325.650299 441.373505,344.372681 423.283112,362.970795 
	C405.677216,381.070831 387.963287,399.065948 370.402161,417.209167 
	C368.873749,418.788239 368.131348,421.128174 367.012817,423.473480 
	C364.404327,421.809265 361.806824,419.786224 359.081940,417.447601 
	C358.448029,413.177246 360.069336,410.342010 362.878876,407.499390 
	C404.520447,365.367432 446.049042,323.123749 487.596802,280.899109 
	C506.963684,261.216766 526.299683,241.504059 545.676086,221.831146 
	C569.500061,197.642685 593.364014,173.493530 617.187500,149.304565 
	C636.436951,129.759796 655.667480,110.196304 674.862000,90.597717 
	C677.161865,88.249474 679.183716,85.628998 681.668091,83.533463 
	C682.001160,88.621490 682.000610,93.310745 682.000000,97.999985 
z"/>
<path fill="#FDCCCA" opacity="1.000000" stroke="none" 
	d="
M682.164246,260.997498 
	C682.115417,243.975189 682.066589,226.952881 682.424194,209.409592 
	C683.625488,208.318924 684.551819,207.869064 685.195740,207.162003 
	C701.352478,189.421066 717.493652,171.665939 733.603394,153.882294 
	C738.710876,148.244064 743.588501,142.392258 748.814087,136.867752 
	C753.651428,131.753616 758.813293,126.946381 763.832275,122.004013 
	C763.881714,141.025726 763.931152,160.047440 763.553101,179.544022 
	C761.626953,180.969315 759.885193,181.681549 758.676147,182.915695 
	C755.308350,186.353317 752.182068,190.026276 748.922791,193.571716 
	C744.318848,198.579666 744.491943,200.856461 749.884399,205.262512 
	C755.885864,210.166138 755.727234,213.601303 749.210144,217.873993 
	C731.265503,229.638748 713.321777,241.405273 695.328369,253.095154 
	C691.039307,255.881622 686.557434,258.371277 682.164246,260.997498 
z"/>
<path fill="#65BDFE" opacity="1.000000" stroke="none" 
	d="
M16.166283,120.997192 
	C16.111416,99.879295 15.214437,78.719887 16.252785,57.655880 
	C17.179575,38.854912 32.497864,19.219580 54.023781,17.797932 
	C66.510384,16.973274 76.973404,20.104164 85.935425,28.499018 
	C92.094872,34.268658 97.987473,40.323151 103.708679,46.656288 
	C101.876205,48.276630 100.181366,49.340454 98.815964,50.728374 
	C83.007851,66.797142 67.228493,82.894402 51.502796,99.043793 
	C49.364056,101.240166 47.392418,102.474777 44.094044,101.322250 
	C40.956413,100.225876 38.080841,101.121895 35.597904,103.797379 
	C30.969780,108.784439 26.101223,113.558556 21.156164,118.234581 
	C19.818319,119.499626 17.846895,120.094643 16.166283,120.997192 
z"/>
<path fill="#E1BEDC" opacity="1.000000" stroke="none" 
	d="
M385.459045,429.908081 
	C385.910614,427.812225 386.346313,425.327057 387.801605,423.839081 
	C411.431702,399.677551 435.220581,375.671539 458.911316,351.569122 
	C476.279938,333.898651 493.573273,316.154022 510.868622,298.411713 
	C517.488342,291.621002 523.933960,284.659210 530.606567,277.921631 
	C570.692810,237.445160 610.871704,197.060318 650.901611,156.528244 
	C660.818359,146.487076 670.294861,136.011292 679.995789,125.756096 
	C680.312988,125.420799 680.871582,125.313873 681.659912,125.517960 
	C681.999817,131.289978 681.997498,136.644516 681.666138,142.065491 
	C672.362793,151.449707 663.424988,160.803055 654.405640,170.077133 
	C640.367188,184.512024 626.332703,198.951660 612.190613,213.284821 
	C581.669006,244.218826 551.057068,275.063660 520.536316,305.998505 
	C513.648254,312.980072 507.095947,320.293335 500.193512,327.260193 
	C469.153015,358.590363 438.017334,389.826324 407.023407,421.202393 
	C405.323639,422.923126 404.592773,425.601013 403.410919,427.833374 
	C397.579803,428.549805 391.748718,429.266266 385.459045,429.908081 
z"/>
<path fill="#86B3FB" opacity="1.000000" stroke="none" 
	d="
M16.166115,298.998718 
	C16.117378,281.308960 16.068638,263.619202 16.440689,245.450806 
	C17.569168,244.606705 18.437431,244.395966 18.960817,243.852875 
	C29.337042,233.086105 39.556583,222.165924 50.046177,211.511444 
	C64.405968,196.925934 78.948555,182.520050 93.467148,168.091858 
	C94.714165,166.852600 96.367882,166.022583 97.832672,165.002472 
	C97.882637,182.692459 97.932594,200.382462 97.578217,218.591431 
	C96.242020,219.780930 95.190323,220.333313 94.395828,221.139267 
	C74.195595,241.630234 54.018604,262.144165 33.857849,282.674011 
	C33.052235,283.494354 32.575142,284.656158 31.724747,285.410614 
	C26.574125,289.980072 21.359404,294.477325 16.166115,298.998718 
z"/>
<path fill="#6EBAFD" opacity="1.000000" stroke="none" 
	d="
M16.092651,121.461029 
	C17.846895,120.094643 19.818319,119.499626 21.156164,118.234581 
	C26.101223,113.558556 30.969780,108.784439 35.597904,103.797379 
	C38.080841,101.121895 40.956413,100.225876 44.094044,101.322250 
	C47.392418,102.474777 49.364056,101.240166 51.502796,99.043793 
	C67.228493,82.894402 83.007851,66.797142 98.815964,50.728374 
	C100.181366,49.340454 101.876205,48.276630 103.766953,47.010078 
	C112.018753,54.420647 119.921608,61.883389 127.585541,69.674896 
	C125.008812,71.732925 122.376099,73.176514 120.380127,75.236931 
	C105.246330,90.859375 90.206039,106.572968 75.221313,122.338661 
	C72.839584,124.844528 70.329895,125.788483 67.245537,124.183632 
	C63.749935,122.364784 61.501991,123.808990 59.052654,126.359154 
	C46.419338,139.512589 33.661217,152.546616 20.879290,165.556137 
	C19.534187,166.925201 17.748121,167.861023 16.166636,168.997833 
	C16.117430,153.306839 16.068226,137.615860 16.092651,121.461029 
z"/>
<path fill="#7FB5FC" opacity="1.000000" stroke="none" 
	d="
M97.906509,164.581268 
	C96.367882,166.022583 94.714165,166.852600 93.467148,168.091858 
	C78.948555,182.520050 64.405968,196.925934 50.046177,211.511444 
	C39.556583,222.165924 29.337042,233.086105 18.960817,243.852875 
	C18.437431,244.395966 17.569168,244.606705 16.514439,244.987488 
	C16.117937,237.311096 16.068480,229.619400 16.445751,221.453461 
	C18.370926,220.030136 20.116934,219.322784 21.322668,218.087906 
	C25.381945,213.930588 29.148821,209.487823 33.207031,205.329407 
	C50.062168,188.058151 67.052078,170.917725 83.817345,153.560089 
	C86.907539,150.360718 89.724373,149.607956 93.981239,150.926804 
	C96.200058,151.614227 99.915482,151.191650 101.459465,149.711029 
	C109.355186,142.139313 116.713531,134.010666 124.355080,126.169640 
	C134.212601,116.054756 144.160400,106.027855 154.069336,95.963066 
	C159.639359,101.385101 165.209366,106.807137 170.857697,112.896362 
	C170.498657,114.246689 170.163406,115.029236 169.609116,115.598495 
	C152.708832,132.955750 135.740936,150.247711 118.945351,167.705475 
	C117.398651,169.313156 116.929131,171.957138 115.959412,174.119934 
	C110.563942,168.156113 105.168480,162.192307 99.773010,156.228500 
	C99.175461,156.646088 98.577904,157.063675 97.980354,157.481262 
	C97.980354,159.707520 97.980354,161.933792 97.906509,164.581268 
z"/>
<path fill="#EBC3D6" opacity="1.000000" stroke="none" 
	d="
M681.995117,141.999054 
	C681.997498,136.644516 681.999817,131.289978 682.001099,125.467873 
	C682.002197,120.645409 682.004395,116.290504 682.344482,111.391418 
	C684.833679,107.366226 686.529724,103.478920 689.212830,100.472527 
	C702.990662,85.034782 717.055481,69.853592 730.951172,54.520401 
	C737.725586,47.045071 744.350098,39.433804 751.042419,31.884071 
	C759.675354,39.114071 762.895569,48.907696 763.948425,59.625225 
	C764.287598,63.077305 763.992859,66.591660 763.581299,70.593849 
	C761.887756,72.134834 760.449768,73.018135 759.338257,74.206726 
	C751.052307,83.066963 742.766663,91.929001 734.603149,100.901695 
	C718.282959,118.839653 702.055237,136.861649 685.728394,154.793488 
	C684.823853,155.786942 683.365417,156.276093 682.164795,156.999954 
	C682.164795,156.999954 682.007874,156.570068 681.991699,155.871460 
	C681.982056,150.781601 681.988586,146.390320 681.995117,141.999054 
z"/>
<path fill="#C9E590" opacity="1.000000" stroke="none" 
	d="
M763.835388,438.000671 
	C763.882568,452.023468 763.929810,466.046234 763.568604,480.591217 
	C749.194153,490.135193 735.253906,499.197174 721.254639,508.166931 
	C708.258606,516.493896 695.199707,524.722534 682.168579,532.994446 
	C682.117188,518.971863 682.065796,504.949341 682.424988,490.406128 
	C702.789185,476.874542 722.707397,463.808624 742.716064,450.882782 
	C749.640137,446.409729 756.789124,442.284668 763.835388,438.000671 
z"/>
<path fill="#7BB6FC" opacity="1.000000" stroke="none" 
	d="
M153.942200,95.651749 
	C144.160400,106.027855 134.212601,116.054756 124.355080,126.169640 
	C116.713531,134.010666 109.355186,142.139313 101.459465,149.711029 
	C99.915482,151.191650 96.200058,151.614227 93.981239,150.926804 
	C89.724373,149.607956 86.907539,150.360718 83.817345,153.560089 
	C67.052078,170.917725 50.062168,188.058151 33.207031,205.329407 
	C29.148821,209.487823 25.381945,213.930588 21.322668,218.087906 
	C20.116934,219.322784 18.370926,220.030136 16.519501,220.990051 
	C16.117327,211.976471 16.068138,202.952087 16.445690,193.453461 
	C18.607033,191.794052 20.589710,190.853775 22.038261,189.386261 
	C38.412094,172.798203 54.763287,156.186569 70.961395,139.427444 
	C73.758827,136.533112 76.379608,135.287048 80.125168,137.167206 
	C83.484001,138.853256 86.140854,137.789536 88.498268,135.046066 
	C91.635880,131.394623 94.853493,127.802429 98.195015,124.337433 
	C109.493561,112.621414 120.789024,100.900269 132.261520,89.355835 
	C134.735809,86.866028 137.944550,85.106071 140.814987,83.009933 
	C145.148346,87.120094 149.481689,91.230263 153.942200,95.651749 
z"/>
<path fill="#C3E889" opacity="1.000000" stroke="none" 
	d="
M682.093018,533.458191 
	C695.199707,524.722534 708.258606,516.493896 721.254639,508.166931 
	C735.253906,499.197174 749.194153,490.135193 763.495789,481.054596 
	C763.879578,493.352875 763.927734,505.709930 763.568542,518.589233 
	C743.209595,532.122253 723.293701,545.188232 703.286865,558.113525 
	C696.363892,562.586060 689.214905,566.708862 682.169189,570.991455 
	C682.118652,558.634949 682.068054,546.278442 682.093018,533.458191 
z"/>
<path fill="#E3BFDA" opacity="1.000000" stroke="none" 
	d="
M681.666138,142.065491 
	C681.988586,146.390320 681.982056,150.781601 681.962769,155.644485 
	C680.598145,157.284134 679.165955,158.371857 677.905701,159.631638 
	C593.564453,243.942871 509.218811,328.249817 424.946075,412.629486 
	C418.762482,418.820892 412.392303,424.572754 403.802094,427.888794 
	C404.592773,425.601013 405.323639,422.923126 407.023407,421.202393 
	C438.017334,389.826324 469.153015,358.590363 500.193512,327.260193 
	C507.095947,320.293335 513.648254,312.980072 520.536316,305.998505 
	C551.057068,275.063660 581.669006,244.218826 612.190613,213.284821 
	C626.332703,198.951660 640.367188,184.512024 654.405640,170.077133 
	C663.424988,160.803055 672.362793,151.449707 681.666138,142.065491 
z"/>
<path fill="#F7D0C2" opacity="1.000000" stroke="none" 
	d="
M682.087097,261.460632 
	C686.557434,258.371277 691.039307,255.881622 695.328369,253.095154 
	C713.321777,241.405273 731.265503,229.638748 749.210144,217.873993 
	C755.727234,213.601303 755.885864,210.166138 749.884399,205.262512 
	C744.491943,200.856461 744.318848,198.579666 748.922791,193.571716 
	C752.182068,190.026276 755.308350,186.353317 758.676147,182.915695 
	C759.885193,181.681549 761.626953,180.969315 763.479126,180.007233 
	C763.882690,200.020859 763.932678,220.046158 763.574646,240.592590 
	C761.958679,241.968781 760.777405,242.864716 759.538818,243.672974 
	C734.974121,259.703369 710.409180,275.733429 685.810730,291.712006 
	C684.760254,292.394348 683.387512,292.580688 682.164917,292.998077 
	C682.113281,282.639984 682.061584,272.281891 682.087097,261.460632 
z"/>
<path fill="#CAB3E8" opacity="1.000000" stroke="none" 
	d="
M389.660645,331.062958 
	C389.346436,332.253296 388.862915,333.534607 387.993347,334.448730 
	C379.698944,343.167877 370.925629,351.472778 363.138550,360.619202 
	C357.626617,367.093262 353.572449,374.788574 348.583893,381.735016 
	C345.265594,386.355774 341.447418,390.617523 337.485840,395.181763 
	C327.707458,385.982239 318.296204,376.640900 308.880066,366.706238 
	C326.936035,347.562225 344.987183,329.001984 363.092346,310.494629 
	C363.840637,309.729675 365.094879,309.459717 366.113403,308.959167 
	C372.471619,315.200256 378.810211,321.461609 385.204834,327.665192 
	C386.462982,328.885712 387.937531,329.883179 389.660645,331.062958 
z"/>
<path fill="#B3A9F4" opacity="1.000000" stroke="none" 
	d="
M16.166176,558.000549 
	C16.116951,545.976318 16.067728,533.952087 16.422523,521.408691 
	C18.342714,519.634644 19.981716,518.500916 21.356604,517.106750 
	C41.384239,496.799103 61.379261,476.459259 81.368546,456.113861 
	C82.292961,455.172943 83.009674,454.022858 83.960350,453.113678 
	C88.558846,448.716034 93.204292,444.367493 97.833092,440.001526 
	C97.883415,452.358765 97.933739,464.716003 97.568596,477.591003 
	C93.920647,481.086945 90.548927,483.928802 87.477905,487.065125 
	C64.836800,510.187622 42.266628,533.379578 19.611418,556.488220 
	C18.796616,557.319397 17.329365,557.510925 16.166176,558.000549 
z"/>
<path fill="#A0ABF8" opacity="1.000000" stroke="none" 
	d="
M97.833015,325.001404 
	C97.882980,336.692017 97.932945,348.382599 97.555374,360.547119 
	C95.515236,362.083923 93.646820,362.896942 92.328041,364.246887 
	C68.581589,388.554260 44.920486,412.944977 21.154850,437.233490 
	C19.880600,438.535797 17.846809,439.094879 16.166607,439.999939 
	C16.117643,428.309296 16.068676,416.618622 16.423542,404.408722 
	C17.520193,403.452637 18.330059,403.130859 18.888891,402.562317 
	C38.434258,382.677582 57.969875,362.783234 77.466049,342.850281 
	C80.346611,339.905212 82.753120,336.442993 85.866508,333.792816 
	C89.621941,330.596100 91.630539,324.877411 97.833015,325.001404 
z"/>
<path fill="#76B8FD" opacity="1.000000" stroke="none" 
	d="
M140.798706,82.675453 
	C137.944550,85.106071 134.735809,86.866028 132.261520,89.355835 
	C120.789024,100.900269 109.493561,112.621414 98.195015,124.337433 
	C94.853493,127.802429 91.635880,131.394623 88.498268,135.046066 
	C86.140854,137.789536 83.484001,138.853256 80.125168,137.167206 
	C76.379608,135.287048 73.758827,136.533112 70.961395,139.427444 
	C54.763287,156.186569 38.412094,172.798203 22.038261,189.386261 
	C20.589710,190.853775 18.607033,191.794052 16.519440,192.990021 
	C16.117397,185.308990 16.068344,177.617188 16.092962,169.461609 
	C17.748121,167.861023 19.534187,166.925201 20.879290,165.556137 
	C33.661217,152.546616 46.419338,139.512589 59.052654,126.359154 
	C61.501991,123.808990 63.749935,122.364784 67.245537,124.183632 
	C70.329895,125.788483 72.839584,124.844528 75.221313,122.338661 
	C90.206039,106.572968 105.246330,90.859375 120.380127,75.236931 
	C122.376099,73.176514 125.008812,71.732925 127.716415,69.988335 
	C132.318283,74.095673 136.550339,78.218323 140.798706,82.675453 
z"/>
<path fill="#C4B1EB" opacity="1.000000" stroke="none" 
	d="
M16.166492,650.001099 
	C16.117290,638.976807 16.068087,627.952576 16.431450,616.410339 
	C18.965111,614.359009 21.349779,613.086792 23.167307,611.252625 
	C46.406647,587.800598 69.552101,564.255554 92.773735,540.785889 
	C94.238724,539.305298 96.136993,538.253296 97.833710,537.001892 
	C97.884033,548.026062 97.934364,559.050232 97.556160,570.548035 
	C95.399033,572.200562 93.423256,573.134949 91.979118,574.595154 
	C71.801819,594.996399 51.680428,615.453125 31.592966,635.942871 
	C28.585810,639.010254 25.986668,642.489075 22.882990,645.446167 
	C20.951149,647.286682 18.425589,648.504028 16.166492,650.001099 
z"/>
<path fill="#CAB3E8" opacity="1.000000" stroke="none" 
	d="
M16.092484,650.464478 
	C18.425589,648.504028 20.951149,647.286682 22.882990,645.446167 
	C25.986668,642.489075 28.585810,639.010254 31.592966,635.942871 
	C51.680428,615.453125 71.801819,594.996399 91.979118,574.595154 
	C93.423256,573.134949 95.399033,572.200562 97.480652,571.011353 
	C97.889557,580.327454 98.002419,589.654236 97.936859,598.979736 
	C97.927544,600.304321 97.419472,601.988525 96.522881,602.890991 
	C70.013924,629.571472 43.426556,656.174011 16.018473,683.623413 
	C16.018473,672.025635 16.018473,661.476746 16.092484,650.464478 
z"/>
<path fill="#D5E09C" opacity="1.000000" stroke="none" 
	d="
M682.167847,472.995728 
	C682.116760,462.305267 682.065674,451.614807 682.447998,440.450134 
	C684.207520,439.343109 685.624817,438.850555 686.846375,438.056824 
	C710.231018,422.862579 733.570007,407.597900 756.999695,392.473633 
	C758.983582,391.192963 761.541870,390.801971 763.833252,389.997620 
	C763.881653,400.354797 763.930115,410.711975 763.541260,421.545471 
	C761.566101,422.603668 759.861633,422.929657 758.515381,423.805969 
	C740.336487,435.638977 722.240784,447.599945 704.049316,459.413452 
	C696.851013,464.088043 689.467163,468.476807 682.167847,472.995728 
z"/>
<path fill="#BEADEF" opacity="1.000000" stroke="none" 
	d="
M97.909103,536.538452 
	C96.136993,538.253296 94.238724,539.305298 92.773735,540.785889 
	C69.552101,564.255554 46.406647,587.800598 23.167307,611.252625 
	C21.349779,613.086792 18.965111,614.359009 16.505297,615.947021 
	C16.117098,605.977051 16.067619,595.952576 16.422161,585.408752 
	C18.229736,583.747253 19.754490,582.724792 21.018869,581.445068 
	C44.533066,557.645996 68.019112,533.819153 91.495483,509.982788 
	C92.422470,509.041595 93.101639,507.848022 94.063736,506.951782 
	C95.227142,505.868103 96.569252,504.976318 97.834015,504.001465 
	C97.884171,514.692688 97.934326,525.383850 97.909103,536.538452 
z"/>
<path fill="#AAA7F7" opacity="1.000000" stroke="none" 
	d="
M97.833282,386.001190 
	C97.882965,395.358734 97.932640,404.716309 97.577484,414.592682 
	C95.891167,416.131653 94.481133,417.026794 93.348541,418.191681 
	C84.223709,427.576965 75.189880,437.050812 66.053802,446.425049 
	C50.797573,462.078979 35.500774,477.693542 20.167381,493.271851 
	C19.056433,494.400543 17.510189,495.100830 16.166325,496.000275 
	C16.117125,485.642883 16.067921,475.285461 16.445587,464.453766 
	C18.604010,462.797241 20.581944,461.859039 22.030357,460.396423 
	C45.419788,436.777283 68.719482,413.069244 92.130951,389.472076 
	C93.652306,387.938690 95.915283,387.141052 97.833282,386.001190 
z"/>
<path fill="#86B3FB" opacity="1.000000" stroke="none" 
	d="
M116.084808,174.426880 
	C116.929131,171.957138 117.398651,169.313156 118.945351,167.705475 
	C135.740936,150.247711 152.708832,132.955750 169.609116,115.598495 
	C170.163406,115.029236 170.498657,114.246689 170.997055,113.216156 
	C177.973190,119.663895 184.888275,126.459030 191.774246,133.865189 
	C183.865540,142.469940 175.953369,150.431885 168.114578,158.465424 
	C158.276489,168.547897 148.530823,178.720779 138.656387,188.767288 
	C137.325806,190.121048 135.477875,190.966293 133.869507,192.046997 
	C127.983070,186.275940 122.096642,180.504883 116.084808,174.426880 
z"/>
<path fill="#91AFFA" opacity="1.000000" stroke="none" 
	d="
M97.834137,243.001144 
	C97.883499,252.025238 97.932861,261.049347 97.577805,270.592316 
	C95.651192,272.371918 93.998138,273.505035 92.626266,274.912262 
	C68.821663,299.330170 45.064583,323.794403 21.242512,348.195221 
	C19.782967,349.690186 17.869387,350.741943 16.167067,351.999939 
	C16.117781,342.975830 16.068491,333.951752 16.423010,324.408447 
	C17.640684,323.335022 18.573231,322.897705 19.251160,322.209564 
	C38.640171,302.527924 58.006603,282.824005 77.358971,263.106354 
	C78.049324,262.402954 78.460564,261.419373 79.169098,260.741028 
	C85.369133,254.805130 91.607292,248.909042 97.834137,243.001144 
z"/>
<path fill="#B9ABF1" opacity="1.000000" stroke="none" 
	d="
M97.909019,503.538025 
	C96.569252,504.976318 95.227142,505.868103 94.063736,506.951782 
	C93.101639,507.848022 92.422470,509.041595 91.495483,509.982788 
	C68.019112,533.819153 44.533066,557.645996 21.018869,581.445068 
	C19.754490,582.724792 18.229736,583.747253 16.496128,584.945312 
	C16.116896,576.309998 16.067719,567.618774 16.092360,558.464050 
	C17.329365,557.510925 18.796616,557.319397 19.611418,556.488220 
	C42.266628,533.379578 64.836800,510.187622 87.477905,487.065125 
	C90.548927,483.928802 93.920647,481.086945 97.493561,478.054321 
	C97.884003,486.358093 97.934013,494.716309 97.909019,503.538025 
z"/>
<path fill="#EDD4B8" opacity="1.000000" stroke="none" 
	d="
M554.115906,511.958252 
	C557.606201,519.695801 556.932678,527.927917 556.571533,536.593628 
	C554.140503,538.543518 551.881165,539.732178 550.131165,541.442078 
	C530.485168,560.638245 510.916840,579.914001 491.330475,599.171204 
	C489.904938,600.572754 488.598297,602.112915 487.068756,603.387451 
	C483.152466,606.650879 479.141571,609.800781 475.168427,612.995972 
	C475.116638,604.305603 475.064880,595.615234 475.419525,586.406738 
	C481.605438,580.704346 487.569916,575.710205 493.130768,570.301086 
	C511.928101,552.016602 530.566833,533.569153 549.323120,515.242310 
	C550.687622,513.909058 552.507690,513.042053 554.115906,511.958252 
z"/>
<path fill="#96AEF9" opacity="1.000000" stroke="none" 
	d="
M16.093178,352.463440 
	C17.869387,350.741943 19.782967,349.690186 21.242512,348.195221 
	C45.064583,323.794403 68.821663,299.330170 92.626266,274.912262 
	C93.998138,273.505035 95.651192,272.371918 97.503433,271.055786 
	C97.883087,280.024628 97.932678,289.048950 97.554840,298.547211 
	C95.511253,300.087830 93.645844,300.909241 92.317772,302.259308 
	C80.085571,314.694092 67.959908,327.233551 55.776188,339.716156 
	C44.036842,351.743469 32.293816,363.767609 20.460896,375.702393 
	C19.368441,376.804260 17.613968,377.249725 16.166882,377.999939 
	C16.117683,369.642273 16.068489,361.284637 16.093178,352.463440 
z"/>
<path fill="#BBEC80" opacity="1.000000" stroke="none" 
	d="
M682.093506,571.455444 
	C689.214905,566.708862 696.363892,562.586060 703.286865,558.113525 
	C723.293701,545.188232 743.209595,532.122253 763.496338,519.052612 
	C763.880371,527.686035 763.929260,536.378296 763.564392,545.589844 
	C745.790588,557.217896 728.427185,568.321533 711.071838,579.437744 
	C701.429810,585.613403 691.801208,591.809998 682.166565,597.997131 
	C682.117004,589.304565 682.067444,580.612061 682.093506,571.455444 
z"/>
<path fill="#F7C8CF" opacity="1.000000" stroke="none" 
	d="
M763.908936,121.540588 
	C758.813293,126.946381 753.651428,131.753616 748.814087,136.867752 
	C743.588501,142.392258 738.710876,148.244064 733.603394,153.882294 
	C717.493652,171.665939 701.352478,189.421066 685.195740,207.162003 
	C684.551819,207.869064 683.625488,208.318924 682.499084,208.946533 
	C682.117188,200.312378 682.066956,191.620300 682.421692,182.409088 
	C684.229553,180.748184 685.799988,179.760086 687.009644,178.441162 
	C700.917297,163.277237 714.789185,148.080322 728.631104,132.856232 
	C737.781738,122.791855 746.775269,112.582458 756.053345,102.637909 
	C758.197266,100.339989 761.216370,98.858711 763.832764,97.001640 
	C763.883728,105.026817 763.934692,113.052002 763.908936,121.540588 
z"/>
<path fill="#E3BFDA" opacity="1.000000" stroke="none" 
	d="
M750.916016,31.569077 
	C744.350098,39.433804 737.725586,47.045071 730.951172,54.520401 
	C717.055481,69.853592 702.990662,85.034782 689.212830,100.472527 
	C686.529724,103.478920 684.833679,107.366226 682.344849,110.927216 
	C682.157471,106.852203 682.307556,102.697197 682.228882,98.271095 
	C682.000610,93.310745 682.001160,88.621490 682.000854,83.466118 
	C682.001404,80.301048 682.002808,77.602104 682.342529,74.374664 
	C687.976807,67.201576 693.103394,60.412567 698.614380,53.951427 
	C704.607971,46.924446 710.764343,40.012096 717.217896,33.409641 
	C722.013550,28.503281 725.702759,21.648846 734.112854,21.957962 
	C739.671753,25.056667 745.230713,28.155375 750.916016,31.569077 
z"/>
<path fill="#B5EF7A" opacity="1.000000" stroke="none" 
	d="
M682.091980,598.460754 
	C691.801208,591.809998 701.429810,585.613403 711.071838,579.437744 
	C728.427185,568.321533 745.790588,557.217896 763.492065,546.053345 
	C763.881775,554.022400 763.930115,562.047119 763.905884,570.535522 
	C751.398438,578.992188 738.925903,586.927551 726.538940,594.994141 
	C713.441406,603.523376 700.437073,612.195740 687.356262,620.750854 
	C685.978638,621.651855 684.359924,622.184204 682.509888,622.943054 
	C682.116943,614.973816 682.067200,606.949097 682.091980,598.460754 
z"/>
<path fill="#F2C6D2" opacity="1.000000" stroke="none" 
	d="
M763.909302,96.538406 
	C761.216370,98.858711 758.197266,100.339989 756.053345,102.637909 
	C746.775269,112.582458 737.781738,122.791855 728.631104,132.856232 
	C714.789185,148.080322 700.917297,163.277237 687.009644,178.441162 
	C685.799988,179.760086 684.229553,180.748184 682.496582,181.945847 
	C682.116516,173.976883 682.066467,165.951996 682.090637,157.463531 
	C683.365417,156.276093 684.823853,155.786942 685.728394,154.793488 
	C702.055237,136.861649 718.282959,118.839653 734.603149,100.901695 
	C742.766663,91.929001 751.052307,83.066963 759.338257,74.206726 
	C760.449768,73.018135 761.887756,72.134834 763.504883,71.055023 
	C763.885437,79.358307 763.935608,87.716736 763.909302,96.538406 
z"/>
<path fill="#AFA7F6" opacity="1.000000" stroke="none" 
	d="
M16.092436,496.463745 
	C17.510189,495.100830 19.056433,494.400543 20.167381,493.271851 
	C35.500774,477.693542 50.797573,462.078979 66.053802,446.425049 
	C75.189880,437.050812 84.223709,427.576965 93.348541,418.191681 
	C94.481133,417.026794 95.891167,416.131653 97.502655,415.056091 
	C97.882706,423.025299 97.932755,431.049927 97.907944,439.538025 
	C93.204292,444.367493 88.558846,448.716034 83.960350,453.113678 
	C83.009674,454.022858 82.292961,455.172943 81.368546,456.113861 
	C61.379261,476.459259 41.384239,496.799103 21.356604,517.106750 
	C19.981716,518.500916 18.342714,519.634644 16.496494,520.945251 
	C16.117146,512.976440 16.067846,504.951843 16.092436,496.463745 
z"/>
<path fill="#9BACF9" opacity="1.000000" stroke="none" 
	d="
M16.092979,378.463440 
	C17.613968,377.249725 19.368441,376.804260 20.460896,375.702393 
	C32.293816,363.767609 44.036842,351.743469 55.776188,339.716156 
	C67.959908,327.233551 80.085571,314.694092 92.317772,302.259308 
	C93.645844,300.909241 95.511253,300.087830 97.480392,299.010620 
	C97.883011,307.358185 97.932640,315.716278 97.907639,324.537903 
	C91.630539,324.877411 89.621941,330.596100 85.866508,333.792816 
	C82.753120,336.442993 80.346611,339.905212 77.466049,342.850281 
	C57.969875,362.783234 38.434258,382.677582 18.888891,402.562317 
	C18.330059,403.130859 17.520193,403.452637 16.497389,403.945312 
	C16.117962,395.643066 16.068520,387.285004 16.092979,378.463440 
z"/>
<path fill="#A5A9F8" opacity="1.000000" stroke="none" 
	d="
M97.907990,385.537720 
	C95.915283,387.141052 93.652306,387.938690 92.130951,389.472076 
	C68.719482,413.069244 45.419788,436.777283 22.030357,460.396423 
	C20.581944,461.859039 18.604010,462.797241 16.519445,463.990356 
	C16.117199,456.309814 16.067963,448.618378 16.092667,440.463440 
	C17.846809,439.094879 19.880600,438.535797 21.154850,437.233490 
	C44.920486,412.944977 68.581589,388.554260 92.328041,364.246887 
	C93.646820,362.896942 95.515236,362.083923 97.480888,361.010498 
	C97.883522,369.024780 97.933105,377.049500 97.907990,385.537720 
z"/>
<path fill="#8CB1FA" opacity="1.000000" stroke="none" 
	d="
M97.908318,242.537628 
	C91.607292,248.909042 85.369133,254.805130 79.169098,260.741028 
	C78.460564,261.419373 78.049324,262.402954 77.358971,263.106354 
	C58.006603,282.824005 38.640171,302.527924 19.251160,322.209564 
	C18.573231,322.897705 17.640684,323.335022 16.496807,323.944977 
	C16.117474,315.975861 16.068150,307.951019 16.092468,299.462433 
	C21.359404,294.477325 26.574125,289.980072 31.724747,285.410614 
	C32.575142,284.656158 33.052235,283.494354 33.857849,282.674011 
	C54.018604,262.144165 74.195595,241.630234 94.395828,221.139267 
	C95.190323,220.333313 96.242020,219.780930 97.503983,219.054810 
	C97.883568,226.690842 97.933029,234.382477 97.908318,242.537628 
z"/>
<path fill="#F1D2BC" opacity="1.000000" stroke="none" 
	d="
M682.088257,293.461243 
	C683.387512,292.580688 684.760254,292.394348 685.810730,291.712006 
	C710.409180,275.733429 734.974121,259.703369 759.538818,243.672974 
	C760.777405,242.864716 761.958679,241.968781 763.500732,241.055954 
	C763.884277,249.022522 763.933716,257.046844 763.547913,265.546753 
	C761.741943,266.562073 760.227844,266.883057 759.021729,267.673767 
	C735.335266,283.202606 711.696472,298.804169 688.002563,314.321625 
	C686.231873,315.481293 684.119080,316.118561 682.165283,316.998657 
	C682.114075,309.307251 682.062805,301.615814 682.088257,293.461243 
z"/>
<path fill="#AFA7F6" opacity="1.000000" stroke="none" 
	d="
M289.998627,232.142151 
	C295.270386,237.173737 300.542145,242.205322 305.784973,247.849136 
	C292.600037,262.044891 279.443085,275.627533 266.288452,289.212402 
	C260.508972,295.180939 254.734177,301.154022 248.957245,307.125061 
	C244.041077,302.327484 239.124908,297.529877 234.100952,292.054260 
	C235.122391,289.623993 235.987976,287.611145 237.422226,286.160492 
	C249.894028,273.546051 262.533173,261.096832 274.980103,248.458160 
	C280.163940,243.194473 285.002869,237.591064 289.998627,232.142151 
z"/>
<path fill="#8CB1FA" opacity="1.000000" stroke="none" 
	d="
M134.003937,192.357727 
	C135.477875,190.966293 137.325806,190.121048 138.656387,188.767288 
	C148.530823,178.720779 158.276489,168.547897 168.114578,158.465424 
	C175.953369,150.431885 183.865540,142.469940 191.900635,134.172089 
	C197.645660,139.357056 203.235168,144.846146 208.501190,150.724533 
	C206.661301,152.366318 205.037369,153.510132 203.644775,154.887772 
	C185.728897,172.610947 167.846024,190.367493 149.954803,208.115585 
	C144.682663,202.966553 139.410522,197.817505 134.003937,192.357727 
z"/>
<path fill="#F7D0C2" opacity="1.000000" stroke="none" 
	d="
M475.164612,561.999023 
	C475.112823,551.974548 475.061066,541.950073 475.439667,531.452637 
	C477.367401,530.033325 479.074982,529.306458 480.329102,528.106018 
	C490.891418,517.995300 501.488617,507.915497 511.813049,497.564789 
	C515.573364,493.794830 518.624634,489.317657 521.999451,485.163147 
	C530.545837,485.758575 537.550903,489.680847 543.764282,495.877045 
	C537.528381,502.461975 531.278931,508.388763 525.113953,514.402161 
	C509.671570,529.464844 494.279297,544.578857 478.821045,559.625122 
	C477.799652,560.619324 476.392395,561.216980 475.164612,561.999023 
z"/>
<path fill="#BEADEF" opacity="1.000000" stroke="none" 
	d="
M334.001526,276.147125 
	C339.954834,281.873291 345.908142,287.599457 351.621643,293.658295 
	C349.860260,294.888641 348.059296,295.510376 346.859253,296.725555 
	C330.172516,313.622986 313.552032,330.586029 296.976166,347.592316 
	C295.733490,348.867249 294.953278,350.592926 293.958130,352.109070 
	C288.021790,346.293091 282.085449,340.477112 276.404846,334.339233 
	C278.628052,332.990631 281.010254,332.375275 282.499481,330.874084 
	C298.965790,314.275421 315.317017,297.562103 331.608948,280.791962 
	C332.769989,279.596802 333.220612,277.711517 334.001526,276.147125 
z"/>
<path fill="#F1D2BC" opacity="1.000000" stroke="none" 
	d="
M475.087982,562.462097 
	C476.392395,561.216980 477.799652,560.619324 478.821045,559.625122 
	C494.279297,544.578857 509.671570,529.464844 525.113953,514.402161 
	C531.278931,508.388763 537.528381,502.461975 543.895264,496.193634 
	C549.202087,499.801483 552.242249,505.084778 554.062500,511.577393 
	C552.507690,513.042053 550.687622,513.909058 549.323120,515.242310 
	C530.566833,533.569153 511.928101,552.016602 493.130768,570.301086 
	C487.569916,575.710205 481.605438,580.704346 475.495697,585.943481 
	C475.114075,578.307312 475.062714,570.616211 475.087982,562.462097 
z"/>
<path fill="#9BACF9" opacity="1.000000" stroke="none" 
	d="
M192.961395,251.119339 
	C188.043289,246.323227 183.125214,241.527115 178.100281,236.051498 
	C178.656708,234.087265 179.056839,232.545929 180.022324,231.555939 
	C197.260376,213.880127 214.558167,196.262482 231.888367,178.676910 
	C232.650101,177.903931 233.843338,177.556183 234.835587,177.010376 
	C240.173508,182.116623 245.511429,187.222870 250.611725,192.662292 
	C248.973450,193.773468 247.306000,194.282913 246.211990,195.369644 
	C229.149170,212.318497 212.135193,229.316925 195.210403,246.403412 
	C194.053177,247.571716 193.692505,249.528992 192.961395,251.119339 
z"/>
<path fill="#B9ABF1" opacity="1.000000" stroke="none" 
	d="
M333.682312,275.998138 
	C333.220612,277.711517 332.769989,279.596802 331.608948,280.791962 
	C315.317017,297.562103 298.965790,314.275421 282.499481,330.874084 
	C281.010254,332.375275 278.628052,332.990631 276.272705,334.027802 
	C271.305206,329.578247 266.725616,325.118286 262.351196,320.279785 
	C280.709656,301.761200 298.882690,283.640747 316.965820,265.430969 
	C318.016876,264.372559 318.339081,262.590393 319.000488,261.145020 
	C323.788025,266.046387 328.575562,270.947754 333.682312,275.998138 
z"/>
<path fill="#C4B1EB" opacity="1.000000" stroke="none" 
	d="
M294.082031,352.417419 
	C294.953278,350.592926 295.733490,348.867249 296.976166,347.592316 
	C313.552032,330.586029 330.172516,313.622986 346.859253,296.725555 
	C348.059296,295.510376 349.860260,294.888641 351.752808,293.970093 
	C356.752136,298.719482 361.380493,303.489777 366.061157,308.609619 
	C365.094879,309.459717 363.840637,309.729675 363.092346,310.494629 
	C344.987183,329.001984 326.936035,347.562225 308.679382,366.460083 
	C303.724396,362.113434 298.965149,357.419556 294.082031,352.417419 
z"/>
<path fill="#AAA7F7" opacity="1.000000" stroke="none" 
	d="
M289.684204,232.009918 
	C285.002869,237.591064 280.163940,243.194473 274.980103,248.458160 
	C262.533173,261.096832 249.894028,273.546051 237.422226,286.160492 
	C235.987976,287.611145 235.122391,289.623993 233.974854,291.747223 
	C228.351257,286.633942 222.745972,281.149658 217.361771,275.300110 
	C218.961044,274.042267 220.552612,273.362213 221.685318,272.225067 
	C238.318848,255.526489 254.910950,238.786407 271.443878,221.988235 
	C272.895844,220.512985 273.864746,218.562286 275.057983,216.832397 
	C279.828613,221.847504 284.599213,226.862595 289.684204,232.009918 
z"/>
<path fill="#96AEF9" opacity="1.000000" stroke="none" 
	d="
M234.828735,176.673859 
	C233.843338,177.556183 232.650101,177.903931 231.888367,178.676910 
	C214.558167,196.262482 197.260376,213.880127 180.022324,231.555939 
	C179.056839,232.545929 178.656708,234.087265 177.975128,235.743958 
	C172.353287,230.631393 166.749786,225.146835 161.390594,219.333099 
	C163.756149,217.835052 166.164429,216.991440 167.936691,215.427216 
	C171.256516,212.497055 174.205170,209.146774 177.313095,205.976044 
	C190.424530,192.599716 203.516113,179.203705 216.686279,165.885452 
	C217.905670,164.652359 219.628784,163.917404 221.117996,162.951141 
	C225.685959,167.413223 230.253922,171.875290 234.828735,176.673859 
z"/>
<path fill="#EDD4B8" opacity="1.000000" stroke="none" 
	d="
M682.089111,317.461853 
	C684.119080,316.118561 686.231873,315.481293 688.002563,314.321625 
	C711.696472,298.804169 735.335266,283.202606 759.021729,267.673767 
	C760.227844,266.883057 761.741943,266.562073 763.473755,266.010040 
	C764.536133,269.027832 763.451599,271.176178 761.205444,273.391907 
	C745.568726,288.816925 730.089722,304.401886 714.560059,319.935547 
	C705.466980,329.030945 696.398376,338.151123 687.255127,347.195801 
	C685.834778,348.600891 684.073242,349.661102 682.012878,351.228058 
	C682.012878,339.544830 682.012878,328.734955 682.089111,317.461853 
z"/>
<path fill="#B3A9F4" opacity="1.000000" stroke="none" 
	d="
M318.685883,261.012024 
	C318.339081,262.590393 318.016876,264.372559 316.965820,265.430969 
	C298.882690,283.640747 280.709656,301.761200 262.218567,319.968201 
	C257.656006,315.936432 253.431198,311.837738 249.081818,307.432068 
	C254.734177,301.154022 260.508972,295.180939 266.288452,289.212402 
	C279.443085,275.627533 292.600037,262.044891 305.911499,248.155823 
	C310.168365,252.193192 314.269836,256.536102 318.685883,261.012024 
z"/>
<path fill="#A0ABF8" opacity="1.000000" stroke="none" 
	d="
M193.086151,251.426392 
	C193.692505,249.528992 194.053177,247.571716 195.210403,246.403412 
	C212.135193,229.316925 229.149170,212.318497 246.211990,195.369644 
	C247.306000,194.282913 248.973450,193.773468 250.744690,192.975525 
	C254.680496,196.379440 258.245728,199.803299 261.881226,203.884430 
	C256.147400,211.014572 250.555893,217.694565 244.493805,223.916031 
	C232.804184,235.912918 220.887573,247.690247 208.947403,259.439026 
	C207.654892,260.710785 205.587479,261.195038 203.879517,262.044586 
	C200.323303,258.607513 196.767090,255.170486 193.086151,251.426392 
z"/>
<path fill="#DBDDA3" opacity="1.000000" stroke="none" 
	d="
M763.906372,389.534424 
	C761.541870,390.801971 758.983582,391.192963 756.999695,392.473633 
	C733.570007,407.597900 710.231018,422.862579 686.846375,438.056824 
	C685.624817,438.850555 684.207520,439.343109 682.523926,439.986755 
	C682.116638,434.306030 682.066833,428.614471 682.436401,422.404602 
	C684.639343,420.997772 686.532288,420.276611 688.189087,419.194092 
	C701.002319,410.822144 713.734497,402.326050 726.561707,393.975769 
	C738.941467,385.916809 751.404602,377.985931 763.831177,369.998840 
	C763.880615,376.356323 763.930054,382.713745 763.906372,389.534424 
z"/>
<path fill="#A5A9F8" opacity="1.000000" stroke="none" 
	d="
M204.009613,262.356934 
	C205.587479,261.195038 207.654892,260.710785 208.947403,259.439026 
	C220.887573,247.690247 232.804184,235.912918 244.493805,223.916031 
	C250.555893,217.694565 256.147400,211.014572 262.008484,204.190094 
	C266.303528,207.957932 270.541595,212.077393 274.918823,216.514633 
	C273.864746,218.562286 272.895844,220.512985 271.443878,221.988235 
	C254.910950,238.786407 238.318848,255.526489 221.685318,272.225067 
	C220.552612,273.362213 218.961044,274.042267 217.228134,274.989075 
	C212.628830,270.918610 208.384277,266.793976 204.009613,262.356934 
z"/>
<path fill="#DEDCA7" opacity="1.000000" stroke="none" 
	d="
M763.905396,369.536499 
	C751.404602,377.985931 738.941467,385.916809 726.561707,393.975769 
	C713.734497,402.326050 701.002319,410.822144 688.189087,419.194092 
	C686.532288,420.276611 684.639343,420.997772 682.511963,421.941925 
	C682.111816,416.626129 681.898254,411.248840 682.098450,405.887024 
	C682.155945,404.346252 683.407532,402.850067 684.862793,401.168549 
	C687.484680,400.494202 689.631775,400.412933 691.184753,399.410980 
	C713.120605,385.258362 734.965210,370.964417 756.866638,356.758240 
	C759.072937,355.327179 761.504700,354.243652 763.831787,352.998779 
	C763.881104,358.357239 763.930359,363.715698 763.905396,369.536499 
z"/>
<path fill="#91AFFA" opacity="1.000000" stroke="none" 
	d="
M220.980865,162.633972 
	C219.628784,163.917404 217.905670,164.652359 216.686279,165.885452 
	C203.516113,179.203705 190.424530,192.599716 177.313095,205.976044 
	C174.205170,209.146774 171.256516,212.497055 167.936691,215.427216 
	C166.164429,216.991440 163.756149,217.835052 161.257507,219.022003 
	C157.321457,215.603729 153.762817,212.167374 150.079483,208.423309 
	C167.846024,190.367493 185.728897,172.610947 203.644775,154.887772 
	C205.037369,153.510132 206.661301,152.366318 208.508270,151.060608 
	C212.840454,154.777176 216.842102,158.546982 220.980865,162.633972 
z"/>
<path fill="#CFE396" opacity="1.000000" stroke="none" 
	d="
M682.092102,473.458252 
	C689.467163,468.476807 696.851013,464.088043 704.049316,459.413452 
	C722.240784,447.599945 740.336487,435.638977 758.515381,423.805969 
	C759.861633,422.929657 761.566101,422.603668 763.468140,422.008789 
	C763.881775,427.022644 763.931274,432.049561 763.908081,437.538544 
	C756.789124,442.284668 749.640137,446.409729 742.716064,450.882782 
	C722.707397,463.808624 702.789185,476.874542 682.500000,489.942810 
	C682.115112,484.640381 682.065735,479.280609 682.092102,473.458252 
z"/>
<path fill="#E1DBAA" opacity="1.000000" stroke="none" 
	d="
M763.905884,352.535400 
	C761.504700,354.243652 759.072937,355.327179 756.866638,356.758240 
	C734.965210,370.964417 713.120605,385.258362 691.184753,399.410980 
	C689.631775,400.412933 687.484680,400.494202 685.197388,401.005341 
	C706.827087,378.856384 728.898132,356.730316 750.896545,334.532318 
	C754.830994,330.562134 758.465027,326.294159 762.237732,322.163727 
	C762.818481,322.464661 763.399292,322.765625 763.980042,323.066589 
	C763.980042,332.735046 763.980042,342.403534 763.905884,352.535400 
z"/>
<path fill="#E6D8AF" opacity="1.000000" stroke="none" 
	d="
M556.907471,562.541016 
	C554.766052,564.290527 552.385193,565.258179 550.678650,566.918762 
	C528.693542,588.311523 506.827209,609.826233 484.863678,631.241211 
	C482.045654,633.988953 478.849335,636.348633 475.496857,638.943237 
	C475.115326,634.638184 475.065186,630.277893 475.443726,625.447998 
	C477.249756,624.150513 478.849457,623.551270 479.971008,622.460449 
	C495.793945,607.070862 511.570801,591.633789 527.316467,576.165039 
	C533.715271,569.878784 539.892395,563.362244 546.405945,557.199402 
	C549.604553,554.172974 553.340515,551.714539 556.833313,548.999023 
	C556.882629,553.359802 556.932007,557.720520 556.907471,562.541016 
z"/>
<path fill="#E9D7B2" opacity="1.000000" stroke="none" 
	d="
M556.907532,548.543457 
	C553.340515,551.714539 549.604553,554.172974 546.405945,557.199402 
	C539.892395,563.362244 533.715271,569.878784 527.316467,576.165039 
	C511.570801,591.633789 495.793945,607.070862 479.971008,622.460449 
	C478.849457,623.551270 477.249756,624.150513 475.519348,624.988586 
	C475.116058,621.301636 475.065826,617.604370 475.092041,613.451599 
	C479.141571,609.800781 483.152466,606.650879 487.068756,603.387451 
	C488.598297,602.112915 489.904938,600.572754 491.330475,599.171204 
	C510.916840,579.914001 530.485168,560.638245 550.131165,541.442078 
	C551.881165,539.732178 554.140503,538.543518 556.497375,537.054932 
	C556.881592,540.694031 556.931641,544.390991 556.907532,548.543457 
z"/>
<path fill="#FDCCCA" opacity="1.000000" stroke="none" 
	d="
M521.583801,485.089600 
	C518.624634,489.317657 515.573364,493.794830 511.813049,497.564789 
	C501.488617,507.915497 490.891418,517.995300 480.329102,528.106018 
	C479.074982,529.306458 477.367401,530.033325 475.516663,530.989563 
	C474.174591,518.292419 477.128571,506.769012 486.005432,497.328125 
	C492.671478,490.238525 500.769989,485.574829 510.755341,485.029541 
	C514.216187,484.840546 517.696655,485.010223 521.583801,485.089600 
z"/>
<path fill="#DDBCDD" opacity="1.000000" stroke="none" 
	d="
M733.967163,21.643074 
	C725.702759,21.648846 722.013550,28.503281 717.217896,33.409641 
	C710.764343,40.012096 704.607971,46.924446 698.614380,53.951427 
	C693.103394,60.412567 687.976807,67.201576 682.343262,73.924911 
	C682.335876,68.290382 682.666077,62.577110 682.994629,56.430252 
	C684.432129,37.740067 702.414551,21.055204 720.715820,20.996857 
	C723.865173,20.986816 727.014587,20.981697 730.637939,20.962540 
	C732.015137,21.076582 732.918335,21.202383 733.967163,21.643074 
z"/>
<path fill="#CAB3E8" opacity="1.000000" stroke="none" 
	d="
M337.920105,396.210236 
	C338.105103,396.167542 338.400848,396.393677 338.830750,396.866089 
	C338.653564,396.901276 338.342224,396.690155 337.920105,396.210236 
z"/>
</svg>