<svg width="64" height="64" viewBox="0 0 64 64" fill="none" xmlns="http://www.w3.org/2000/svg">
<rect width="64" height="64" fill="#143886"/>
<path d="M42.6562 43.0567C42.7767 43.1913 42.8695 43.3483 42.9293 43.5188C42.989 43.6893 43.0146 43.8699 43.0045 44.0502C42.9945 44.2306 42.949 44.4072 42.8706 44.57C42.7923 44.7328 42.6827 44.8785 42.548 44.9989C40.6569 46.6923 38.334 47.8291 35.8366 48.2835C33.3392 48.7378 30.7648 48.492 28.3985 47.5732C26.0322 46.6544 23.9664 45.0985 22.43 43.0779C20.8936 41.0573 19.9466 38.6508 19.6938 36.125H16.875C16.5103 36.125 16.1606 35.9801 15.9027 35.7223C15.6449 35.4644 15.5 35.1147 15.5 34.75C15.5 34.3853 15.6449 34.0356 15.9027 33.7777C16.1606 33.5198 16.5103 33.375 16.875 33.375H19.625V30.625H16.875C16.5103 30.625 16.1606 30.4801 15.9027 30.2223C15.6449 29.9644 15.5 29.6147 15.5 29.25C15.5 28.8853 15.6449 28.5356 15.9027 28.2777C16.1606 28.0198 16.5103 27.875 16.875 27.875H19.6938C19.9473 25.3502 20.8945 22.9448 22.4306 20.925C23.9667 18.9053 26.0317 17.35 28.3971 16.4314C30.7625 15.5127 33.3359 15.2665 35.8326 15.7201C38.3292 16.1736 40.6517 17.3092 42.5428 19.0011C42.8147 19.2445 42.9788 19.586 42.9989 19.9504C43.0191 20.3147 42.8937 20.6722 42.6502 20.9441C42.4068 21.216 42.0654 21.3801 41.701 21.4003C41.3366 21.4204 40.9791 21.295 40.7072 21.0515C39.2117 19.7152 37.3794 18.8131 35.4083 18.4429C33.4372 18.0726 31.4024 18.2483 29.524 18.9509C27.6455 19.6535 25.9949 20.8563 24.7506 22.4292C23.5064 24.0021 22.7158 25.8853 22.4644 27.875H33.375C33.7397 27.875 34.0894 28.0198 34.3473 28.2777C34.6051 28.5356 34.75 28.8853 34.75 29.25C34.75 29.6147 34.6051 29.9644 34.3473 30.2223C34.0894 30.4801 33.7397 30.625 33.375 30.625H22.375V33.375H30.625C30.9897 33.375 31.3394 33.5198 31.5973 33.7777C31.8551 34.0356 32 34.3853 32 34.75C32 35.1147 31.8551 35.4644 31.5973 35.7223C31.3394 35.9801 30.9897 36.125 30.625 36.125H22.4644C22.7155 38.1149 23.5059 39.9982 24.7501 41.5713C25.9942 43.1444 27.6448 44.3475 29.5233 45.0503C31.4018 45.7531 33.4367 45.9289 35.4079 45.5587C37.3791 45.1886 39.2116 44.2865 40.7072 42.9501C40.8418 42.8285 40.9992 42.7347 41.1703 42.6742C41.3414 42.6137 41.5227 42.5877 41.7039 42.5976C41.8851 42.6075 42.0625 42.6531 42.226 42.7319C42.3894 42.8107 42.5357 42.9211 42.6562 43.0567Z" fill="#F8FBFC"/>
</svg>
