<svg width="64" height="64" viewBox="0 0 64 64" fill="none" xmlns="http://www.w3.org/2000/svg">
<rect width="64" height="64" fill="#117E3B"/>
<path d="M36.125 30.625H33.375V19.625H34.75C36.2087 19.625 37.6076 20.2045 38.6391 21.2359C39.6705 22.2674 40.25 23.6663 40.25 25.125C40.25 25.4897 40.3949 25.8394 40.6527 26.0973C40.9106 26.3551 41.2603 26.5 41.625 26.5C41.9897 26.5 42.3394 26.3551 42.5973 26.0973C42.8551 25.8394 43 25.4897 43 25.125C42.9977 22.9377 42.1278 20.8406 40.5811 19.2939C39.0344 17.7472 36.9373 16.8773 34.75 16.875H33.375V14.125C33.375 13.7603 33.2301 13.4106 32.9723 13.1527C32.7144 12.8949 32.3647 12.75 32 12.75C31.6353 12.75 31.2856 12.8949 31.0277 13.1527C30.7699 13.4106 30.625 13.7603 30.625 14.125V16.875H29.25C27.062 16.875 24.9635 17.7442 23.4164 19.2914C21.8692 20.8385 21 22.937 21 25.125C21 27.313 21.8692 29.4115 23.4164 30.9586C24.9635 32.5058 27.062 33.375 29.25 33.375H30.625V44.375H27.875C26.4163 44.375 25.0174 43.7955 23.9859 42.7641C22.9545 41.7326 22.375 40.3337 22.375 38.875C22.375 38.5103 22.2301 38.1606 21.9723 37.9027C21.7144 37.6449 21.3647 37.5 21 37.5C20.6353 37.5 20.2856 37.6449 20.0277 37.9027C19.7699 38.1606 19.625 38.5103 19.625 38.875C19.6273 41.0623 20.4972 43.1594 22.0439 44.7061C23.5906 46.2528 25.6877 47.1227 27.875 47.125H30.625V49.875C30.625 50.2397 30.7699 50.5894 31.0277 50.8473C31.2856 51.1051 31.6353 51.25 32 51.25C32.3647 51.25 32.7144 51.1051 32.9723 50.8473C33.2301 50.5894 33.375 50.2397 33.375 49.875V47.125H36.125C38.313 47.125 40.4115 46.2558 41.9586 44.7086C43.5058 43.1615 44.375 41.063 44.375 38.875C44.375 36.687 43.5058 34.5885 41.9586 33.0414C40.4115 31.4942 38.313 30.625 36.125 30.625ZM29.25 30.625C27.7913 30.625 26.3924 30.0455 25.3609 29.0141C24.3295 27.9826 23.75 26.5837 23.75 25.125C23.75 23.6663 24.3295 22.2674 25.3609 21.2359C26.3924 20.2045 27.7913 19.625 29.25 19.625H30.625V30.625H29.25ZM36.125 44.375H33.375V33.375H36.125C37.5837 33.375 38.9826 33.9545 40.0141 34.9859C41.0455 36.0174 41.625 37.4163 41.625 38.875C41.625 40.3337 41.0455 41.7326 40.0141 42.7641C38.9826 43.7955 37.5837 44.375 36.125 44.375Z" fill="#F8FBFC"/>
</svg>
