<svg width="64" height="64" viewBox="0 0 64 64" fill="none" xmlns="http://www.w3.org/2000/svg">
<rect width="64" height="64" fill="#68138A"/>
<path d="M43 29.9375C43 30.3454 42.879 30.7442 42.6524 31.0834C42.4258 31.4225 42.1037 31.6869 41.7268 31.843C41.3499 31.9991 40.9352 32.04 40.5351 31.9604C40.135 31.8808 39.7675 31.6844 39.4791 31.3959C39.1907 31.1075 38.9942 30.74 38.9146 30.3399C38.8351 29.9398 38.8759 29.5251 39.032 29.1482C39.1881 28.7713 39.4525 28.4492 39.7916 28.2226C40.1308 27.996 40.5296 27.875 40.9375 27.875C41.4845 27.875 42.0091 28.0923 42.3959 28.4791C42.7827 28.8659 43 29.3905 43 29.9375ZM36.125 21H29.25C28.8853 21 28.5356 21.1449 28.2777 21.4027C28.0199 21.6606 27.875 22.0103 27.875 22.375C27.875 22.7397 28.0199 23.0894 28.2777 23.3473C28.5356 23.6051 28.8853 23.75 29.25 23.75H36.125C36.4897 23.75 36.8394 23.6051 37.0973 23.3473C37.3551 23.0894 37.5 22.7397 37.5 22.375C37.5 22.0103 37.3551 21.6606 37.0973 21.4027C36.8394 21.1449 36.4897 21 36.125 21ZM52.625 29.25V34.75C52.625 35.844 52.1904 36.8932 51.4168 37.6668C50.6432 38.4404 49.594 38.875 48.5 38.875H48.0944L45.3083 46.6747C45.1175 47.2089 44.7662 47.6711 44.3025 47.9979C43.8388 48.3247 43.2854 48.5001 42.7181 48.5H40.5319C39.9646 48.5001 39.4112 48.3247 38.9475 47.9979C38.4838 47.6711 38.1325 47.2089 37.9417 46.6747L37.6117 45.75H27.7633L27.4333 46.6747C27.2425 47.2089 26.8912 47.6711 26.4275 47.9979C25.9638 48.3247 25.4104 48.5001 24.8431 48.5H22.6569C22.0896 48.5001 21.5362 48.3247 21.0725 47.9979C20.6088 47.6711 20.2575 47.2089 20.0667 46.6747L17.9063 40.6316C15.8509 38.3054 14.564 35.4014 14.2213 32.3162C13.7775 32.5493 13.4059 32.8992 13.1466 33.3282C12.8873 33.7571 12.7502 34.2488 12.75 34.75C12.75 35.1147 12.6051 35.4644 12.3473 35.7223C12.0894 35.9801 11.7397 36.125 11.375 36.125C11.0103 36.125 10.6606 35.9801 10.4027 35.7223C10.1449 35.4644 10 35.1147 10 34.75C10.0021 33.5238 10.4139 32.3334 11.17 31.3681C11.9261 30.4027 12.9831 29.7177 14.1731 29.4219C14.4803 25.6326 16.2013 22.0974 18.9944 19.5183C21.7874 16.9392 25.4483 15.5048 29.25 15.5H47.125C47.4897 15.5 47.8394 15.6449 48.0973 15.9027C48.3551 16.1606 48.5 16.5103 48.5 16.875C48.5 17.2397 48.3551 17.5894 48.0973 17.8473C47.8394 18.1051 47.4897 18.25 47.125 18.25H43.4486C45.7305 19.851 47.5251 22.0519 48.6341 24.6094C48.708 24.7812 48.7802 24.9531 48.8489 25.125C49.8814 25.2126 50.843 25.6856 51.5427 26.4499C52.2423 27.2142 52.6287 28.2138 52.625 29.25ZM49.875 29.25C49.875 28.8853 49.7301 28.5356 49.4723 28.2777C49.2144 28.0199 48.8647 27.875 48.5 27.875H47.8709C47.5781 27.8753 47.2928 27.7821 47.0566 27.609C46.8204 27.4359 46.6457 27.1919 46.5578 26.9125C45.77 24.3985 44.1995 22.2021 42.0753 20.6438C39.9511 19.0854 37.3845 18.2467 34.75 18.25H29.25C26.8484 18.2499 24.4987 18.9486 22.4873 20.2608C20.476 21.5731 18.89 23.4423 17.9226 25.6404C16.9553 27.8386 16.6485 30.2707 17.0395 32.6402C17.4306 35.0098 18.5028 37.2143 20.1252 38.985C20.2492 39.1199 20.3451 39.2783 20.407 39.4508L22.6569 45.75H24.8431L25.4997 43.9127C25.595 43.6457 25.7705 43.4147 26.0022 43.2513C26.2339 43.0879 26.5104 43.0001 26.7939 43H38.5811C38.8646 43.0001 39.1411 43.0879 39.3728 43.2513C39.6045 43.4147 39.78 43.6457 39.8753 43.9127L40.5319 45.75H42.7181L45.8308 37.0377C45.9261 36.7707 46.1016 36.5397 46.3333 36.3763C46.565 36.2129 46.8415 36.1251 47.125 36.125H48.5C48.8647 36.125 49.2144 35.9801 49.4723 35.7223C49.7301 35.4644 49.875 35.1147 49.875 34.75V29.25Z" fill="#F8FBFC"/>
</svg>
