<svg width="64" height="64" viewBox="0 0 64 64" fill="none" xmlns="http://www.w3.org/2000/svg">
<g clip-path="url(#clip0_301_732)">
<g clip-path="url(#clip1_301_732)">
<path fill-rule="evenodd" clip-rule="evenodd" d="M32 0C49.6732 0 64 14.3269 64 32C64 49.6731 49.6732 64 32 64C14.3268 64 0 49.6732 0 32C0 14.3268 14.3269 0 32 0Z" fill="#2775CA"/>
<path fill-rule="evenodd" clip-rule="evenodd" d="M39.3119 9.46754C38.5902 9.23702 38.0002 9.66531 38.0002 10.4229V12.2861C38.0002 12.794 38.383 13.3722 38.8599 13.547C46.5192 16.3523 52.0002 23.7143 52.0002 32.3335C52.0002 40.9527 46.5192 48.3144 38.8599 51.1199C38.3369 51.3115 38.0002 51.8239 38.0002 52.3809V54.2439C38.0002 55.0016 38.5902 55.4298 39.3119 55.1994C48.991 52.1067 56 43.0387 56 32.3335C56 21.6284 48.991 12.5601 39.3119 9.46754Z" fill="white"/>
<path fill-rule="evenodd" clip-rule="evenodd" d="M26.0001 10.4229C26.0001 9.66531 25.41 9.23702 24.6884 9.46754C15.009 12.5601 8 21.6282 8 32.3335C8 43.0389 15.009 52.1067 24.6884 55.1994C25.41 55.4298 26.0001 55.0016 26.0001 54.2439V52.3809C26.0001 51.8728 25.6172 51.2946 25.1402 51.1199C17.481 48.3144 12 40.9524 12 32.3335C12 23.7147 17.481 16.3523 25.1402 13.547C25.6172 13.3722 26.0001 12.794 26.0001 12.286V10.4229Z" fill="white"/>
<path d="M40.1835 38.5785L38.3529 37.7607C37.9498 37.5806 37.4746 37.7489 37.2794 38.1451C36.4155 39.8984 34.9796 41.016 33.0826 41.016C31.3653 41.016 29.9879 40.1749 28.9322 38.4754C28.5195 37.8179 28.1917 37.084 27.9419 36.2799H32.8576C33.169 36.2799 33.4542 36.1044 33.5947 35.8261L34.7675 34.2432C35.0449 33.6938 34.6458 33.0452 34.0307 33.0452H27.3888C27.3695 32.7045 27.358 32.3573 27.358 31.9995C27.3543 31.6448 27.3643 31.2973 27.3827 30.9549H32.8576C33.169 30.9549 33.4542 30.7797 33.5947 30.5015L34.7675 28.9185C35.0452 28.3692 34.6458 27.7204 34.0307 27.7204H27.9359C28.8274 24.8141 30.6883 22.91 33.0826 22.9474C34.9072 22.9474 36.3236 23.9463 37.2322 25.5822C37.4357 25.9489 37.894 26.0894 38.2776 25.92L40.1176 25.1077C40.5579 24.9134 40.7451 24.381 40.5121 23.9599C38.8134 20.8924 36.337 19.3516 33.0826 19.3516C30.113 19.3516 27.7336 20.5323 25.9267 22.8758C24.8707 24.2561 24.1355 25.8756 23.6993 27.7204H21.0264C20.7148 27.7204 20.4298 27.8958 20.2894 28.1739L19.1164 29.7569C18.839 30.3063 19.2381 30.9549 19.8534 30.9549H23.2577C23.2412 31.2987 23.2255 31.6431 23.2255 31.9995C23.2212 32.3527 23.2295 32.7005 23.2444 33.0452H21.0264C20.7148 33.0452 20.4298 33.2206 20.2894 33.4986L19.1164 35.0816C18.839 35.6309 19.2381 36.2799 19.8534 36.2799H23.6915C24.9053 41.2968 28.3999 44.7181 33.0826 44.6474C36.4075 44.6474 38.9133 42.9946 40.5862 39.7035C40.7992 39.2844 40.6126 38.7703 40.1835 38.5785Z" fill="white"/>
</g>
</g>
<defs>
<clipPath id="clip0_301_732">
<rect width="64" height="64" fill="white"/>
</clipPath>
<clipPath id="clip1_301_732">
<rect width="64" height="64" fill="white"/>
</clipPath>
</defs>
</svg>
