<svg width="64" height="64" viewBox="0 0 64 64" fill="none" xmlns="http://www.w3.org/2000/svg">
<rect width="64" height="64" fill="black"/>
<g clip-path="url(#clip0_210_1258)">
<path d="M18.6598 40.4235C18.9072 40.1771 19.2474 40.0334 19.6083 40.0334H52.3299C52.9278 40.0334 53.2268 40.752 52.8041 41.1729L46.3402 47.6099C46.0928 47.8563 45.7526 48 45.3918 48H12.6701C12.0722 48 11.7732 47.2814 12.1959 46.8605L18.6598 40.4235Z" fill="url(#paint0_linear_210_1258)"/>
<path d="M18.6598 16.3901C18.9175 16.1437 19.2577 16 19.6083 16H52.3299C52.9278 16 53.2268 16.7186 52.8041 17.1396L46.3402 23.5765C46.0928 23.8229 45.7526 23.9666 45.3918 23.9666H12.6701C12.0722 23.9666 11.7732 23.248 12.1959 22.8271L18.6598 16.3901Z" fill="url(#paint1_linear_210_1258)"/>
<path d="M46.3402 28.3298C46.0928 28.0834 45.7526 27.9397 45.3918 27.9397H12.6701C12.0722 27.9397 11.7732 28.6583 12.1959 29.0793L18.6598 35.5162C18.9072 35.7626 19.2474 35.9063 19.6083 35.9063H52.3299C52.9278 35.9063 53.2268 35.1877 52.8041 34.7668L46.3402 28.3298Z" fill="url(#paint2_linear_210_1258)"/>
</g>
<defs>
<linearGradient id="paint0_linear_210_1258" x1="49.204" y1="12.1548" x2="26.7064" y2="55.4272" gradientUnits="userSpaceOnUse">
<stop stop-color="#00FFA3"/>
<stop offset="1" stop-color="#DC1FFF"/>
</linearGradient>
<linearGradient id="paint1_linear_210_1258" x1="39.302" y1="7.00659" x2="16.8044" y2="50.279" gradientUnits="userSpaceOnUse">
<stop stop-color="#00FFA3"/>
<stop offset="1" stop-color="#DC1FFF"/>
</linearGradient>
<linearGradient id="paint2_linear_210_1258" x1="44.2215" y1="9.56429" x2="21.7239" y2="52.8367" gradientUnits="userSpaceOnUse">
<stop stop-color="#00FFA3"/>
<stop offset="1" stop-color="#DC1FFF"/>
</linearGradient>
<clipPath id="clip0_210_1258">
<rect width="41" height="32" fill="white" transform="translate(12 16)"/>
</clipPath>
</defs>
</svg>
