<svg width="64" height="64" viewBox="0 0 64 64" fill="none" xmlns="http://www.w3.org/2000/svg">
<g clip-path="url(#clip0_208_837)">
<path d="M18.743 37.2025H15.97L15.1217 35.1435H10.5002L9.72731 37.2025H7L11.1667 26.8035H14.1518L18.743 37.2025ZM12.6972 29.2884L11.182 33.3288H14.3641L12.6972 29.2884ZM28.816 26.8035H31.0585V37.2025H28.4823V30.707L25.6943 33.9696H25.3005L22.5127 30.707V37.2023H19.9365V26.8035H22.179L25.4972 30.6611L28.816 26.8035ZM37.5859 26.8035C41.3587 26.8035 43.2979 29.1666 43.2979 32.0178C43.2979 35.0063 41.4192 37.2025 37.2979 37.2025H33.0248V26.8035H37.5859ZM35.6008 35.2965H37.2824C39.8735 35.2965 40.6464 33.5274 40.6464 32.0024C40.6464 30.2183 39.6916 28.7092 37.2521 28.7092H35.6007V35.2965H35.6008ZM48.4231 29.2692L45.1748 26H57V37.8998L53.7518 34.631V29.2692H48.4231ZM48.4193 29.9243L45.075 33.2894V37.9999H49.7556L53.0996 34.6348H48.4193V29.9243Z" fill="black"/>
</g>
<defs>
<clipPath id="clip0_208_837">
<rect width="50" height="12" fill="white" transform="translate(7 26)"/>
</clipPath>
</defs>
</svg>
