<svg width="64" height="64" viewBox="0 0 64 64" fill="none" xmlns="http://www.w3.org/2000/svg">
<g clip-path="url(#clip0_208_739)">
<path d="M56.4686 33.4816V29.6437H55.2233V28.3893H56.4686V26.1489H57.801V28.3893H59.5386V29.6437H57.801V33.377C57.801 34.1986 58.1341 34.5719 58.7567 34.5719C59.0028 34.5719 59.1766 34.5419 59.365 34.4523L59.8283 35.6322C59.5241 35.7666 59.2055 35.8264 58.7567 35.8264C57.2651 35.8264 56.4686 34.9752 56.4686 33.4816ZM47.8812 32.048C47.8812 29.9721 49.2716 28.1503 51.357 28.1503C53.4712 28.1503 54.8326 29.6884 54.8326 32.048C54.8326 32.1526 54.8181 32.3019 54.8181 32.3019H49.2137C49.2861 33.8551 50.3722 34.6912 51.4728 34.6912C52.2547 34.6912 53.0366 34.3628 53.4133 33.4369L54.6008 33.9446C54.1809 34.9899 53.1381 35.9458 51.5018 35.9458C49.3297 35.9458 47.8812 34.2582 47.8812 32.048ZM51.328 29.4047C50.3433 29.4047 49.5612 30.0917 49.3005 31.1669H53.4133C53.37 30.5247 52.8484 29.4047 51.328 29.4047ZM41.3507 34.6912H41.2928V35.7066H40.0186V25.0139H41.3507V28.3891L41.2928 29.4047H41.3507C41.7563 28.7327 42.6398 28.1501 43.7693 28.1501C45.5649 28.1501 47.1434 29.8078 47.1434 32.048C47.1434 34.2882 45.5649 35.9458 43.7693 35.9458C42.6398 35.9458 41.7563 35.3632 41.3507 34.6912ZM45.8111 32.048C45.8111 30.4051 44.7396 29.4047 43.5521 29.4047C42.3646 29.4047 41.2928 30.3754 41.2928 32.048C41.2928 33.7206 42.3646 34.6912 43.5521 34.6912C44.7396 34.6912 45.8111 33.6908 45.8111 32.048ZM32.344 33.4964C32.344 31.8389 33.792 30.9427 35.4575 30.9427C36.4133 30.9427 37.1083 31.2264 37.3836 31.3909V31.1819C37.3836 30.0767 36.5291 29.4047 35.5297 29.4047C34.7914 29.4047 34.0817 29.778 33.8356 30.465L32.6192 29.9273C32.8653 29.2553 33.7196 28.1501 35.5009 28.1501C37.2388 28.1501 38.6578 29.2256 38.6578 31.2865V35.7068H37.3836V34.6914H37.3255C36.9346 35.3035 36.2106 35.9458 34.9941 35.9458C33.5458 35.9458 32.344 35.0198 32.344 33.4964ZM37.3836 32.5556C37.3836 32.5556 36.8189 32.0777 35.6891 32.0777C34.2843 32.0777 33.7341 32.8545 33.7341 33.5263C33.7341 34.3031 34.5161 34.6914 35.2113 34.6914C36.2685 34.6914 37.3836 33.7503 37.3836 32.5556ZM26.3056 28.3891L26.2477 29.4045H26.3056C26.6821 28.7325 27.58 28.1501 28.5503 28.1501C30.3604 28.1501 31.2583 29.4194 31.2583 31.2266V35.7068H29.926V31.4356C29.926 29.9124 29.1874 29.4045 28.1737 29.4045C27.0151 29.4045 26.3056 30.5396 26.3056 31.6596V35.7068H24.9733V25.0141H26.3056V28.3891ZM18.182 34.6912H18.1241L18.182 35.7066V38.9326H16.8497V28.3891H18.1241V29.4047H18.182C18.5876 28.7327 19.4709 28.1501 20.6005 28.1501C22.3961 28.1501 23.9747 29.8077 23.9747 32.0479C23.9747 34.2881 22.3961 35.9458 20.6005 35.9458C19.4709 35.9458 18.5876 35.3632 18.182 34.6912ZM22.6424 32.0479C22.6424 30.4051 21.5706 29.4047 20.3833 29.4047C19.1956 29.4047 18.1241 30.3753 18.1241 32.0479C18.1241 33.7206 19.1956 34.6912 20.3833 34.6912C21.5706 34.6912 22.6424 33.6908 22.6424 32.0479ZM14.0985 35.7068H15.4308V25.0141H14.0985V35.7068ZM7.91532 25.0139L4.00513 35.7068H5.48243L6.4959 32.8096H10.855L11.8544 35.7068H13.3313L9.42129 25.0139H7.91532ZM8.63917 26.7015H8.69725L10.3916 31.5251H6.94503L8.63917 26.7015Z" fill="#ED1C24"/>
</g>
<defs>
<clipPath id="clip0_208_739">
<rect width="56" height="14" fill="white" transform="translate(4 25)"/>
</clipPath>
</defs>
</svg>
