<svg width="64" height="64" viewBox="0 0 64 64" fill="none" xmlns="http://www.w3.org/2000/svg">
<g clip-path="url(#clip0_208_753)">
<path d="M8.54255 32.5445C8.03901 32.5445 7.59575 32.4308 7.21277 32.2036C6.82979 31.969 6.53191 31.6465 6.31915 31.2359C6.10638 30.8181 6 30.338 6 29.7955C6 29.143 6.15603 28.5712 6.46809 28.0801C6.78723 27.589 7.23759 27.2114 7.81915 26.9475C8.4078 26.6837 9.09575 26.5517 9.88298 26.5517C10.2447 26.5517 10.539 26.5773 10.766 26.6287V26.3978C10.766 25.8406 10.6667 25.4264 10.4681 25.1552C10.2695 24.8766 9.96809 24.7374 9.56383 24.7374C8.91135 24.7374 8.49291 25.0929 8.30851 25.804C8.25177 26.0092 8.13475 26.0972 7.95745 26.0679L6.51064 25.804C6.40425 25.782 6.32979 25.7343 6.28723 25.661C6.25177 25.5877 6.24823 25.4887 6.2766 25.3641C6.461 24.6164 6.85107 24.0373 7.44681 23.6268C8.04965 23.2089 8.80497 23 9.71277 23C10.7908 23 11.6099 23.3006 12.1702 23.9017C12.7376 24.5028 13.0213 25.3788 13.0213 26.5297V32.0607C13.0213 32.1413 12.9929 32.2109 12.9362 32.2695C12.8865 32.3209 12.8227 32.3465 12.7447 32.3465H11.3617C11.1915 32.3465 11.0851 32.2512 11.0426 32.0607L10.8298 31.0271H10.7447C10.5532 31.5109 10.266 31.8847 9.88299 32.1486C9.5071 32.4125 9.06029 32.5445 8.54255 32.5445ZM8.31915 29.5315C8.31915 29.9201 8.41489 30.2317 8.60638 30.4662C8.80497 30.6935 9.07092 30.8071 9.40425 30.8071C9.84397 30.8071 10.1809 30.6055 10.4149 30.2023C10.6489 29.7918 10.766 29.2053 10.766 28.443V27.8602C10.5674 27.8235 10.3794 27.8052 10.2021 27.8052C9.62057 27.8052 9.15957 27.9628 8.81915 28.278C8.48581 28.5859 8.31915 29.0038 8.31915 29.5315ZM14.3404 23.4838C14.3404 23.4032 14.3653 23.3372 14.4149 23.2859C14.4716 23.2272 14.539 23.1979 14.617 23.1979H16.0213C16.0993 23.1979 16.1631 23.2236 16.2127 23.2749C16.2695 23.3262 16.3049 23.3958 16.3191 23.4838L16.5319 24.5614H16.617C16.8085 24.0556 17.0815 23.6707 17.4362 23.4068C17.7979 23.1356 18.2234 23 18.7127 23C19.2376 23 19.6879 23.1429 20.0638 23.4288C20.4468 23.7147 20.7411 24.1216 20.9468 24.6494H21.0319C21.344 24.0923 21.6951 23.6781 22.0851 23.4068C22.4752 23.1356 22.9113 23 23.3936 23C23.9185 23 24.3723 23.1466 24.7553 23.4398C25.1454 23.7331 25.4433 24.1509 25.6489 24.6934C25.8546 25.2358 25.9575 25.8773 25.9575 26.6176V32.0607C25.9575 32.1413 25.9291 32.2109 25.8723 32.2695C25.8227 32.3209 25.7589 32.3465 25.6809 32.3465H23.9787C23.9007 32.3465 23.8333 32.3209 23.7766 32.2695C23.7269 32.2109 23.7021 32.1413 23.7021 32.0607V26.7936C23.7021 26.2584 23.6029 25.8479 23.4043 25.562C23.2057 25.2762 22.9185 25.1332 22.5425 25.1332C22.1312 25.1332 21.8156 25.3018 21.5957 25.639C21.383 25.9762 21.2766 26.4637 21.2766 27.1014V32.0607C21.2766 32.1413 21.2482 32.2109 21.1915 32.2695C21.1419 32.3209 21.078 32.3465 21 32.3465H19.2979C19.2199 32.3465 19.1525 32.3209 19.0957 32.2695C19.0461 32.2109 19.0213 32.1413 19.0213 32.0607V26.7936C19.0213 26.2584 18.922 25.8479 18.7234 25.562C18.5248 25.2762 18.2376 25.1332 17.8617 25.1332C17.4503 25.1332 17.1347 25.3018 16.9149 25.639C16.7021 25.9762 16.5957 26.4637 16.5957 27.1014V32.0607C16.5957 32.1413 16.5674 32.2109 16.5107 32.2695C16.461 32.3209 16.3971 32.3465 16.3191 32.3465H14.617C14.539 32.3465 14.4716 32.3209 14.4149 32.2695C14.3653 32.2109 14.3404 32.1413 14.3404 32.0607V23.4838ZM27.0638 29.7955C27.0638 29.143 27.2199 28.5712 27.5319 28.0801C27.8511 27.589 28.3014 27.2114 28.883 26.9475C29.4716 26.6837 30.1596 26.5517 30.9468 26.5517C31.3085 26.5517 31.6029 26.5773 31.8298 26.6287V26.3978C31.8298 25.8406 31.7305 25.4264 31.5319 25.1552C31.3333 24.8766 31.0319 24.7374 30.6277 24.7374C29.9752 24.7374 29.5567 25.0929 29.3723 25.804C29.3156 26.0092 29.1986 26.0972 29.0213 26.0679L27.5745 25.804C27.4681 25.782 27.3936 25.7343 27.3511 25.661C27.3156 25.5877 27.3121 25.4887 27.3404 25.3641C27.5248 24.6164 27.9149 24.0373 28.5107 23.6268C29.1135 23.2089 29.8688 23 30.7766 23C31.8546 23 32.6737 23.3006 33.2341 23.9017C33.8014 24.5028 34.0851 25.3788 34.0851 26.5297V32.0607C34.0851 32.1413 34.0567 32.2109 34 32.2695C33.9503 32.3209 33.8865 32.3465 33.8085 32.3465H32.4255C32.2553 32.3465 32.1489 32.2512 32.1064 32.0607L31.8936 31.0271H31.8085C31.617 31.5109 31.3298 31.8847 30.9468 32.1486C30.5709 32.4125 30.1241 32.5445 29.6064 32.5445C29.0887 32.5445 28.6596 32.4308 28.2766 32.2036C27.8936 31.969 27.5957 31.6465 27.383 31.2359C27.1702 30.8181 27.0638 30.338 27.0638 29.7955ZM29.383 29.5315C29.383 29.9201 29.4787 30.2317 29.6702 30.4662C29.8688 30.6935 30.1347 30.8071 30.4681 30.8071C30.9078 30.8071 31.2447 30.6055 31.4787 30.2023C31.7127 29.7918 31.8298 29.2053 31.8298 28.443V27.8602C31.6312 27.8235 31.4433 27.8052 31.2659 27.8052C30.6844 27.8052 30.2234 27.9628 29.883 28.278C29.5497 28.5859 29.383 29.0038 29.383 29.5315ZM35.2341 30.7301C35.2341 30.5689 35.2766 30.4296 35.3617 30.3123L39 25.0452H35.5957C35.5177 25.0452 35.4503 25.0196 35.3936 24.9683C35.344 24.9096 35.3191 24.84 35.3191 24.7593V23.4838C35.3191 23.4032 35.344 23.3372 35.3936 23.2859C35.4503 23.2272 35.5177 23.1979 35.5957 23.1979H41.1915C41.2695 23.1979 41.3333 23.2272 41.383 23.2859C41.4397 23.3372 41.4681 23.4032 41.4681 23.4838V24.8143C41.4681 24.9756 41.4255 25.1149 41.3404 25.2322L38.0425 29.9164C38.2411 29.8798 38.4433 29.8615 38.6489 29.8615C39.1596 29.8615 39.6277 29.9091 40.0532 30.0044C40.4858 30.0924 40.9326 30.239 41.3936 30.4442C41.5567 30.5175 41.6383 30.6421 41.6383 30.8181V32.0826C41.6383 32.1999 41.6029 32.2806 41.5319 32.3245C41.461 32.3612 41.3723 32.3575 41.2659 32.3136C40.7341 32.1083 40.2624 31.9654 39.8511 31.8847C39.4468 31.7967 39.0035 31.7527 38.5213 31.7527C38.039 31.7527 37.578 31.7967 37.117 31.8847C36.6631 31.9727 36.1596 32.1156 35.6064 32.3136C35.5 32.3502 35.4113 32.3502 35.3404 32.3136C35.2695 32.2695 35.2341 32.1926 35.2341 32.0826V30.7301ZM42.1064 27.7722C42.1064 26.8779 42.2731 26.0679 42.6064 25.3421C42.9397 24.6091 43.3971 24.0373 43.9787 23.6268C44.5674 23.2089 45.2199 23 45.9361 23C46.6525 23 47.3121 23.2089 47.8936 23.6268C48.4823 24.0373 48.9433 24.6091 49.2766 25.3421C49.617 26.0679 49.7873 26.8779 49.7873 27.7722C49.7873 28.6665 49.617 29.4803 49.2766 30.2133C48.9433 30.9391 48.4823 31.5109 47.8936 31.9287C47.3121 32.3392 46.6596 32.5445 45.9361 32.5445C45.2127 32.5445 44.5674 32.3392 43.9787 31.9287C43.3971 31.5109 42.9397 30.9391 42.6064 30.2133C42.2731 29.4803 42.1064 28.6665 42.1064 27.7722ZM44.4468 27.7722C44.4468 28.7032 44.5745 29.4216 44.8298 29.9274C45.0851 30.4259 45.4539 30.6751 45.9361 30.6751C46.4185 30.6751 46.7908 30.4259 47.0532 29.9274C47.3156 29.4216 47.4468 28.7032 47.4468 27.7722C47.4468 26.8412 47.3156 26.1265 47.0532 25.628C46.7908 25.1222 46.4185 24.8693 45.9361 24.8693C45.4539 24.8693 45.0851 25.1222 44.8298 25.628C44.5745 26.1265 44.4468 26.8412 44.4468 27.7722ZM50.9361 23.4838C50.9361 23.4032 50.961 23.3372 51.0107 23.2859C51.0674 23.2272 51.1347 23.1979 51.2127 23.1979H52.617C52.695 23.1979 52.7589 23.2236 52.8085 23.2749C52.8653 23.3262 52.9007 23.3958 52.9149 23.4838L53.1277 24.5614H53.2127C53.4043 24.0629 53.6844 23.6781 54.0532 23.4068C54.4291 23.1356 54.8688 23 55.3723 23C55.9113 23 56.3759 23.1466 56.7659 23.4398C57.1631 23.7331 57.4681 24.1509 57.6809 24.6934C57.8936 25.2358 58 25.8773 58 26.6176V32.0607C58 32.1413 57.9716 32.2109 57.9149 32.2695C57.8653 32.3209 57.8014 32.3465 57.7234 32.3465H56.0213C55.9433 32.3465 55.8759 32.3209 55.8191 32.2695C55.7695 32.2109 55.7447 32.1413 55.7447 32.0607V26.7936C55.7447 26.2584 55.6383 25.8479 55.4255 25.562C55.2127 25.2762 54.9113 25.1332 54.5213 25.1332C54.0887 25.1332 53.7589 25.3018 53.5319 25.639C53.3049 25.9762 53.1915 26.4637 53.1915 27.1014V32.0607C53.1915 32.1413 53.1631 32.2109 53.1064 32.2695C53.0567 32.3209 52.9929 32.3465 52.9149 32.3465H51.2127C51.1347 32.3465 51.0674 32.3209 51.0107 32.2695C50.961 32.2109 50.9361 32.1413 50.9361 32.0607V23.4838Z" fill="#171D27"/>
<path d="M11.9151 33.6108C11.7804 33.7208 11.752 33.904 11.83 34.1606C11.9009 34.3879 12.0676 34.6701 12.33 35.0073C13.3867 36.3562 14.6456 37.4777 16.1066 38.3721C17.5676 39.2664 19.1315 39.9261 20.7981 40.3513C22.4719 40.7838 24.1811 41.0001 25.9257 41.0001C28.1598 41.0001 30.2875 40.6629 32.3087 39.9884C34.33 39.3213 36.0179 38.383 37.3726 37.1735C37.8477 36.741 38.0853 36.3965 38.0853 36.1399C38.0853 36.0446 38.0463 35.9493 37.9683 35.854C37.8619 35.7441 37.7343 35.7074 37.5853 35.7441C37.4364 35.7806 37.2272 35.8723 36.9577 36.0189C35.6598 36.7227 34.0783 37.2834 32.213 37.7013C30.3549 38.1265 28.4151 38.339 26.3939 38.339C23.8903 38.339 21.4719 37.9872 19.1385 37.2834C16.8052 36.5797 14.7378 35.4801 12.9364 33.9847C12.674 33.7721 12.4612 33.6364 12.2981 33.5778C12.1421 33.5192 12.0144 33.5302 11.9151 33.6108Z" fill="#FF6201"/>
<path d="M35.5529 34.1611C35.404 34.3078 35.365 34.4617 35.4359 34.623C35.4856 34.7403 35.5813 34.8062 35.7232 34.8209C35.865 34.8429 36.0671 34.8282 36.3295 34.777C36.7551 34.6817 37.1983 34.6156 37.6593 34.579C38.1203 34.5497 38.5211 34.557 38.8615 34.601C39.2019 34.6523 39.4147 34.7403 39.4998 34.8649C39.6275 35.0629 39.5813 35.4806 39.3615 36.1185C39.1487 36.7562 38.8579 37.3756 38.4891 37.9768C38.3473 38.2186 38.2622 38.4092 38.2338 38.5486C38.2055 38.6878 38.2409 38.8051 38.3402 38.9004C38.404 38.9663 38.4749 38.9994 38.5529 38.9994C38.7587 38.9994 39.0565 38.8124 39.4466 38.4386C40.1487 37.8081 40.6416 37.0604 40.9253 36.1954C41.0813 35.7482 41.1771 35.2791 41.2125 34.7879C41.248 34.2968 41.1948 33.9449 41.0529 33.7323C40.9182 33.527 40.6203 33.3584 40.1593 33.2265C39.7055 33.0946 39.248 33.0286 38.787 33.0286C37.8863 33.0286 37.0317 33.2485 36.2232 33.6884C35.9253 33.857 35.7019 34.0146 35.5529 34.1611Z" fill="#FF6201"/>
</g>
<defs>
<clipPath id="clip0_208_753">
<rect width="52" height="18" fill="white" transform="translate(6 23)"/>
</clipPath>
</defs>
</svg>
