<svg width="64" height="64" viewBox="0 0 64 64" fill="none" xmlns="http://www.w3.org/2000/svg">
<g clip-path="url(#clip0_208_866)">
<path d="M9.34552 37.282V40.864H8.43441V37.282H7.09277V36.5414H10.6389V37.282H9.34552Z" fill="#CE0E2D"/>
<path d="M16.4834 40.864V38.9072H14.7286V40.864H13.8184V36.5414H14.7286V38.1657H16.4834V36.5414H17.3945V40.864H16.4834Z" fill="#CE0E2D"/>
<path d="M20.7595 40.864V36.5414H23.9662V37.282H21.6706V38.2661H23.7896V39.0076H21.6706V40.1234H24.069V40.864H20.7595Z" fill="#CE0E2D"/>
<path d="M29.7678 40.8639L29.4637 39.9971H27.8245L27.515 40.8639H26.5857L28.1285 36.5404H29.1779L30.6962 40.8639H29.7678ZM28.6564 37.5779L28.1094 39.2565H29.2444L28.6564 37.5779Z" fill="#CE0E2D"/>
<path d="M35.0496 37.282V40.864H34.1385V37.282H32.7969V36.5414H36.3421V37.282H35.0496Z" fill="#CE0E2D"/>
<path d="M41.8487 40.8639C41.775 40.7323 41.7386 40.6034 41.7276 40.4602C41.7149 40.2469 41.7276 39.9028 41.7276 39.5881C41.7276 39.2974 41.4955 39.1551 41.1806 39.1551H40.112V40.8639H39.2009V36.5404H41.6603C42.1036 36.5404 42.5468 36.7591 42.6806 37.2276C42.7352 37.417 42.8317 37.7246 42.7234 38.0998C42.6133 38.4723 42.4194 38.6092 42.1218 38.7817C42.2738 38.8813 42.565 38.9889 42.6133 39.38C42.6378 39.5587 42.656 40.1277 42.656 40.3465C42.6624 40.5901 42.7289 40.6434 42.8272 40.703V40.8639H41.8487ZM41.3454 37.2819H40.112V38.4145H41.3581C41.5702 38.4145 41.9525 38.1949 41.8978 37.7682C41.8969 37.4597 41.7513 37.2819 41.3454 37.2819Z" fill="#CE0E2D"/>
<path d="M45.8735 40.864V36.5414H49.0783V37.282H46.7837V38.2661H48.9027V39.0076H46.7837V40.1234H49.1821V40.864H45.8735Z" fill="#CE0E2D"/>
<path d="M54.5787 37.8571C54.5915 37.5077 54.2939 37.1868 53.6695 37.1752C53.2253 37.1699 52.8976 37.3166 52.8676 37.6722C52.843 37.9701 52.9468 38.0287 53.147 38.1052C53.2499 38.2128 54.0872 38.3426 54.2574 38.3737C54.5005 38.4146 55.0229 38.5213 55.3024 38.7995C55.8121 39.3223 55.5754 40.3474 55.0229 40.6986C54.647 40.9359 54.1309 40.9946 53.6385 41.0008C53.4128 41.0071 52.8794 40.9297 52.5517 40.6986C52.1567 40.4203 51.9628 39.9927 51.9319 39.5837H52.8184C52.8184 39.6966 52.8548 39.8744 53.0068 40.0344C53.2071 40.2363 53.5357 40.2949 53.8397 40.2834C54.1428 40.2771 54.4286 40.1882 54.5442 40.0816C54.738 39.9037 54.7808 39.5659 54.5624 39.3525C54.2711 39.0556 53.3964 39.0556 52.8257 38.8653C52.346 38.7062 51.9519 38.3683 52.0247 37.6687C52.0975 36.9805 52.6073 36.4702 53.6886 36.4702C53.9252 36.4702 54.7517 36.4889 55.1822 37.0223C55.4134 37.313 55.4744 37.7158 55.4371 37.8589H54.5787V37.8571Z" fill="#CE0E2D"/>
<path d="M56.1299 40.5287C56.1299 40.2949 56.3247 40.1046 56.5659 40.1046C56.8062 40.1046 56.9991 40.2949 56.9991 40.5287C56.9991 40.7652 56.8062 40.9546 56.5659 40.9546C56.3256 40.9537 56.1299 40.7643 56.1299 40.5287ZM56.9482 40.5287C56.9482 40.3233 56.777 40.1571 56.5668 40.1571C56.3547 40.1571 56.1845 40.3242 56.1845 40.5287C56.1845 40.7367 56.3547 40.9039 56.5668 40.9039C56.777 40.903 56.9482 40.7358 56.9482 40.5287ZM56.7825 40.7661H56.7115L56.5731 40.5474H56.463V40.7661H56.4039V40.2913H56.6159C56.656 40.2913 56.6978 40.294 56.7343 40.3144C56.7707 40.3349 56.7889 40.3776 56.7889 40.4167C56.7889 40.5109 56.7215 40.5447 56.635 40.5474L56.7825 40.7661ZM56.554 40.5011C56.6232 40.5011 56.7288 40.5118 56.7288 40.4158C56.7288 40.3411 56.6623 40.3331 56.6023 40.3331H56.4639V40.5011H56.554Z" fill="#CE0E2D"/>
<path d="M32.7649 23.827C35.0768 21.9155 37.5007 21.9538 39.5623 22.9468C41.4792 23.9337 42.1664 25.3544 42.1973 27.4268L42.1964 32.5131C42.1964 32.5131 42.1773 33.948 40.6709 33.948C39.2401 33.948 39.1727 32.522 39.1727 32.522L39.1527 27.497C39.1527 27.497 39.0662 25.1624 36.676 25.1624C34.274 25.1624 34.0829 27.4846 34.0829 27.4846V32.4313C34.0829 32.4313 34.0829 33.9302 32.5619 33.9302C31.0765 33.9302 31.0456 32.4313 31.0456 32.4313L31.0446 27.4988C31.0446 27.4988 30.9991 25.1624 28.4597 25.1624C25.933 25.1624 25.9976 27.5335 25.9976 27.5335V32.6064C25.9976 32.6064 25.821 33.9409 24.4885 33.9409C23.1068 33.9409 22.9666 32.594 22.9666 32.594L22.9575 27.4748C22.9575 25.5873 23.3307 23.715 26.0795 22.6543C27.3283 22.1725 28.7937 22.1822 30.108 22.4747C30.9846 22.7859 31.7409 23.2038 32.4782 23.827L32.6175 23.9461L32.7649 23.827Z" fill="#CE0E2D"/>
<path d="M18.0999 32.4819C18.0999 31.0106 16.6062 31.0052 16.6062 31.0052H11.2233C10.9048 31.0052 10.8674 30.7678 10.9439 30.4905C11.602 28.8955 13.0601 27.1094 14.6193 26.3288C15.909 25.6851 17.3881 25.0157 18.9218 25.1135C19.2431 25.1383 19.2431 25.2833 19.2431 25.7758V32.4108C19.2431 32.4108 19.3205 33.9178 20.8141 33.9178C22.3514 33.9178 22.2295 32.4606 22.2295 32.4606L22.2231 24.1293C22.2431 23.6234 22.1485 23.1371 21.8399 22.7477C21.6105 22.5441 21.302 22.3298 20.9534 22.2818C19.1202 22.1333 17.3608 22.2951 15.6742 22.7752C12.5477 23.6652 9.55948 26.1465 8.0258 29.0991C7.50425 30.1046 7.02002 31.424 7 32.6402C7.02002 33.2234 7.26942 33.9044 7.95116 33.9044L16.6308 33.9471C16.6308 33.9471 18.0999 34.0013 18.0999 32.4819Z" fill="#CE0E2D"/>
<path d="M53.9936 28.8697C55.5127 29.0244 55.3234 30.4167 55.3234 30.4167C54.5033 32.9363 52.0867 34.4761 49.236 34.4761C45.709 34.4761 42.8491 31.6818 42.8491 28.2367C42.8491 24.7925 45.7081 22 49.236 22C52.0995 22 54.5233 23.3647 55.3334 25.9012C55.3334 25.9012 55.7193 27.4286 54.0391 27.6179C52.7949 27.6179 52.6028 26.6266 52.6028 26.6266C52.1213 25.2655 50.7988 24.7659 49.2415 24.7659C47.2782 24.7659 45.6871 26.3199 45.6871 28.2376C45.6871 30.1562 47.2782 31.7112 49.2415 31.7112C50.7797 31.7112 52.0886 31.0444 52.5846 29.709C52.5846 29.7081 52.8895 28.8457 53.9936 28.8697Z" fill="#CE0E2D"/>
</g>
<defs>
<clipPath id="clip0_208_866">
<rect width="50" height="19" fill="white" transform="translate(7 22)"/>
</clipPath>
</defs>
</svg>
