<svg width="64" height="64" viewBox="0 0 64 64" fill="none" xmlns="http://www.w3.org/2000/svg">
<g clip-path="url(#clip0_208_727)">
<path d="M46.9818 24.2951C46.7538 24.4706 42.7283 26.7209 42.7283 31.7246C42.7283 37.5122 47.8506 39.5597 48.0039 39.6104C47.9803 39.7352 47.1902 42.4145 45.3032 45.1445C43.6206 47.5469 41.8634 49.9454 39.1902 49.9454C36.517 49.9454 35.829 48.4049 32.743 48.4049C29.7356 48.4049 28.6663 49.9961 26.2211 49.9961C23.7759 49.9961 22.0698 47.7731 20.1081 45.0431C17.8359 41.8373 16 36.857 16 32.1302C16 24.5486 20.969 20.5277 25.8595 20.5277C28.458 20.5277 30.6241 22.2203 32.2555 22.2203C33.8084 22.2203 36.23 20.4263 39.1862 20.4263C40.3066 20.4263 44.3322 20.5277 46.9818 24.2951ZM37.7828 17.2166C39.0054 15.7775 39.8703 13.7807 39.8703 11.7839C39.8703 11.507 39.8467 11.2262 39.7956 11C37.8064 11.0741 35.4398 12.3143 34.0128 13.9562C32.8924 15.2198 31.8467 17.2166 31.8467 19.2407C31.8467 19.5449 31.8978 19.8491 31.9214 19.9466C32.0472 19.97 32.2516 19.9973 32.456 19.9973C34.2408 19.9973 36.4855 18.8117 37.7828 17.2166Z" fill="black"/>
</g>
<defs>
<clipPath id="clip0_208_727">
<rect width="32" height="39" fill="white" transform="translate(16 11)"/>
</clipPath>
</defs>
</svg>
