<svg version="1.1" id="Layer_1" xmlns:x="ns_extend;" xmlns:i="ns_ai;" xmlns:graph="ns_graphs;" xmlns="http://www.w3.org/2000/svg" xmlns:xlink="http://www.w3.org/1999/xlink" x="0px" y="0px" viewBox="0 0 145 145" style="enable-background:new 0 0 145 145;" xml:space="preserve">
 <style type="text/css">
  .st0{fill:#CC092F;}
	.st1{fill:#FFFFFF;}
 </style>
 <metadata>
  <sfw xmlns="ns_sfw;">
   <slices>
   </slices>
   <sliceSourceBounds bottomLeftOrigin="true" height="145" width="145" x="-1" y="0">
   </sliceSourceBounds>
  </sfw>
 </metadata>
 <g>
  <g>
   <path class="st0" d="M72.5,0C32.5,0,0,32.5,0,72.5c0,7.6,1.2,15,3.4,21.9c1.7-0.8,3.4-1.6,5.2-2.3c8.3-3.3,15.9-2.2,23.5,2.4
			c0,0,2.8,1.7,3.6,2.2c3.5,2.2,6.9,4.3,10.1,4.3c3.1,0,6.1-0.8,7.4-6.8c2-9.3,6.9-32,9-43.3c1.2-6.6,1.9-10.2,2.6-12.6
			c1.2-4.2,3.5-6.6,6.7-6.9c0,0,0.6-0.1,1-0.1s0.9,0.1,0.9,0.1c3.2,0.4,5.5,2.7,6.8,7c0.7,2.4,1.4,6,2.6,12.6c2.1,11.3,7,34,9,43.3
			c1.3,5.9,4.3,6.8,7.4,6.8c3.2,0,6.6-2.1,10.1-4.3c0.8-0.5,3.6-2.2,3.6-2.2c7.6-4.6,15.2-5.7,23.5-2.4c1.8,0.7,3.5,1.5,5.2,2.3
			c2.2-6.9,3.4-14.3,3.4-21.9C145,32.5,112.5,0,72.5,0">
   </path>
  </g>
  <g>
   <path class="st0" d="M123.1,102.6c-2.7,0.9-5.2,2.5-7.6,4.1c-4.6,2.9-9.7,6.1-16.3,6.1c-9.8,0-16.6-5.8-18.8-16
			c-1.7-7.9-7.9-37.6-7.9-37.6c-2.4,12.1-6.2,29.7-7.9,37.6c-2.2,10.2-9,16-18.8,16c-6.6,0-11.8-3.3-16.3-6.1
			c-2.4-1.5-4.9-3.1-7.6-4.1c-2.8-0.9-5.7-0.9-8.5-0.1c-2,0.6-3.9,1.4-5.7,2.3C19.5,128.6,43.5,145,72,145
			c28.4,0,53.5-16.4,65.4-40.2c-1.9-0.9-3.8-1.7-5.7-2.3C128.8,101.7,125.9,101.6,123.1,102.6">
   </path>
   <path class="st1" d="M136.4,92.1c-8.3-3.3-15.9-2.2-23.5,2.4c0,0-2.8,1.7-3.6,2.2c-3.5,2.2-6.9,4.3-10.1,4.3
			c-3.1,0-6.1-0.8-7.4-6.8c-2-9.3-6.8-32-9-43.3c-1.2-6.6-1.9-10.2-2.6-12.6c-1.2-4.3-3.5-6.6-6.8-6.9c0,0-0.5-0.1-0.9-0.1
			s-1,0.1-1,0.1c-3.2,0.4-5.5,2.7-6.7,6.9c-0.7,2.4-1.4,6-2.6,12.6c-2.1,11.3-7,34-9,43.3c-1.3,5.9-4.3,6.8-7.4,6.8
			c-3.2,0-6.6-2.1-10.1-4.3c-0.8-0.5-3.6-2.2-3.6-2.2c-7.6-4.6-15.2-5.7-23.5-2.4c-1.8,0.7-3.5,1.5-5.2,2.3
			c1.1,3.6,2.6,7.1,4.2,10.4c1.8-0.9,3.7-1.7,5.7-2.3c2.8-0.8,5.7-0.9,8.5,0.1c2.7,0.9,5.2,2.5,7.6,4.1c4.6,2.9,9.7,6.1,16.3,6.1
			c9.8,0,16.6-5.8,18.8-16c1.7-7.9,5.5-25.5,7.9-37.6c0,0,6.2,29.7,7.9,37.6c2.2,10.2,9,16,18.8,16c6.6,0,11.8-3.3,16.3-6.1
			c2.4-1.5,4.9-3.1,7.6-4.1c2.8-0.9,5.7-0.9,8.5-0.1c2,0.6,3.8,1.4,5.7,2.3c1.7-3.3,3.1-6.8,4.2-10.4
			C139.9,93.6,138.2,92.8,136.4,92.1">
   </path>
  </g>
 </g>
</svg>