<?xml version="1.0" encoding="UTF-8" standalone="no"?>
<svg
   xmlns:dc="http://purl.org/dc/elements/1.1/"
   xmlns:cc="http://creativecommons.org/ns#"
   xmlns:rdf="http://www.w3.org/1999/02/22-rdf-syntax-ns#"
   xmlns:svg="http://www.w3.org/2000/svg"
   xmlns="http://www.w3.org/2000/svg"
   xmlns:sodipodi="http://sodipodi.sourceforge.net/DTD/sodipodi-0.dtd"
   xmlns:inkscape="http://www.inkscape.org/namespaces/inkscape"
   version="1.1"
   id="svg3100"
   inkscape:version="1.0.2 (e86c870879, 2021-01-15)"
   sodipodi:docname="MSNBC_2021.svg"
   x="0px"
   y="0px"
   width="300"
   height="300"
   viewBox="-100 -200 300 300"
   enable-background="new -100 -200 300 300"
   xml:space="preserve"><metadata
     id="metadata16724"><rdf:RDF><cc:Work
         rdf:about=""><dc:format>image/svg+xml</dc:format><dc:type
           rdf:resource="http://purl.org/dc/dcmitype/StillImage" /><dc:title /></cc:Work></rdf:RDF></metadata><defs
     id="defs16722" /><sodipodi:namedview
     inkscape:cy="206.29921"
     inkscape:cx="765.33957"
     inkscape:zoom="0.40649487"
     showgrid="false"
     guidetolerance="10"
     gridtolerance="10"
     objecttolerance="10"
     bordercolor="#666666"
     pagecolor="#ffffff"
     borderopacity="1"
     id="namedview3102"
     inkscape:window-y="-8"
     inkscape:window-x="-8"
     inkscape:window-height="715"
     inkscape:pageshadow="2"
     inkscape:pageopacity="0"
     inkscape:window-width="1366"
     inkscape:current-layer="svg3100"
     inkscape:window-maximized="1"
     inkscape:document-rotation="0" /><g
     id="g869"
     transform="matrix(0.73518433,0,0,0.73518433,-23.195999,-43.562178)"><g
       id="g854"><path
         id="path3113"
         inkscape:connector-curvature="0"
         d="m 81.921987,-138.63583 c -5.286173,-13.1972 -18.162964,-27.45008 -42.27862,-25.49235 -30.7205375,3.3398 -40.29458652,32.78049 -35.6516272,50.34447 -12.2353713,-8.28524 -33.0405208,-11.92871 -51.2004928,3.62673 -23.446742,23.504134 -10.905906,55.289914 1.984033,62.914604 -14.205654,-1.315718 -36.656494,8.283442 -41.623452,33.392614 C -92.131954,17.325681 -68.365996,35.5 -45.22472,35.5 h 256.61579 c 26.76023,0 41.60791,-23.150241 39.94189,-44.9829783 -2.62545,-28.4943987 -28.70004,-39.4272077 -42.92303,-37.0851037 11.88328,-6.629384 27.75435,-37.773147 3.62196,-62.256438 -19.15588,-18.22095 -43.577,-11.59156 -52.16352,-3.64407 4.62921,-15.22129 -2.96081,-46.68546 -34.03104,-51.66258 -2.14783,-0.23971 -4.21555,-0.36883 -6.18643,-0.36883 -23.71754,0.003 -34.381942,17.34042 -37.728913,25.86417"
         style="fill:#ffffff;stroke-width:0.59778" /><path
         id="path3115"
         inkscape:connector-curvature="0"
         d="m -42.934623,-105.196 c -13.548694,12.264666 -18.479784,40.054284 5.943731,56.299566 L 60.443136,17.950362 13.199951,-90.282569 C 3.3007065,-115.82334 -23.781141,-121.39286 -42.934623,-105.196"
         style="fill:#f37021;stroke-width:0.59778" /><path
         id="path3117"
         inkscape:connector-curvature="0"
         d="m 40.936961,-157.81861 c -15.837595,0.32221 -39.6196919,19.18278 -29.035988,47.98264 L 60.76235,5.3987665 77.931802,-115.8066 c 3.973446,-30.11678 -18.818129,-44.01876 -36.994841,-42.01201"
         style="fill:#cc004c;stroke-width:0.59778" /><path
         id="path3119"
         inkscape:connector-curvature="0"
         d="m 85.557685,-120.42864 h 9.238699 c 0,0 4.934077,0 5.605386,2.32716 -3.635701,2.96918 -13.531955,3.341 -12.218631,19.201308 L 103.71527,5.3826276 152.24308,-110.15518 c 9.92615,-25.79722 -10.90889,-47.34182 -29.39107,-48.00058 -0.8626,-0.0622 -1.72938,-0.11238 -2.62545,-0.11238 -16.58901,0 -35.598422,12.05604 -34.668875,37.8395"
         style="fill:#6460aa;stroke-width:0.59778" /><path
         id="path3121"
         inkscape:connector-curvature="0"
         d="M 150.28953,-89.301612 104.38956,17.632941 201.7955,-49.566548 c 22.45323,-15.926068 18.83187,-41.387926 6.26354,-53.973002 -5.26944,-5.9234 -14.94392,-10.49941 -25.19286,-10.49941 -12.10745,-0.002 -25.06493,6.42016 -32.57665,24.737348"
         style="fill:#0089d0;stroke-width:0.59778" /><path
         id="path3123"
         inkscape:connector-curvature="0"
         d="M 190.88959,-34.350643 99.41364,29.544314 h 112.63259 c 23.1078,0 37.95786,-23.8269296 31.35598,-45.690751 -4.42119,-13.742375 -17.50242,-24.530518 -32.68544,-24.54606 -6.39027,0.0024 -13.16791,1.927843 -19.82718,6.341854"
         style="fill:#0db14b;stroke-width:0.59778" /><path
         id="path3125"
         inkscape:connector-curvature="0"
         d="M -45.560075,29.544314 H 65.41069 l -91.498067,-63.894957 c -21.138114,-13.581573 -44.90706,-5.634678 -53.4876,16.902837 -7.273195,25.8002056 10.886777,46.99212 34.014902,46.99212"
         style="fill:#fcb711;stroke-width:0.59778" /></g></g></svg>
