<svg width="64" height="64" viewBox="0 0 64 64" fill="none" xmlns="http://www.w3.org/2000/svg">
<g clip-path="url(#clip0_208_894)">
<path d="M10.2545 31.0582H7.56215V30.1897C7.56214 29.6422 7.53656 29.2995 7.4854 29.1616C7.43424 29.0237 7.31273 28.9548 7.12088 28.9548C6.9546 28.9548 6.84161 29.0139 6.78193 29.132C6.72224 29.2502 6.69239 29.5535 6.69239 30.042V34.6329C6.69239 35.0623 6.72224 35.3449 6.78193 35.4808C6.84161 35.6167 6.96099 35.6847 7.14006 35.6847C7.33618 35.6847 7.46941 35.6079 7.53976 35.4542C7.61011 35.3006 7.64528 35.0013 7.64529 34.5561V33.4217H7.10169V31.9682H10.2545V37.1028H8.5598L8.31039 36.4174C8.12706 36.7128 7.89576 36.9344 7.61651 37.0821C7.33724 37.2298 7.00789 37.3036 6.62844 37.3036C6.17651 37.3036 5.75336 37.2022 5.35899 36.9994C4.96461 36.7965 4.6651 36.5454 4.46046 36.246C4.25581 35.9466 4.1279 35.6325 4.07674 35.3036C4.02558 34.9747 4 34.4813 4 33.8235V30.9814C4 30.0676 4.05329 29.4038 4.15988 28.9902C4.26647 28.5766 4.57237 28.1975 5.0776 27.8528C5.58282 27.5082 6.2362 27.3358 7.03774 27.3358C7.82648 27.3358 8.48092 27.4855 9.00108 27.7849C9.52121 28.0842 9.86016 28.4397 10.0179 28.8514C10.1757 29.263 10.2545 29.8608 10.2545 30.6446V31.0582ZM13.3113 32.299H10.8876V31.7732C10.8876 31.1666 10.9632 30.6988 11.1146 30.3699C11.2659 30.041 11.5697 29.7505 12.0259 29.4984C12.4821 29.2463 13.0747 29.1202 13.8038 29.1202C14.6778 29.1202 15.4484 29.263 15.8918 29.5486C16.3352 29.8342 16.6017 30.1848 16.6912 30.6003C16.7808 31.0159 16.8255 31.8717 16.8255 33.1676V37.1028H14.2003V36.4055C14.0425 36.6852 13.839 36.895 13.5895 37.0348C13.3401 37.1746 13.0427 37.2446 12.6974 37.2446C12.2455 37.2446 11.8309 37.1274 11.4535 36.893C11.0762 36.6586 10.8876 36.1456 10.8876 35.3538V34.7098C10.8876 34.1228 10.9877 33.723 11.1881 33.5103C11.3885 33.2976 11.8852 33.0494 12.6782 32.7658C13.5267 32.4586 13.9807 32.2518 14.0404 32.1454C14.1001 32.0391 14.1299 31.8224 14.1299 31.4955C14.1299 31.0858 14.0969 30.8189 14.0308 30.6949C13.9647 30.5708 13.8549 30.5087 13.7015 30.5087C13.5267 30.5087 13.4179 30.5609 13.3753 30.6653C13.3327 30.7697 13.3113 31.0405 13.3113 31.4778V32.299ZM14.1299 33.3744C13.7164 33.6541 13.4766 33.8885 13.4105 34.0775C13.3444 34.2666 13.3113 34.5384 13.3113 34.8929C13.3113 35.2987 13.3401 35.5606 13.3977 35.6788C13.4552 35.7969 13.5693 35.856 13.7398 35.856C13.9018 35.856 14.0074 35.8098 14.0564 35.7172C14.1054 35.6246 14.1299 35.3814 14.1299 34.9875V33.3744ZM20.1543 29.262L20.1095 30.0065C20.3099 29.7111 20.5486 29.4895 20.8258 29.3418C21.1029 29.1941 21.4184 29.1202 21.7722 29.1202C22.4629 29.1202 23.0065 29.4157 23.403 30.0065C23.6205 29.7111 23.8656 29.4895 24.1385 29.3418C24.4113 29.1941 24.714 29.1202 25.0466 29.1202C25.4857 29.1202 25.8492 29.2187 26.137 29.4156C26.4248 29.6126 26.6092 29.8539 26.6902 30.1395C26.7712 30.425 26.8117 30.8889 26.8117 31.5309V37.1028H24.3048V31.9918C24.3048 31.3222 24.2802 30.9076 24.2312 30.748C24.1822 30.5885 24.0681 30.5087 23.8891 30.5087C23.7057 30.5087 23.5874 30.5875 23.5341 30.7451C23.4808 30.9027 23.4542 31.3182 23.4542 31.9918V37.1028H20.9473V32.1218C20.9473 31.3537 20.927 30.8928 20.8865 30.7392C20.846 30.5856 20.7341 30.5087 20.5508 30.5087C20.4356 30.5087 20.3376 30.5491 20.2566 30.6299C20.1756 30.7106 20.1308 30.8091 20.1223 30.9253C20.1137 31.0415 20.1095 31.2887 20.1095 31.6668V37.1028H17.5186V29.262H20.1543ZM33.5587 33.3212H30.214V35.017C30.214 35.3715 30.2417 35.6 30.2971 35.7024C30.3525 35.8048 30.4591 35.856 30.6169 35.856C30.813 35.856 30.9441 35.7881 31.0102 35.6522C31.0762 35.5163 31.1093 35.2534 31.1093 34.8634V33.8294H33.5587V34.4084C33.5587 34.8929 33.5256 35.2652 33.4595 35.5251C33.3935 35.7851 33.2389 36.0628 32.9959 36.3583C32.7529 36.6537 32.4448 36.8753 32.0718 37.023C31.6987 37.1707 31.2308 37.2446 30.668 37.2446C30.1223 37.2446 29.6405 37.1717 29.2227 37.0259C28.8049 36.8802 28.4798 36.6803 28.2474 36.4262C28.0151 36.1721 27.8541 35.8925 27.7646 35.5872C27.675 35.2819 27.6303 34.8378 27.6303 34.2548V31.9682C27.6303 31.2828 27.7305 30.7421 27.9309 30.3463C28.1312 29.9504 28.4595 29.6471 28.9157 29.4363C29.3719 29.2256 29.8963 29.1202 30.489 29.1202C31.2137 29.1202 31.8117 29.2473 32.2828 29.5013C32.7539 29.7554 33.0843 30.0922 33.2741 30.5117C33.4638 30.9312 33.5587 31.5211 33.5587 32.2813V33.3212ZM30.9686 32.045V31.4718C30.9686 31.0661 30.9451 30.8042 30.8982 30.686C30.8513 30.5678 30.7554 30.5087 30.6105 30.5087C30.4314 30.5087 30.3205 30.559 30.2779 30.6594C30.2353 30.7599 30.214 31.0307 30.214 31.4718V32.045H30.9686Z" fill="black"/>
<path d="M40.1905 30.2124H37.69V29.5034C37.69 29.1725 37.658 28.9618 37.5941 28.8712C37.5301 28.7806 37.4235 28.7353 37.2743 28.7353C37.1123 28.7353 36.9897 28.7964 36.9066 28.9185C36.8234 29.0406 36.7819 29.2257 36.7819 29.4739C36.7819 29.7929 36.8288 30.0332 36.9226 30.1947C37.0121 30.3562 37.2658 30.5512 37.6836 30.7797C38.8816 31.4375 39.6363 31.9772 39.9475 32.3986C40.2587 32.8201 40.4144 33.4996 40.4144 34.4371C40.4144 35.1186 40.328 35.6208 40.1554 35.9438C39.9827 36.2668 39.6491 36.5376 39.1545 36.7562C38.6599 36.9749 38.0844 37.0842 37.4278 37.0842C36.7073 37.0842 36.0923 36.9581 35.5828 36.706C35.0733 36.4539 34.7397 36.1329 34.5819 35.7429C34.4242 35.3529 34.3453 34.7995 34.3453 34.0826V33.4563H36.8458V34.6203C36.8458 34.9787 36.881 35.2092 36.9514 35.3116C37.0217 35.414 37.1464 35.4652 37.3255 35.4652C37.5045 35.4652 37.6378 35.4002 37.7252 35.2702C37.8126 35.1402 37.8563 34.9472 37.8563 34.6912C37.8563 34.1279 37.7731 33.7596 37.6069 33.5863C37.4363 33.413 37.0164 33.1234 36.347 32.7177C35.6776 32.308 35.1503 32.0106 34.9329 31.8255C34.7154 31.6404 34.5353 31.3843 34.3925 31.0574C34.2496 30.7304 34.1782 30.3129 34.1782 29.8048C34.1782 29.0721 34.2795 28.42 34.482 28.0813C34.6845 27.7425 35.0117 27.4776 35.4637 27.2866C35.9156 27.0955 36.5453 27 37.1848 27C37.884 27 38.4798 27.1044 38.9722 27.3132C39.4647 27.5219 39.7908 27.7849 39.9507 28.102C40.1106 28.4191 40.1905 29.0741 40.1905 29.8343V30.2124ZM44.0245 27.9967V28.9408H44.7495V30.1816H44.0245V34.6675C44.0245 35.1836 44.0533 35.4711 44.1108 35.5302C44.1684 35.5893 44.2963 35.6188 44.7184 35.6188V36.8833H43.6759C43.0876 36.8833 42.6676 36.8606 42.4161 36.8153C42.1645 36.77 41.9428 36.6656 41.751 36.5022C41.5591 36.3387 41.4397 36.1516 41.3928 35.9408C41.3459 35.7301 41.3225 35.2348 41.3225 34.4548V30.1816H40.7661V28.9408H41.3225V27.9967H44.0245ZM51.2199 31.796V33.7163C51.2199 34.4214 51.1815 34.9384 51.1048 35.2673C51.028 35.5962 50.8639 35.9034 50.6124 36.189C50.3608 36.4746 50.0379 36.6853 49.6435 36.8212C49.2491 36.9571 48.7961 37.0251 48.2845 37.0251C47.7132 37.0251 47.2293 36.967 46.8328 36.8508C46.4363 36.7346 46.1282 36.5593 45.9087 36.3249C45.6891 36.0905 45.5324 35.8069 45.4386 35.4741C45.3448 35.1412 45.2979 34.6419 45.2979 33.9762V31.9673C45.2979 31.2386 45.3832 30.6694 45.5537 30.2597C45.7243 29.8501 46.0312 29.5211 46.4746 29.273C46.918 29.0248 47.4851 28.9007 48.1758 28.9007C48.7556 28.9007 49.2534 28.9805 49.6691 29.14C50.0848 29.2996 50.4056 29.5074 50.6315 29.7634C50.8575 30.0194 51.0121 30.2834 51.0952 30.5551C51.1783 30.827 51.2199 31.2406 51.2199 31.796ZM48.6362 31.2051C48.6362 30.8033 48.6128 30.5502 48.5659 30.4458C48.519 30.3415 48.4188 30.2893 48.2653 30.2893C48.1118 30.2893 48.0095 30.3415 47.9583 30.4458C47.9072 30.5502 47.8816 30.8033 47.8816 31.2051V34.7444C47.8816 35.1146 47.9072 35.3559 47.9583 35.4682C48.0095 35.5804 48.1097 35.6366 48.2589 35.6366C48.4124 35.6366 48.5137 35.5853 48.5627 35.4829C48.6117 35.3805 48.6362 35.1599 48.6362 34.8212V31.2051ZM54.5654 29.0425L54.5207 29.7338C54.7509 29.4542 55.0046 29.2454 55.2817 29.1075C55.5588 28.9697 55.8615 28.9007 56.1898 28.9007C57.7229 28.8429 58.2579 29.7155 58.2762 31.211V34.5139C58.2762 35.2269 58.2304 35.734 58.1387 36.0354C57.6309 37.0868 56.2423 37.2534 55.2689 36.8183C54.996 36.6804 54.7466 36.4756 54.5207 36.2038V38H51.937V29.0425H54.5654ZM55.3009 31.3233C55.3009 30.8388 55.2817 30.5453 55.2433 30.4429C55.205 30.3405 55.0984 30.2893 54.9236 30.2893C54.753 30.2893 54.6432 30.3484 54.5942 30.4665C54.5452 30.5847 54.5207 30.8703 54.5207 31.3233V34.573C54.5207 35.0457 54.5462 35.3411 54.5974 35.4593C54.6486 35.5775 54.7594 35.6366 54.93 35.6366C55.0962 35.6366 55.1996 35.5824 55.2401 35.4741C55.2806 35.3657 55.3009 35.1028 55.3009 34.6853V31.3233Z" fill="#FD0000"/>
<path d="M59.1411 29.0096V28.2979H59.4447C59.5057 28.2979 59.5521 28.3042 59.5839 28.317C59.6157 28.3298 59.641 28.3524 59.66 28.3848C59.679 28.4171 59.6885 28.4529 59.6885 28.4921C59.6885 28.5426 59.6728 28.5851 59.6413 28.6198C59.6099 28.6544 59.5613 28.6764 59.4956 28.6858C59.5196 28.6978 59.5378 28.7096 59.5503 28.7212C59.5767 28.7465 59.6018 28.778 59.6255 28.8159L59.7446 29.0096H59.6306L59.54 28.8616C59.5135 28.8188 59.4917 28.7861 59.4746 28.7635C59.4575 28.7408 59.4421 28.725 59.4286 28.7159C59.415 28.7068 59.4013 28.7005 59.3873 28.697C59.377 28.6947 59.3602 28.6936 59.3368 28.6936H59.2317V29.0096L59.1411 29.0096ZM59.2317 28.612H59.4265C59.4679 28.612 59.5003 28.6075 59.5236 28.5986C59.547 28.5897 59.5647 28.5755 59.5769 28.5559C59.589 28.5363 59.5951 28.5151 59.5951 28.4921C59.5951 28.4584 59.5834 28.4307 59.5598 28.409C59.5363 28.3874 59.4992 28.3765 59.4484 28.3765H59.2317V28.612Z" fill="#FF0000"/>
<path d="M59.9529 28.6576C59.9529 28.9749 59.7055 29.2321 59.4003 29.2321C59.0951 29.2321 58.8477 28.9749 58.8477 28.6576C58.8477 28.3403 59.0951 28.0831 59.4003 28.0831C59.7055 28.0831 59.9529 28.3403 59.9529 28.6576Z" stroke="#FF0000" stroke-width="0.880983"/>
</g>
<defs>
<clipPath id="clip0_208_894">
<rect width="56" height="11" fill="white" transform="translate(4 27)"/>
</clipPath>
</defs>
</svg>
