<svg version="1.1" id="Marvell_logo_horizontal" xmlns:x="ns_extend;" xmlns:i="ns_ai;" xmlns:graph="ns_graphs;" xmlns="http://www.w3.org/2000/svg" xmlns:xlink="http://www.w3.org/1999/xlink" x="0px" y="0px" viewBox="0 0 288 288" style="enable-background:new 0 0 288 288;" xml:space="preserve">
 <metadata>
  <sfw xmlns="ns_sfw;">
   <slices>
   </slices>
   <sliceSourceBounds bottomLeftOrigin="true" height="288" width="288" x="0" y="0">
   </sliceSourceBounds>
  </sfw>
 </metadata>
 <path d="M111.9,111.1l30.1,30.8c0.7,0.7,1.4,1.1,2,1.1s1.3-0.4,2-1.1l30.1-30.8c0.7-0.7,1.1-1.4,1.1-2c0-1-0.5-1.4-1.6-1.4h-63.1
	c-1.1,0-1.6,0.5-1.6,1.4C110.8,109.7,111.2,110.4,111.9,111.1L111.9,111.1z M288,1.6c0-1.1-0.5-1.6-1.5-1.6c-0.6,0-1.2,0.3-1.8,0.9
	l-24.7,25v236l0,0l24.7,25.2c0.6,0.6,1.2,0.9,1.8,0.9c1,0,1.5-0.5,1.5-1.6V1.6z M0,286.4c0,1.1,0.5,1.6,1.5,1.6
	c0.6,0,1.2-0.3,1.8-0.9L28,261.9l0,0v-236L3.3,0.9C2.7,0.3,2,0,1.5,0C0.5,0,0,0.5,0,1.6V286.4z M64.2,62.8h159.7L246.3,40
	c0.6-0.6,0.9-1.2,0.9-1.8c0-1-0.5-1.5-1.6-1.5H42.4c-1.1,0-1.6,0.5-1.6,1.5c0,0.6,0.3,1.2,0.9,1.8L64.2,62.8z M41.7,248
	c-0.6,0.6-0.9,1.2-0.9,1.8c0,1,0.5,1.4,1.6,1.4h203.1c1.1,0,1.6-0.5,1.6-1.4c0-0.6-0.3-1.2-0.9-1.8l-22.4-22.8H64.2L41.7,248z
	 M211.8,213c0.6,0.6,1.2,0.9,1.8,0.9c1,0,1.4-0.5,1.4-1.6l0,0V75.7c0-1.1-0.5-1.6-1.4-1.6c-0.6,0-1.2,0.3-1.8,0.9l-23.4,23.8v90.5
	L211.8,213z M99.6,189.2V98.8L76.2,75c-0.6-0.6-1.2-0.9-1.8-0.9c-1,0-1.4,0.6-1.4,1.6v136.6l0,0c0,1.1,0.5,1.6,1.4,1.6
	c0.6,0,1.2-0.3,1.8-0.9L99.6,189.2z">
 </path>
</svg>