<svg xmlns="http://www.w3.org/2000/svg" width="143.185" height="23.507" viewBox="0 0 143.185 23.507" xmlns:xlink="http://www.w3.org/1999/xlink">
 <path d="M356.517,655.875a8.442,8.442,0,0,1,8.8-8.669,9.707,9.707,0,0,1,4.468,1.066v3.668h-.1a7.728,7.728,0,0,0-4.067-1.133c-3.168,0-4.869,2.167-4.869,5.068s1.7,5.068,4.869,5.068a7.729,7.729,0,0,0,4.067-1.134h.1v3.668a9.707,9.707,0,0,1-4.468,1.067,8.442,8.442,0,0,1-8.8-8.669m-.4,8.335a10.226,10.226,0,0,1-2.034.233c-3.167,0-4.868-1.667-4.868-4.734v-12.17h4.168v11.87c0,1.1.533,1.634,1.667,1.634a5.665,5.665,0,0,0,.967-.1h.1Zm-2.3-20.739a2.451,2.451,0,1,1-2.467-2.434,2.433,2.433,0,0,1,2.467,2.434m-18.605,11.437c0-2.568,1.3-4.235,3.7-4.235,2.367,0,3.468,1.567,3.468,4.235v9.3h4.135v-9.469c0-4-2.068-7.535-6.569-7.535a5.175,5.175,0,0,0-4.9,3v-2.668h-3.968V664.21h4.135Zm-15.081,6.068c2.967,0,4.5-2.167,4.5-5.1s-1.534-5.1-4.5-5.1c-2.9,0-4.535,2.167-4.535,5.1s1.633,5.1,4.535,5.1m0,3.568a8.669,8.669,0,1,1,8.736-8.669,8.434,8.434,0,0,1-8.736,8.669m-14.4-9.069c0-2.7,1.4-4.2,4.068-4.2a5.292,5.292,0,0,1,1.434.2h.067v-3.868a4.651,4.651,0,0,0-1.634-.267c-2,0-3.335,1.234-4.1,3.234v-3.034h-3.968V664.21h4.134Zm-27.441,5.568c2.8,0,4.368-2.167,4.368-5.2,0-3-1.567-5.168-4.368-5.168-2.834,0-4.3,2.167-4.3,5.168,0,3.035,1.467,5.2,4.3,5.2m18.9,3.5c-3.834,0-6-1.768-6-5.769v-7.869h-4.6v8.37c0,1.233.466,1.733,1.467,1.733a3.56,3.56,0,0,0,.8-.066h.1v3.267a8.9,8.9,0,0,1-1.8.2c-2.267,0-3.668-.867-4.268-2.767a6.225,6.225,0,0,1-5.467,2.9c-4.236,0-7.67-3.3-7.67-8.7,0-5.335,3.434-8.635,7.67-8.635a6.268,6.268,0,0,1,5.034,2.267V641.2h4.135v6.335h4.6v-3.968h4.134v3.968h4.435v3.367h-4.435v7.669a2.167,2.167,0,0,0,2.435,2.468,7.1,7.1,0,0,0,1.9-.233h.1v3.4a11.3,11.3,0,0,1-2.568.334M226.6,664.21h4.1l.767-14.37.167-3.9h.067l.867,3.9,3.334,14.37h5.135l3.367-14.37.834-3.9h.066l.167,3.9.8,14.37h4.267l-1.4-23.006h-6.8l-3.068,13.8-.667,3.5h-.066l-.7-3.5-3.067-13.8h-6.8Zm41.579-8.635a12.337,12.337,0,0,1-.2,2.3h-12c.433,2,2.134,3.234,5.335,3.234h.075c.2,0,.4-.007.6-.017.105-.006.211-.013.316-.022.083-.006.164-.014.246-.022a11.638,11.638,0,0,0,3.763-1.037c.091-.045.185-.087.273-.133h0c.235-.118.464-.248.69-.382h.1v3.375a11.592,11.592,0,0,1-6.02,1.675v-.008c-.081,0-.16.008-.242.008-6.035,0-9.336-3.435-9.336-8.436,0-5.368,3.4-8.9,8.335-8.9S268.182,650.707,268.182,655.575Zm-3.935-.934c-.2-2.5-1.5-3.968-4.135-3.968-2.433,0-3.934,1.534-4.2,3.968Z" transform="translate(-226.603 -641.037)" fill="#001e46">
 </path>
</svg>