<svg width="64" height="64" viewBox="0 0 64 64" fill="none" xmlns="http://www.w3.org/2000/svg">
<g clip-path="url(#clip0_208_853)">
<path d="M9.31078 29.9697C8.79332 29.7742 8.14228 29.6817 7.76767 29.2679C7.51021 28.9769 7.59785 28.4581 7.91684 28.2303C8.32095 27.9111 8.96145 27.9489 9.46247 28.158C9.72752 28.2655 9.99468 28.4324 10.2597 28.6582L11.2306 26.6705C10.765 26.4115 10.2795 26.2144 9.7743 26.0803C8.44989 25.718 6.91564 25.7877 5.94393 26.7693C5.0763 27.606 4.83063 29.228 5.28488 30.3034C5.5651 30.9235 6.04885 31.3298 6.66576 31.5888C7.15962 31.7992 7.80517 31.9943 8.27122 32.1923C8.71705 32.3737 9.06427 32.636 9.05078 33.127C9.03098 33.7234 8.53501 34.0799 7.86838 34.0617C7.51863 34.0617 7.16678 33.9803 6.81071 33.8159C6.45422 33.6516 6.09352 33.4013 5.7286 33.0635L4.68188 35.1146C5.69531 35.8497 6.79512 36.2182 7.98216 36.2182C9.00527 36.2187 9.96055 35.9518 10.6655 35.3014C11.7674 34.3223 11.9478 32.1952 11.0641 31.0783C10.6946 30.6155 10.111 30.2449 9.31373 29.9685L9.31078 29.9697ZM49.6531 32.8808C49.0586 31.681 48.464 30.4811 47.8673 29.2807C46.3975 29.2828 44.9277 29.2853 43.4605 29.2874V30.1648C42.946 29.5771 42.3114 29.2807 41.5563 29.2807C41.0906 29.2807 40.6612 29.3729 40.2668 29.5592C39.8728 29.7456 39.5319 30 39.2445 30.325C38.9572 30.6496 38.7321 31.0314 38.5653 31.468C38.5252 31.5735 38.4894 31.681 38.4604 31.7905C38.4313 31.6697 38.398 31.5535 38.3601 31.4419C38.202 30.9791 37.9749 30.5865 37.6745 30.2661C37.0239 29.5709 36.1158 29.2807 35.1226 29.2812C34.126 29.2791 33.1994 29.5742 32.5328 30.2553C32.379 30.4109 32.2412 30.5844 32.1228 30.7753V29.2807H30.8401V27.2802H28.5865V29.2807C27.4686 29.2807 26.3507 29.2807 25.2331 29.2807V30.1515C24.7098 29.5725 24.0507 29.2807 23.2535 29.2807C22.7815 29.2807 22.3492 29.3729 21.9594 29.5592C21.5696 29.7456 21.2334 29.9979 20.9506 30.3184C20.7749 30.518 20.6232 30.7396 20.4943 30.9808V29.16C20.4028 29.1425 20.3228 29.1338 20.2516 29.1338H20.0577C19.5921 29.1338 19.1871 29.2392 18.8374 29.4517C18.4876 29.6647 18.1939 29.9693 17.9533 30.3665V29.2766H14.6109V27.2761H12.3574V29.2766H11.6115V31.2377H12.3574V34.5701V36.1473H14.6109C14.6109 34.5107 14.6109 32.8742 14.6109 31.2377H15.6998V36.1473H17.9533C17.9533 35.3827 17.9533 33.845 17.9533 33.0826C17.9533 32.4596 18.0848 31.9856 18.3452 31.661C18.6056 31.3365 18.9975 31.1742 19.5209 31.1742C19.8083 31.1742 20.0775 31.2269 20.3312 31.3344C20.3156 31.3697 20.3021 31.4066 20.2891 31.444C20.131 31.8719 20.0531 32.3259 20.0531 32.802C20.0531 33.3133 20.1331 33.7848 20.2958 34.2169C20.6051 35.047 21.1896 35.7301 21.9948 36.0925C22.3846 36.2701 22.8123 36.3577 23.2775 36.3577C24.0992 36.3577 24.7515 36.0418 25.2327 35.4101V36.1493H27.4998V31.2398H28.5886V36.1493H30.8422V31.2398H31.8843C31.864 31.2904 31.8421 31.3385 31.824 31.3912C31.6567 31.8366 31.5745 32.3367 31.5745 32.8916C31.5745 33.4466 31.6613 33.9139 31.835 34.346C32.0086 34.778 32.2559 35.1512 32.5766 35.4624C32.8973 35.7741 33.2803 36.0153 33.7278 36.1842C34.1753 36.3531 34.6696 36.4366 35.2085 36.4366C36.9678 36.4366 38.068 35.6754 38.5088 34.1505C38.5223 34.1878 38.5333 34.2252 38.5467 34.26C38.7005 34.6701 38.9163 35.0233 39.1948 35.3176C39.7742 35.9289 40.5711 36.2577 41.4442 36.2523C42.0194 36.2585 42.5212 36.1228 42.9831 35.7916C43.1369 35.6841 43.297 35.5479 43.4617 35.3836V36.0198C43.4617 36.5133 43.3349 36.8993 43.0833 37.1757C42.8293 37.4522 42.4664 37.5904 41.9945 37.5904C41.4378 37.5904 41.0814 37.3687 40.9233 36.928H38.3824C38.449 37.292 38.5804 37.6277 38.781 37.9349C40.3587 40.4048 45.3976 39.8632 45.6555 36.6715C45.698 36.3776 45.7178 36.0439 45.7178 35.6712V30.1735L48.4235 35.2167L46.2454 39.4506H48.7729C50.5119 36.0613 52.2514 32.6696 53.9904 29.2803H51.3892C50.8123 30.4802 50.2334 31.6801 49.6569 32.8804H49.6531V32.8808ZM25.191 33.4117C24.9715 33.9475 24.4494 34.3426 23.8527 34.3331C23.0192 34.3538 22.3741 33.603 22.3964 32.802C22.3842 32.0113 23.0361 31.2921 23.8527 31.3103C24.9036 31.2833 25.604 32.5023 25.191 33.4117ZM34.3346 31.0883C34.555 30.8973 34.8377 30.8031 35.1875 30.8031C35.5372 30.8031 35.8023 30.9019 36.034 31.1015C36.2654 31.3012 36.4192 31.5643 36.495 31.8935H33.9183C33.976 31.5469 34.1163 31.2792 34.3346 31.0883ZM36.332 34.153C36.0825 34.5676 35.7129 34.776 35.2229 34.776C34.3097 34.776 33.8534 34.2692 33.8534 33.2556H38.3314C38.3558 33.5736 38.4161 33.872 38.5097 34.1509H36.3315V34.153H36.332ZM43.4558 33.3677C43.2397 33.9102 42.7167 34.304 42.1175 34.2957C41.2836 34.3165 40.6389 33.5657 40.6612 32.7646C40.6503 31.9798 41.3182 31.2622 42.1196 31.2597C42.9329 31.2547 43.592 31.9881 43.578 32.7779C43.578 32.9929 43.538 33.1838 43.4601 33.3681H43.4558V33.3677ZM59.1292 29.6933C58.8624 29.3596 58.4807 29.1882 58.0247 29.0989C58.2851 28.9408 58.4769 28.7478 58.6016 28.522C58.9509 27.9103 58.8296 26.7647 58.2965 26.3372C58.1141 26.1704 57.8823 26.05 57.6063 25.9753V24.9464H56.5861V25.8786H55.9381V24.9464H54.9183V25.8786H54.1189V32.7734H54.9183V33.7516H55.9381V32.7734H56.5861V33.7516H57.6063V32.736C57.7601 32.714 57.9068 32.6854 58.045 32.6439C59.3348 32.3463 59.8586 30.7405 59.1292 29.6933ZM57.2877 27.8526C57.2877 28.3593 56.9645 28.6117 56.3169 28.6117H55.9359V27.0914H56.3169C56.965 27.0914 57.2877 27.3437 57.2877 27.8505V27.8526ZM57.3189 31.209C57.0943 31.3767 56.3636 31.3954 55.9359 31.3825V29.9195C56.3645 29.9066 57.0935 29.9249 57.3189 30.093C57.715 30.2968 57.7175 31.0053 57.3189 31.209Z" fill="#FA660F"/>
</g>
<defs>
<clipPath id="clip0_208_853">
<rect width="56" height="16" fill="white" transform="translate(4 24)"/>
</clipPath>
</defs>
</svg>
