<svg width="64" height="64" viewBox="0 0 64 64" fill="none" xmlns="http://www.w3.org/2000/svg">
<g clip-path="url(#clip0_208_748)">
<path d="M13.1502 38.0976C12.3679 38.2344 11.5719 38.2755 10.7485 38.3847L8.23696 31.0567V38.6993C7.45473 38.7813 6.7411 38.8906 6 39V25H8.08609L10.9406 32.9435V25H13.1502V38.0976ZM17.4732 30.127C18.3242 30.127 19.6279 30.0859 20.4101 30.0859V32.2734C19.4357 32.2734 18.2967 32.2734 17.4732 32.3144V35.5684C18.7633 35.4864 20.0534 35.3769 21.3571 35.3359V37.4412L15.2773 37.9198V25H21.3571V27.1875H17.4732V30.127ZM29.5228 27.1876H27.2446V37.25C26.5035 37.25 25.7624 37.25 25.0489 37.2773V27.1876H22.7708V25H29.5229L29.5228 27.1876ZM33.091 29.9766H36.0966V32.1641H33.091V37.127H30.9362V25H37.071V27.1875H33.091V29.9766ZM40.6392 35.2129C41.8881 35.2402 43.1506 35.336 44.3721 35.4043V37.5644C42.4096 37.4413 40.4471 37.3184 38.4434 37.2773V25H40.6392V35.2129ZM46.2248 37.7148C46.9247 37.7559 47.6658 37.797 48.3794 37.8789V25H46.2248V37.7148ZM58 25L55.214 31.6582L58 39C57.1765 38.8906 56.3531 38.7402 55.5296 38.6035L53.9514 34.5567L52.3459 38.2755C51.5497 38.1386 50.7812 38.0976 49.9853 37.9882L52.8124 31.5761L50.2597 25H52.6201L54.0612 28.6777L55.5983 25H58Z" fill="#D81F26"/>
</g>
<defs>
<clipPath id="clip0_208_748">
<rect width="52" height="14" fill="white" transform="translate(6 25)"/>
</clipPath>
</defs>
</svg>
