<svg version="1.1" id="Layer_1" xmlns="http://www.w3.org/2000/svg" xmlns:xlink="http://www.w3.org/1999/xlink" x="0px" y="0px" viewBox="0 0 63.5 47.3" style="enable-background:new 0 0 63.5 47.3;" xml:space="preserve">
 <style type="text/css">
  .st0{clip-path:url(#SVGID_2_);}
	.st1{fill:#0074C2;}
	.st2{clip-path:url(#SVGID_4_);}
	.st3{clip-path:url(#SVGID_6_);}
	.st4{clip-path:url(#SVGID_8_);}
	.st5{clip-path:url(#SVGID_10_);}
	.st6{clip-path:url(#SVGID_12_);}
	.st7{clip-path:url(#SVGID_14_);}
	.st8{clip-path:url(#SVGID_16_);}
	.st9{clip-path:url(#SVGID_18_);}
	.st10{clip-path:url(#SVGID_20_);}
	.st11{clip-path:url(#SVGID_22_);}
	.st12{clip-path:url(#SVGID_24_);}
	.st13{clip-path:url(#SVGID_26_);}
	.st14{clip-path:url(#SVGID_28_);}
	.st15{clip-path:url(#SVGID_30_);}
	.st16{clip-path:url(#SVGID_32_);}
	.st17{clip-path:url(#SVGID_34_);}
	.st18{clip-path:url(#SVGID_36_);}
	.st19{clip-path:url(#SVGID_38_);}
	.st20{clip-path:url(#SVGID_40_);}
	.st21{clip-path:url(#SVGID_42_);}
	.st22{clip-path:url(#SVGID_44_);}
	.st23{clip-path:url(#SVGID_46_);}
	.st24{clip-path:url(#SVGID_48_);}
	.st25{clip-path:url(#SVGID_50_);}
	.st26{clip-path:url(#SVGID_52_);}
	.st27{clip-path:url(#SVGID_54_);}
	.st28{clip-path:url(#SVGID_56_);}
	.st29{clip-path:url(#SVGID_58_);}
	.st30{clip-path:url(#SVGID_60_);}
	.st31{clip-path:url(#SVGID_62_);}
	.st32{clip-path:url(#SVGID_64_);}
	.st33{clip-path:url(#SVGID_66_);}
	.st34{clip-path:url(#SVGID_68_);}
	.st35{clip-path:url(#SVGID_70_);}
 </style>
 <g id="Group_2219" transform="translate(-64.229 -353.114)">
  <g id="Group_2279" transform="translate(90.711 369.108)">
   <g>
    <defs>
     <path id="SVGID_1_" d="M1.9,8.2C2,8.2,2.2,8.1,2.4,8C2.9,7.8,3,7.4,3.2,4.9c0.1-2-0.3-2.8-0.6-3C2.5,1.8,2.4,1.7,2.2,1.7l0,0
					c-0.3,0-0.4,0.4-0.4,0.8c0,0.4,0,4.1-0.1,4.9C1.7,7.9,1.8,8.1,1.9,8.2">
     </path>
    </defs>
    <clipPath id="SVGID_2_">
     <use href="#SVGID_1_" style="overflow:visible;">
     </use>
    </clipPath>
    <g id="Group_2278" class="st0">
     <rect id="Rectangle_5249" x="0" y="0" class="st1" width="4.9" height="9.9">
     </rect>
    </g>
   </g>
  </g>
  <g id="Group_2281" transform="translate(80.758 392.929)">
   <g>
    <defs>
     <rect id="SVGID_3_" x="2" y="1.7" transform="matrix(0.9576 -0.2883 0.2883 0.9576 -0.6945 0.754)" width="0.4" height="2">
     </rect>
    </defs>
    <clipPath id="SVGID_4_">
     <use xlink:href="#SVGID_3_" style="overflow:visible;">
     </use>
    </clipPath>
    <g id="Group_2280" transform="translate(0 0)" class="st2">
     <rect id="Rectangle_5250" x="0" y="0" class="st1" width="4.4" height="5.5">
     </rect>
    </g>
   </g>
  </g>
  <g id="Group_2283" transform="translate(81.999 392.297)">
   <g>
    <defs>
     <polygon id="SVGID_5_" points="1.7,2.1 2.1,2 3.2,3.2 2.9,1.8 3.3,1.7 3.8,3.6 3.4,3.7 2.2,2.6 2.6,3.9 2.2,4 				">
     </polygon>
    </defs>
    <clipPath id="SVGID_6_">
     <use xlink:href="#SVGID_5_" style="overflow:visible;">
     </use>
    </clipPath>
    <g id="Group_2282" class="st3">
     <rect id="Rectangle_5252" x="0" y="0" class="st1" width="5.5" height="5.8">
     </rect>
    </g>
   </g>
  </g>
  <g id="Group_2285" transform="translate(84.264 391.817)">
   <g>
    <defs>
     <polygon id="SVGID_7_" points="3.3,1.7 3.4,2.1 2.8,2.2 3.1,3.8 2.7,3.9 2.4,2.3 1.8,2.4 1.7,2 				">
     </polygon>
    </defs>
    <clipPath id="SVGID_8_">
     <use xlink:href="#SVGID_7_" style="overflow:visible;">
     </use>
    </clipPath>
    <g id="Group_2284" transform="translate(0 0)" class="st4">
     <rect id="Rectangle_5253" x="0" y="0" class="st1" width="5.1" height="5.6">
     </rect>
    </g>
   </g>
  </g>
  <g id="Group_2287" transform="translate(86.582 391.474)">
   <g>
    <defs>
     <polygon id="SVGID_9_" points="3.2,2.1 2.2,2.2 2.2,2.6 3.2,2.5 3.2,2.8 2.3,3 2.4,3.5 3.4,3.3 3.5,3.7 2,3.9 1.7,1.9 3.1,1.7 
									">
     </polygon>
    </defs>
    <clipPath id="SVGID_10_">
     <use xlink:href="#SVGID_9_" style="overflow:visible;">
     </use>
    </clipPath>
    <g id="Group_2286" class="st5">
     <rect id="Rectangle_5254" x="0" y="0" class="st1" width="5.2" height="5.6">
     </rect>
    </g>
   </g>
  </g>
  <g id="Group_2289" transform="translate(88.869 391.268)">
   <g>
    <defs>
     <path id="SVGID_11_" d="M3,1.8c0.1,0,0.1,0.1,0.2,0.1c0,0,0.1,0.1,0.1,0.2c0,0.1,0.1,0.1,0.1,0.2c0,0.1,0,0.2,0,0.3
					c0,0.1-0.1,0.2-0.2,0.2c0.1,0,0.2,0.1,0.2,0.1C3.3,3,3.4,3.1,3.4,3.2l0,0.1c0,0.1,0,0.1,0,0.2c0,0,0,0.1,0.1,0.1v0l-0.4,0
					c0,0,0-0.1,0-0.1c0-0.1,0-0.1,0-0.2l0-0.2c0-0.1,0-0.2-0.1-0.2c-0.1,0-0.2-0.1-0.2,0L2.2,3l0.1,0.8l-0.4,0l-0.2-2l0.9-0.1
					C2.8,1.7,2.9,1.7,3,1.8z M2.2,2.1l0.1,0.5l0.4,0c0.1,0,0.1,0,0.2-0.1c0.1,0,0.1-0.1,0.1-0.2c0-0.1-0.1-0.2-0.1-0.2
					c-0.1,0-0.1,0-0.2,0L2.2,2.1z">
     </path>
    </defs>
    <clipPath id="SVGID_12_">
     <use xlink:href="#SVGID_11_" style="overflow:visible;">
     </use>
    </clipPath>
    <g id="Group_2288" transform="translate(0 0)" class="st6">
     <rect id="Rectangle_5255" x="0" y="0" class="st1" width="5.2" height="5.5">
     </rect>
    </g>
   </g>
  </g>
  <g id="Group_2291" transform="translate(91.311 391.076)">
   <g>
    <defs>
     <polygon id="SVGID_13_" points="1.7,1.8 2.2,1.8 3,3.1 2.9,1.8 3.3,1.7 3.4,3.7 3,3.7 2.1,2.4 2.2,3.8 1.8,3.8 				">
     </polygon>
    </defs>
    <clipPath id="SVGID_14_">
     <use xlink:href="#SVGID_13_" style="overflow:visible;">
     </use>
    </clipPath>
    <g id="Group_2290" class="st7">
     <rect id="Rectangle_5256" x="0" y="0" class="st1" width="5.1" height="5.5">
     </rect>
    </g>
   </g>
  </g>
  <g id="Group_2293" transform="translate(93.625 391.062)">
   <g>
    <defs>
     <path id="SVGID_15_" d="M2.4,1.7h0.5l0.7,2H3.2L3,3.3l-0.7,0L2.2,3.7H1.7L2.4,1.7z M2.4,3h0.5L2.7,2.2L2.4,3z">
     </path>
    </defs>
    <clipPath id="SVGID_16_">
     <use xlink:href="#SVGID_15_" style="overflow:visible;">
     </use>
    </clipPath>
    <g id="Group_2292" transform="translate(0 0)" class="st8">
     <rect id="Rectangle_5257" x="0" y="0" class="st1" width="5.3" height="5.4">
     </rect>
    </g>
   </g>
  </g>
  <g id="Group_2295" transform="translate(95.858 391.084)">
   <g>
    <defs>
     <polygon id="SVGID_17_" points="3.3,1.8 3.3,2.2 2.7,2.1 2.7,3.7 2.2,3.7 2.3,2.1 1.7,2.1 1.7,1.7 				">
     </polygon>
    </defs>
    <clipPath id="SVGID_18_">
     <use xlink:href="#SVGID_17_" style="overflow:visible;">
     </use>
    </clipPath>
    <g id="Group_2294" transform="translate(0)" class="st9">
     <rect id="Rectangle_5258" x="0" y="0" class="st1" width="5.1" height="5.5">
     </rect>
    </g>
   </g>
  </g>
  <g id="Group_2297" transform="translate(97.971 391.219)">
   <g>
    <defs>
     <rect id="SVGID_19_" x="1" y="2.5" transform="matrix(8.999479e-02 -0.9959 0.9959 8.999479e-02 -0.8783 4.5028)" width="2" height="0.4">
     </rect>
    </defs>
    <clipPath id="SVGID_20_">
     <use xlink:href="#SVGID_19_" style="overflow:visible;">
     </use>
    </clipPath>
    <g id="Group_2296" transform="translate(0 0)" class="st10">
     <rect id="Rectangle_5259" x="0" y="0" class="st1" width="4" height="5.5">
     </rect>
    </g>
   </g>
  </g>
  <g id="Group_2299" transform="translate(99.21 391.374)">
   <g>
    <defs>
     <path id="SVGID_21_" d="M3.2,3.7C2.8,3.9,2.3,3.9,1.9,3.5C1.8,3.3,1.7,3,1.7,2.7c0-0.3,0.2-0.6,0.4-0.8c0.4-0.3,0.9-0.2,1.3,0.2
					c0.2,0.2,0.2,0.5,0.2,0.8C3.6,3.2,3.4,3.5,3.2,3.7 M3,3.3C3.1,3.2,3.2,3,3.2,2.8c0-0.2,0-0.4-0.1-0.5C3,2.1,2.7,2,2.4,2.2
					c0,0,0,0-0.1,0.1C2.2,2.4,2.2,2.5,2.2,2.7c0,0.2,0,0.4,0.1,0.5C2.4,3.5,2.7,3.5,3,3.3C2.9,3.4,3,3.4,3,3.3">
     </path>
    </defs>
    <clipPath id="SVGID_22_">
     <use xlink:href="#SVGID_21_" style="overflow:visible;">
     </use>
    </clipPath>
    <g id="Group_2298" transform="translate(0 0)" class="st11">
     <rect id="Rectangle_5261" x="0" y="0" class="st1" width="5.4" height="5.6">
     </rect>
    </g>
   </g>
  </g>
  <g id="Group_2301" transform="translate(101.671 391.696)">
   <g>
    <defs>
     <polygon id="SVGID_23_" points="2.1,1.7 2.5,1.8 3,3.3 3.3,2 3.6,2 3.3,4 2.9,3.9 2.4,2.4 2.1,3.7 1.7,3.7 				">
     </polygon>
    </defs>
    <clipPath id="SVGID_24_">
     <use xlink:href="#SVGID_23_" style="overflow:visible;">
     </use>
    </clipPath>
    <g id="Group_2300" class="st12">
     <rect id="Rectangle_5262" x="0" y="0" class="st1" width="5.4" height="5.7">
     </rect>
    </g>
   </g>
  </g>
  <g id="Group_2303" transform="translate(103.866 392.304)">
   <g>
    <defs>
     <path id="SVGID_25_" d="M2.9,1.7l0.5,0.1l0.2,2.1L3.1,3.8l0-0.4L2.4,3.2L2.2,3.6L1.7,3.5L2.9,1.7z M2.6,2.9L3.1,3L3,2.2L2.6,2.9
					z">
     </path>
    </defs>
    <clipPath id="SVGID_26_">
     <use xlink:href="#SVGID_25_" style="overflow:visible;">
     </use>
    </clipPath>
    <g id="Group_2302" transform="translate(0)" class="st13">
     <rect id="Rectangle_5263" x="0" y="0" class="st1" width="5.3" height="5.7">
     </rect>
    </g>
   </g>
  </g>
  <g id="Group_2305" transform="translate(106.306 392.775)">
   <g>
    <defs>
     <polygon id="SVGID_27_" points="2.3,1.7 2.7,1.8 2.2,3.4 3.2,3.7 3.1,4 1.7,3.6 				">
     </polygon>
    </defs>
    <clipPath id="SVGID_28_">
     <use xlink:href="#SVGID_27_" style="overflow:visible;">
     </use>
    </clipPath>
    <g id="Group_2304" transform="translate(0 0)" class="st14">
     <rect id="Rectangle_5264" x="0" y="0" class="st1" width="4.9" height="5.7">
     </rect>
    </g>
   </g>
  </g>
  <g id="Group_2307" transform="translate(80.08 390.289)">
   <g>
    <defs>
     <path id="SVGID_29_" d="M3.3,2.7C3.2,2.9,3,3,2.9,3L2.5,3.1l0.2,0.7L2.3,3.9L1.7,2l0.8-0.2c0.2-0.1,0.3-0.1,0.5,0
					C3.2,1.9,3.3,2,3.3,2.2C3.4,2.4,3.4,2.5,3.3,2.7 M2.8,2.1c-0.1,0-0.2,0-0.2,0L2.2,2.2l0.2,0.6l0.3-0.1c0.1,0,0.1-0.1,0.2-0.1
					c0-0.1,0-0.2,0-0.2C2.9,2.2,2.9,2.2,2.8,2.1">
     </path>
    </defs>
    <clipPath id="SVGID_30_">
     <use xlink:href="#SVGID_29_" style="overflow:visible;">
     </use>
    </clipPath>
    <g id="Group_2306" transform="translate(0 0)" class="st15">
     <rect id="Rectangle_5265" x="0" y="0" class="st1" width="5.1" height="5.6">
     </rect>
    </g>
   </g>
  </g>
  <g id="Group_2309" transform="translate(82.566 389.508)">
   <g>
    <defs>
     <polygon id="SVGID_31_" points="2.2,4 1.7,2.1 2.1,2 2.3,2.7 3,2.6 2.9,1.8 3.3,1.7 3.7,3.6 3.3,3.7 3.1,2.9 2.4,3.1 2.6,3.9 
									">
     </polygon>
    </defs>
    <clipPath id="SVGID_32_">
     <use xlink:href="#SVGID_31_" style="overflow:visible;">
     </use>
    </clipPath>
    <g id="Group_2308" transform="translate(0 0)" class="st16">
     <rect id="Rectangle_5266" x="0" y="0" class="st1" width="5.4" height="5.7">
     </rect>
    </g>
   </g>
  </g>
  <g id="Group_2311" transform="translate(85.228 389.213)">
   <g>
    <defs>
     <rect id="SVGID_33_" x="1.9" y="1.8" transform="matrix(0.9842 -0.177 0.177 0.9842 -0.4514 0.4165)" width="0.4" height="2">
     </rect>
    </defs>
    <clipPath id="SVGID_34_">
     <use xlink:href="#SVGID_33_" style="overflow:visible;">
     </use>
    </clipPath>
    <g id="Group_2310" transform="translate(0 0)" class="st17">
     <rect id="Rectangle_5267" x="0" y="0" class="st1" width="4.2" height="5.5">
     </rect>
    </g>
   </g>
  </g>
  <g id="Group_2313" transform="translate(86.76 388.956)">
   <g>
    <defs>
     <polygon id="SVGID_35_" points="1.7,1.8 2.1,1.7 2.4,3.3 3.3,3.2 3.4,3.5 2,3.7 				">
     </polygon>
    </defs>
    <clipPath id="SVGID_36_">
     <use xlink:href="#SVGID_35_" style="overflow:visible;">
     </use>
    </clipPath>
    <g id="Group_2312" class="st18">
     <rect id="Rectangle_5269" x="0" y="0" class="st1" width="5.1" height="5.5">
     </rect>
    </g>
   </g>
  </g>
  <g id="Group_2315" transform="translate(89.152 388.665)">
   <g>
    <defs>
     <rect id="SVGID_37_" x="1.8" y="1.7" transform="matrix(0.995 -9.946705e-02 9.946705e-02 0.995 -0.262 0.2163)" width="0.4" height="2">
     </rect>
    </defs>
    <clipPath id="SVGID_38_">
     <use xlink:href="#SVGID_37_" style="overflow:visible;">
     </use>
    </clipPath>
    <g id="Group_2314" transform="translate(0)" class="st19">
     <rect id="Rectangle_5270" x="0" y="0" class="st1" width="4.1" height="5.5">
     </rect>
    </g>
   </g>
  </g>
  <g id="Group_2317" transform="translate(90.726 388.511)">
   <g>
    <defs>
     <path id="SVGID_39_" d="M3.1,2.8C3,2.9,2.8,3,2.6,3L2.2,3l0,0.7l-0.4,0l-0.1-2l0.8,0c0.2,0,0.3,0,0.5,0.1C3.2,2,3.3,2.1,3.2,2.3
					C3.3,2.5,3.2,2.7,3.1,2.8 M2.7,2.1c-0.1,0-0.1-0.1-0.2-0.1l-0.4,0l0,0.6l0.4,0c0.1,0,0.2,0,0.2-0.1c0.1-0.1,0.1-0.1,0.1-0.2
					C2.8,2.3,2.8,2.2,2.7,2.1">
     </path>
    </defs>
    <clipPath id="SVGID_40_">
     <use xlink:href="#SVGID_39_" style="overflow:visible;">
     </use>
    </clipPath>
    <g id="Group_2316" transform="translate(0 0)" class="st20">
     <rect id="Rectangle_5271" x="0" y="0" class="st1" width="5" height="5.5">
     </rect>
    </g>
   </g>
  </g>
  <g id="Group_2319" transform="translate(94.729 388.431)">
   <g>
    <defs>
     <path id="SVGID_41_" d="M3.1,1.8l0.6,0l-0.1,2l-0.4,0l0-1.3c0,0,0-0.1,0-0.2s0-0.1,0-0.2L2.9,3.7l-0.4,0L2.2,2.1
					c0,0,0,0.1,0,0.2s0,0.1,0,0.2l0,1.3l-0.4,0l0.1-2l0.6,0l0.3,1.6L3.1,1.8z">
     </path>
    </defs>
    <clipPath id="SVGID_42_">
     <use xlink:href="#SVGID_41_" style="overflow:visible;">
     </use>
    </clipPath>
    <g id="Group_2318" transform="translate(0 0)" class="st21">
     <rect id="Rectangle_5272" y="0" class="st1" width="5.4" height="5.5">
     </rect>
    </g>
   </g>
  </g>
  <g id="Group_2321" transform="translate(97.684 388.574)">
   <g>
    <defs>
     <path id="SVGID_43_" d="M3.2,3.6C2.8,3.9,2.3,3.9,2,3.5C1.8,3.3,1.7,3,1.7,2.7c0-0.3,0.1-0.6,0.4-0.8c0.2-0.1,0.4-0.2,0.7-0.2
					C3,1.7,3.2,1.8,3.4,2c0.2,0.2,0.3,0.5,0.2,0.8C3.6,3.2,3.5,3.4,3.2,3.6 M3,3.3c0.2-0.3,0.3-0.7,0.1-1C3,2.2,2.9,2.1,2.7,2.1
					c-0.1,0-0.3,0-0.4,0.1C2.2,2.4,2.2,2.5,2.2,2.7c0,0.2,0,0.4,0.1,0.5C2.4,3.5,2.7,3.5,3,3.3C3,3.4,3,3.3,3,3.3">
     </path>
    </defs>
    <clipPath id="SVGID_44_">
     <use xlink:href="#SVGID_43_" style="overflow:visible;">
     </use>
    </clipPath>
    <g id="Group_2320" transform="translate(0 0)" class="st22">
     <rect id="Rectangle_5273" x="0" y="0" class="st1" width="5.4" height="5.5">
     </rect>
    </g>
   </g>
  </g>
  <g id="Group_2323" transform="translate(100.461 388.867)">
   <g>
    <defs>
     <path id="SVGID_45_" d="M3.3,2c0.1,0,0.1,0.1,0.2,0.2c0,0.1,0.1,0.1,0.1,0.2c0,0.1,0,0.1,0,0.2c0,0.1-0.1,0.2-0.1,0.3
					C3.3,2.9,3.2,2.9,3.1,2.9C3.2,3,3.3,3,3.3,3.1c0,0.1,0,0.2,0,0.3l0,0.1c0,0.1,0,0.1,0,0.2c0,0,0,0.1,0.1,0.1l0,0L2.9,3.9
					c0,0,0-0.1,0-0.1c0-0.1,0-0.1,0-0.2l0-0.2c0-0.1,0-0.2,0-0.3C2.8,3.1,2.7,3,2.6,3L2.2,3L2.1,3.7L1.7,3.7L2,1.7L3,1.9
					C3.1,1.9,3.2,1.9,3.3,2z M2.4,2.1L2.3,2.7l0.4,0.1c0.1,0,0.1,0,0.2,0c0.1,0,0.1-0.1,0.1-0.2c0-0.1,0-0.2-0.1-0.3
					C3,2.2,2.9,2.2,2.8,2.2L2.4,2.1z">
     </path>
    </defs>
    <clipPath id="SVGID_46_">
     <use xlink:href="#SVGID_45_" style="overflow:visible;">
     </use>
    </clipPath>
    <g id="Group_2322" transform="translate(0 0)" class="st23">
     <rect id="Rectangle_5274" x="0" y="0" class="st1" width="5.2" height="5.6">
     </rect>
    </g>
   </g>
  </g>
  <g id="Group_2325" transform="translate(103.075 389.315)">
   <g>
    <defs>
     <path id="SVGID_47_" d="M3.4,2c0.1,0,0.1,0.1,0.2,0.2c0,0.1,0.1,0.1,0.1,0.2c0,0.2,0,0.3-0.1,0.5C3.4,2.9,3.3,3,3.2,3
					c0.1,0,0.1,0.1,0.2,0.2c0,0.1,0,0.2,0,0.3l0,0.1c0,0.1,0,0.1,0,0.2c0,0,0,0.1,0,0.1l0,0L2.9,3.9c0,0,0-0.1,0-0.1
					c0-0.1,0-0.1,0-0.2l0-0.2c0-0.1,0-0.2,0-0.3C2.8,3.1,2.8,3.1,2.7,3.1L2.3,3L2.1,3.7L1.7,3.7l0.4-1.9l0.9,0.2
					C3.2,1.9,3.3,2,3.4,2z M2.5,2.2L2.4,2.7l0.4,0.1c0.1,0,0.1,0,0.2,0c0.1,0,0.2-0.1,0.2-0.2c0-0.1,0-0.2-0.1-0.3
					C3,2.3,3,2.3,2.9,2.2L2.5,2.2z">
     </path>
    </defs>
    <clipPath id="SVGID_48_">
     <use xlink:href="#SVGID_47_" style="overflow:visible;">
     </use>
    </clipPath>
    <g id="Group_2324" transform="translate(0)" class="st24">
     <rect id="Rectangle_5275" x="0" y="0" class="st1" width="5.3" height="5.7">
     </rect>
    </g>
   </g>
  </g>
  <g id="Group_2327" transform="translate(105.617 389.908)">
   <g>
    <defs>
     <polygon id="SVGID_49_" points="2.1,3.7 1.7,3.6 2.2,1.7 2.6,1.8 				">
     </polygon>
    </defs>
    <clipPath id="SVGID_50_">
     <use xlink:href="#SVGID_49_" style="overflow:visible;">
     </use>
    </clipPath>
    <g id="Group_2326" transform="translate(0 0)" class="st25">
     <rect id="Rectangle_5276" x="0" y="0" class="st1" width="4.4" height="5.5">
     </rect>
    </g>
   </g>
  </g>
  <g id="Group_2329" transform="translate(107.096 390.405)">
   <g>
    <defs>
     <path id="SVGID_51_" d="M2.1,3c0,0.1,0,0.1,0,0.2c0.1,0.1,0.2,0.2,0.3,0.2c0.1,0,0.2,0,0.2,0c0.1,0,0.2-0.1,0.2-0.2
					c0-0.1,0-0.1,0-0.2C2.8,3.1,2.7,3,2.6,3L2.5,2.9C2.3,2.8,2.2,2.7,2.1,2.6C2,2.5,2,2.3,2,2.2c0-0.2,0.2-0.3,0.3-0.4
					c0.2-0.1,0.4-0.1,0.6,0C3.1,1.8,3.3,2,3.4,2.1c0.1,0.2,0.1,0.3,0.1,0.5L3.1,2.5c0-0.1,0-0.2-0.1-0.3C3,2.2,2.9,2.1,2.8,2.1
					c-0.1,0-0.2,0-0.3,0c-0.1,0-0.1,0.1-0.1,0.1c0,0.1,0,0.1,0,0.2c0.1,0.1,0.1,0.1,0.2,0.2L3,2.7C3.1,2.8,3.2,2.9,3.3,3
					c0.1,0.1,0.1,0.3,0.1,0.4c0,0.2-0.2,0.3-0.3,0.4c-0.2,0.1-0.4,0.1-0.6,0C2.2,3.7,2,3.6,1.8,3.4C1.7,3.3,1.7,3.1,1.8,2.9L2.1,3z">
     </path>
    </defs>
    <clipPath id="SVGID_52_">
     <use xlink:href="#SVGID_51_" style="overflow:visible;">
     </use>
    </clipPath>
    <g id="Group_2328" transform="translate(0 0)" class="st26">
     <rect id="Rectangle_5277" x="0" y="0" class="st1" width="5.2" height="5.6">
     </rect>
    </g>
   </g>
  </g>
  <g id="Group_2331" transform="translate(86.337 365.698)">
   <g>
    <defs>
     <path id="SVGID_53_" d="M9.7,20.8L9.7,20.8c4.4,0,7.9-4.3,7.9-9.6s-3.6-9.6-7.9-9.6h0c-4.4,0-7.9,4.3-7.9,9.6S5.3,20.8,9.7,20.8
					 M9.7,2.2c4.1,0,7.5,4.1,7.5,9.1s-3.4,9.1-7.5,9.1s-7.5-4.1-7.5-9.1S5.5,2.2,9.7,2.2">
     </path>
    </defs>
    <clipPath id="SVGID_54_">
     <use xlink:href="#SVGID_53_" style="overflow:visible;">
     </use>
    </clipPath>
    <g id="Group_2330" transform="translate(0 0)" class="st27">
     <rect id="Rectangle_5278" x="0" y="0" class="st1" width="19.4" height="22.6">
     </rect>
    </g>
   </g>
  </g>
  <g id="Group_2333" transform="translate(86.798 366.159)">
   <g>
    <defs>
     <path id="SVGID_55_" d="M4,15.9C4,16,3.9,16,3.9,16c0,0,0,0,0-0.1c0,0,0-0.1,0-0.1c0.4-2.4,0.6-4.8,0.5-7.2c0-1.1,0-2-0.1-2.4
					c0-0.1,0-0.2,0-0.3c0-0.3,0.1-0.4,0.3-0.5l0,0c0.2,0,0.4-0.2,0.5-0.3c0.2-0.5,0.6-0.8,1.1-0.8c0.4,0,2.1,0.6,2.1,3.6
					c0.2,1.6-0.8,3.2-2.3,3.7l0,0c-0.2,0.1-0.2,0.3-0.2,0.4l0,0C5.5,14.8,4.4,15.7,4,15.9 M9.3,5.2c0-0.1,0-0.2,0-0.2s0.1,0,0.1,0.2
					l0,0.1c0.7,1.4,1.3,2.9,1.7,4.5c0,0,0,0.1,0,0.1c0,0,0-0.1,0-0.1c0.5-1.6,1.1-3.1,1.8-4.6c0.1-0.2,0.2-0.2,0.2-0.2s0,0.1,0,0.2
					l0,0.1c-0.3,3.6,0,7.3,1,10.7c0.1,0.2,0,0.2,0,0.2s-0.1,0-0.2-0.1c0,0,0,0,0,0c-1.5-1-2.2-4.1-2.2-4.3c0-0.1,0-0.1,0-0.1
					c0,0,0,0,0,0c-0.1,0.4-0.5,2-0.7,3c-0.1,0.5-0.2,0.8-0.2,0.9l0,0.1c0,0.1,0,0.1-0.1,0.1s0,0-0.1-0.2s-0.3-1.3-0.6-2.2
					C10.1,12.5,10,12,10,11.9c0,0,0-0.1,0-0.1c0,0,0,0,0,0l-0.2,0.6c-0.2,1.3-0.9,2.4-1.9,3.3c-0.3,0.2-0.3,0.2-0.3,0.2
					s0-0.1,0.1-0.2C9.1,12.3,9.7,8.7,9.3,5.2 M9.2,19.9c4.1,0,7.5-4.1,7.5-9.1s-3.4-9.1-7.5-9.1s-7.5,4.1-7.5,9.1S5.1,19.9,9.2,19.9
					">
     </path>
    </defs>
    <clipPath id="SVGID_56_">
     <use xlink:href="#SVGID_55_" style="overflow:visible;">
     </use>
    </clipPath>
    <g id="Group_2332" transform="translate(0 0)" class="st28">
     <rect id="Rectangle_5279" x="0" y="0" class="st1" width="18.4" height="21.6">
     </rect>
    </g>
   </g>
  </g>
  <g id="Group_2335" transform="translate(93.389 354.997)">
   <g>
    <defs>
     <path id="SVGID_57_" d="M2.2,2.6c0-0.2,0.2-0.4,0.4-0.4S3,2.4,3,2.6C2.9,2.8,2.8,3,2.6,3C2.4,3,2.2,2.8,2.2,2.6 M3.4,2.6
					c0-0.5-0.4-0.8-0.8-0.8c-0.5,0-0.8,0.4-0.8,0.8c0,0.5,0.4,0.8,0.8,0.8c0,0,0,0,0,0C3,3.4,3.4,3,3.4,2.6">
     </path>
    </defs>
    <clipPath id="SVGID_58_">
     <use xlink:href="#SVGID_57_" style="overflow:visible;">
     </use>
    </clipPath>
    <g id="Group_2334" transform="translate(0 0)" class="st29">
     <rect id="Rectangle_5280" x="0" y="0" class="st1" width="5.1" height="5.1">
     </rect>
    </g>
   </g>
  </g>
  <g id="Group_2344" transform="translate(64.229 353.113)">
   <g>
    <defs>
     <rect id="SVGID_59_" x="1.7" y="1.7" width="60" height="43.9">
     </rect>
    </defs>
    <clipPath id="SVGID_60_">
     <use xlink:href="#SVGID_59_" style="overflow:visible;">
     </use>
    </clipPath>
    <g id="Group_2343" transform="translate(0)" class="st30">
     <g id="Group_2342" transform="translate(0)">
      <g id="Group_2341">
       <g>
        <defs>
         <rect id="SVGID_61_" x="1.7" y="1.7" width="60.2" height="44">
         </rect>
        </defs>
        <clipPath id="SVGID_62_">
         <use xlink:href="#SVGID_61_" style="overflow:visible;">
         </use>
        </clipPath>
        <g id="Group_2340" class="st31">
         <g id="Group_2339" transform="translate(0 0)">
          <g>
           <defs>
            <path id="SVGID_63_" d="M61.2,17.7c0,0,0.1,0.1,0.1,0.1c0,0,0,0,0,0c0,0.1-0.1,0.1-0.3,0.2c-0.2,0.1-0.5,0.1-0.7-0.1l0,0
												l-0.1,0c-0.8-0.3-0.5-0.2-0.7,0.6c0,0.1,0,0.2,0,0.3c-0.1,0.6-0.2,1.1-0.4,1.7L59,20.8c0,0,0,0,0,0
												c-0.1-0.1-0.2-0.2-0.3-0.3l-0.2-0.2c-0.7-0.6-1.2-1.4-1.4-2.3c0-0.3,0.1-0.6,0.3-0.8c0.1-0.1,0.2-0.2,0.3-0.4
												c0,0,0,0,0,0c0-0.3-0.3-0.4-0.5-0.5l-0.1,0c-0.7-0.3-1.5-0.3-2.3,0c-0.7,0.4-1.2,1.1-1.3,2v0c-0.3,1.3,0.2,2.6,1.3,3.4
												c-0.1,0.2-0.1,0.3-0.2,0.5c0,0.1-0.1,0.3-0.1,0.4c0,0.2-0.1,0.3-0.1,0.5c-0.5-0.7-1.1-1.8-1.3-2.1
												c-0.7-1.2-0.7-2.7-0.2-4c0.3-0.6,0.8-1.1,1.5-1.3c0.6-0.3,1.3-0.3,2-0.1c0.3,0.2,0.7,0.3,1.1,0.3c0.4,0,0.8,0,1.1-0.2
												c0.2-0.1,0.4-0.1,0.6-0.1c0.3,0.1,0.6,0.2,0.8,0.3c0.2,0.1,0.3,0.1,0.5,0.2c0.1,0,0.2,0,0.3,0c0.1,0,0.3,0,0.4,0l0,0
												c0,0.1-0.1,0.2-0.1,0.3h0v0c-0.1,0.2-0.2,0.5-0.2,0.7C60.9,17.2,61,17.5,61.2,17.7z M60.5,19.9c-0.3,0.6-0.5,1.3-0.5,2
												c0,0.3,0.2,0.6,0.4,0.7c0,0,0,0.1,0,0.1c0,0-0.2,0.1-0.2,0.1c-0.2,0.1-0.4,0.2-0.7,0.2c-0.2,0-0.3,0-0.4-0.2
												c-0.4-0.5-0.6-1.2-0.6-1.8c0.3,0.3,0.5,0.4,0.7,0.4c0.2-0.1,0.3-0.3,0.3-0.5l0-0.2c0.2-0.6,0.3-1.2,0.4-1.8
												c0-0.2,0-0.3,0.1-0.5c0,0,0,0,0,0l0,0c0,0,0.1,0,0.2,0.1c0.2,0.3,0.3,0.7,0.3,1.1C60.6,19.6,60.5,19.8,60.5,19.9
												L60.5,19.9z M55.1,22.5c0.1-0.2,0.1-0.3,0.1-0.4c0.1-0.4,0.3-0.7,0.6-1c0,0,0,0,0,0c0,0,0,0.1,0,0.1l0,0.2
												c0.1,0.3,0.2,0.6,0.3,0.8c0.2,0.6,0.2,0.7,0.9,0.4l0.2-0.1c0,0,0,0,0,0c0,0.1,0,0.1,0,0.2v0c0,0.2,0.3,1.2,0.3,1.5
												c0.2,0.9,0,0.8,0.7,0.5c0.5-0.2,0.8-0.2,0.8-0.1c0.2,0.3-0.7,1.7-1.1,2.1c-0.3,0.3-0.5,0.7-0.7,1.1l0,0.1
												c-0.2,0.4-0.4,0.8-0.7,1.2c-0.8,1.1-2.3,1.4-3.5,0.7l-0.1,0c0.1-0.3,0.2-0.6,0.2-1c0.4,0.3,0.9,0.5,1.4,0.5
												c1.2-0.1,2.1-1.1,2.1-2.3c0-0.9-0.8-1.7-1.7-1.7c-0.4,0-0.7,0-1,0.2c0,0,0-0.1,0-0.2c0-0.3,0.1-0.9,0.5-1.1
												c0.1,0,0.2-0.1,0.2-0.1c0.7-0.2,0.7-0.2,0.2-0.5c0,0,0,0-0.1,0c0,0,0,0,0,0c0,0,0-0.1,0-0.1C54.9,23,55,22.8,55.1,22.5
												L55.1,22.5z M54,31.4l0.1,0.1c0.3,0.2,0.8,0.6,0.8,1c0,0.3,0,1.5,0,1.5c0,0.3,0.1,0.6,0.1,0.9c0.1,0.3,0.1,0.6,0.1,0.7
												c0,0.6-0.1,1.2-0.2,1.8c-0.1,0.1-0.2,0.2-0.3,0.2c-0.1,0-0.2,0-0.3-0.1l-0.1-0.1c-0.3-0.7-0.4-0.3-0.6,0.1l-0.1,0.1
												c-0.3,0.2-0.5-0.1-0.6-0.2c-0.1,0-0.1-0.1-0.1-0.2c0,0,0,0,0-0.1l0,0c0.1-0.7,0.1-0.6-0.4-0.3c0,0-0.1,0-0.1,0l0,0
												c-0.1,0-0.3,0.1-0.3,0.1c-0.1-0.1-0.2-0.2-0.2-0.4c0.2-0.6,0.6-1,1.1-1.3c0.5-0.3,0.8-0.8,0.7-1.4c0-0.1,0-0.2,0-0.2
												c0-0.5-0.3-0.9-0.7-1.1c-0.4-0.1-0.9-0.2-1.3-0.2c-0.8-0.1-1.6-0.5-2.2-1c-0.8-0.7-1.4-1.6-1.7-2.7c0-0.1,0-0.2,0-0.3
												c0-0.7,0.2-1.3,0.4-2c0.2-0.3,0.2-0.7,0.2-1c0,0,0-0.1,0-0.1c0.3,0.2,0.5,0.4,0.8,0.7c0.8,0.8,0.7,0.4,0.3-0.2
												c-0.2-0.4-0.5-0.7-0.9-1c-0.5-0.3-1.1-0.6-1.7-0.7c-0.5-0.1-1-0.3-1.5-0.6c0.1,0,0.1-0.1,0.2-0.1s0.4-0.3,0.7-0.5
												c0.1,0.2,0.3,0.3,0.5,0.4c0.4,0.1,0.8-0.1,1.1-0.4c0.1-0.2,0.2-0.4,0.3-0.6c0,0,0.1-0.2,0.1-0.2c0.3-0.3,0.6-0.5,0.9-0.7
												c0.2-0.1,0.2-0.1-0.1-0.1c-0.2,0-1.1,0.3-1.3,0.6l-0.1,0.3c-0.1,0.2-0.1,0.3-0.2,0.5c-0.2,0.1-0.4,0.2-0.6,0.2
												c-0.1,0-0.2-0.1-0.3-0.2c0.1,0,0.1-0.1,0.2-0.2c0.1-0.1,0-0.2-0.1-0.3c-0.1-0.1-0.2,0-0.3,0.1l0,0
												c-0.3,0.3-0.7,0.6-1.1,0.8c-0.3,0.2-0.6,0.4-0.9,0.5L44,23.7l-0.1,0.1c-0.4,0.1-0.6,0.4-0.6,0.8c0,0.5-0.2,0.8-0.4,0.8
												c-0.2,0-0.3-0.1-0.4-0.2c0,0-0.1-0.1-0.1-0.1c-0.1-0.4-0.2-0.4-0.5-0.1c-0.1,0.1-0.4,0-0.5,0s-0.2-0.1-0.2-0.3
												c0.2-0.8,0.2-0.8-0.4-0.7c-0.1,0-0.2,0-0.2-0.1s0-0.3,0.1-0.7l0,0c0.1-0.3,0.4-0.6,0.6-0.8c0.1-0.1,0.3-0.3,0.4-0.4
												c0.3-0.2,0.7-0.4,1.1-0.5c0.5-0.2,0.9-0.4,1.3-0.7c0.5-0.4,1-0.7,1.5-1c0.2-0.1,0.2-0.2-0.2-0.1
												c-0.6,0.2-1.1,0.4-1.7,0.8c0,0-0.1,0-0.1,0.1c-0.4-0.8-0.3-1.8,0.2-2.5l0,0h0l0.1,0l0.4,0c0,0.1,0,0.3,0.1,0.4
												c0.3,0.2,0.6,0.2,0.9,0.1c0,0,1.3-0.5,1.5-0.7c0.1-0.1,0.2-0.1,0.3-0.1c0,0.3,0.1,0.8,0.2,1.1c0,0.3,0.2,0.5,0.4,0.6
												c0.2,0.1,0.3,0.1,0.5,0l0.1,0c0.4-0.2,0.8-0.6,0.9-1c0-0.1,0.1-0.1,0.1-0.2c0,0,0,0,0,0.1l0.1,0.1l0.1,0.2
												c0.9,1.6,1.4,3.3,1.6,5.1l0.1,0.9c0,0.7,0.3,1.3,0.8,1.7c0.1,0,0.1,0.1,0.1,0.2c0.2,0.4,0.3,0.9,0.4,1.3c0,0,0,0,0,0
												c0,0.1,0,0.2,0,0.3c0,0.5,0,0.9-0.2,1.4c-0.1-0.2-0.2-0.3-0.3-0.4c-0.5-0.8-1.6-1.5-0.4,0.2C52.6,30,53.3,30.8,54,31.4
												L54,31.4z M55.4,37.2h5.4c-0.3,0.5-1.4,2.5-1.4,2.5s1.1,2.1,1.3,2.6H47.4l1.1-3.7l-0.2-0.1c-0.6-0.2-1.2-0.4-1.9-0.6
												c0.4-0.3,0.8-0.7,0.9-0.7h4.2c0.1,0.1,0.1,0.1,0.2,0.2c0.2,0.1,0.4,0.1,0.7,0c0,0.1,0.1,0.2,0.2,0.3
												c0.3,0.4,0.8,0.5,1.2,0.3l0.2-0.1l0,0c0.2,0.2,0.5,0.2,0.7,0.2c0.3,0,0.5-0.2,0.6-0.4C55.3,37.5,55.4,37.4,55.4,37.2
												L55.4,37.2z M46.2,45c-4.6-1.6-9.5-2.4-14.3-2.4h0c-4.9,0-9.7,0.9-14.3,2.4l-1.8-6.1c5.2-1.8,10.6-2.8,16.1-2.8h0
												c5.5,0,11,1,16.1,2.8L46.2,45z M2.6,42.3C2.9,41.8,4,39.7,4,39.7s-1.1-2-1.4-2.5H7c0,0,0,0,0,0.1c0,0.1,0,0.2,0.1,0.3
												c0.1,0.2,0.3,0.3,0.5,0.3c0.3,0,0.5,0.1,0.8,0.1h0.1c0.5,0,1.2,0,1.3-0.7h6.5c0,0,0.5,0.3,0.9,0.7
												c-0.7,0.2-1.3,0.4-1.9,0.7l-0.2,0.1l1.1,3.7L2.6,42.3z M6.8,36.1l-0.4,0c0,0-0.1,0-0.1,0c0-0.1,0-0.3,0.1-0.5
												c0-0.1,0.1-0.3,0.1-0.4c0-0.1,0-0.3,0.1-0.4c0.1-0.5,0.2-1,0.2-1.6c0-0.2,0-0.4,0-0.6c0-0.2,0-0.4,0-0.5
												c0-0.4,0.1-0.5,0.1-0.6c0,0,0.1,0,0.2,0l0.2,0l0.1,0c0.9,0,1.7-0.4,2.2-1.2c0.4-0.7,0.6-1.4,0.7-3.2
												c0.1-1.3,0.8-2.5,1.9-3.3l0.3-0.2c0.4-0.2,0.9-0.6,1.3-0.8c0.2-0.1,0.4-0.3,0.5-0.5c0.1-0.3,0.2-0.5,0.3-0.8
												c0.2-0.4,0.4-0.9,0.5-1.4c0.2-1,0.2-2-0.2-3c0.1,0,0.1,0,0.2,0c0.2,0,0.5-0.1,0.6-0.3c0.2,0.1,0.3,0.2,0.5,0.3
												c0.5,0.2,1.2,0.4,1.5,0.1c0,0,0,0,0,0.1c0.7,0.6,1.5,1.2,2.3,1.7c0.9,0.6,1.8,1.2,2.2,1.6c0.2,0.2,0.3,0.3,0.3,0.5
												c0,0.1,0,0.2,0,0.2c0,0.2-0.1,0.5-0.1,0.7c-0.1,0.5-0.2,1-0.2,1.5c0,0.5,0,1,0.1,1.6l0,0.2c0,0.1,0,0.2,0,0.3
												c0,0.1,0,0.3-0.2,0.3c-0.4,0.2-0.9,0.4-1.3,0.5c-0.3,0.1-0.5,0.2-0.6,0.2c-0.1,0.1-0.2,0.1-0.3,0
												c-0.1-0.1-0.1-0.2-0.1-0.4l0-0.3c0-0.5,0-0.5,0.3-0.6c0.1,0,0.2,0,0.2,0c0.2,0.1,0.4,0.1,0.5,0c0.3-0.1,0.6-0.4,0.7-0.7
												c0.2-0.3,0.1-0.7,0.1-1.4l0-0.5c0-0.3,0.2-0.8-0.7-1.1c-1.5-0.5-2.4-0.8-2.7-0.8c-0.3-0.1-0.7-0.2-1-0.3
												c-0.1-0.1-0.2-0.1-0.3,0c0,0,0,0,0,0c-0.1,0.1-0.1,0.2,0,0.3c0.4,0.3,0.8,0.4,1.2,0.5c0.2,0,0.8,0.2,2.7,0.8
												c0,0,0.1,0,0.1,0.1c-0.1,0.1-0.1,0.3-0.2,0.5c-0.4,0.7-0.9,1.4-1.5,1.9c-0.6,0.6-1.3,0.9-2.2,1.1c-1.5,0.1-2.8,1-3.5,2.4
												c-0.3,0.5-0.5,1-0.7,1.5c-0.1,0.4-0.3,0.7-0.5,1c-0.3,0.4-1.1,0.8-1.5,0.6c-0.3-0.2-0.8-0.2-1.2-0.1
												c-0.2,0.1-0.1,0.2-0.5,0.2c-0.1,0-0.6,0-0.6,0.1s0.3,0.2,0.4,0.3c0.7,0.1,0.6,0,0.9-0.2c0.1-0.1,0.2-0.1,0.6,0
												c-0.1,0.3-0.3,0.5-0.6,0.6c-0.4,0.1-0.8,0.1-1.2,0c-0.4,0-1.1,0.1-1.2,0.4l0,0.2c-0.1,0.2-0.1,0.5-0.1,0.7
												c-0.1,0.5,0,1,0.3,1.4c0.1,0.1,0.4,0.3,0.6,0.5l0.4,0.4L9,35.8c0.2,0.2,0.4,0.3,0.4,1c0,0.6-0.2,0.6-1,0.6H8.3
												c-0.3,0-0.6,0-0.8-0.2c-0.1-0.1,0.1-0.4,0.1-0.5c0,0,0-0.1,0-0.1l0,0c0.1-0.5,0.5-0.5-0.5-0.5l0,0
												C7.1,36.2,7,36.2,6.8,36.1L6.8,36.1z M6.5,27.2c-0.5-1-0.1-2.4,1.1-3.9l0.3-0.4l0.1-0.2c0.4-0.4,0.6-0.9,0.6-1.5
												c0-0.1,0-0.2,0-0.3c-0.1-0.3-0.3-0.5-0.5-0.5c-0.1,0-0.2-0.1-0.2-0.1c0.1-0.1,0.2-0.2,0.3-0.2l0.1-0.1
												c0.2-0.1,0.5-0.2,0.7-0.2l0.1,0c0.2,0.1,0.3,0.1,0.5,0c0.2-0.1,0.3-0.4,0.4-0.9c0.1-0.8,0-1.7-0.5-2.3
												c-0.5-0.7-1.3-1.2-2.1-1.2C7,15.6,6.6,16,6.5,16.4c-0.1,0.2-0.1,0.3-0.1,0.5c0,0.5,0.2,1.1,0.6,1.5c0,0,0,0,0,0
												c0,0-0.1,0-0.1,0c0,0-0.1,0-0.1,0c-0.3,0-1.2-0.2-1.3,0.5v0.1c0,0.4-0.2,0.7-0.4,1c-0.1,0.2-0.2,0.3-0.4,0.5
												c0-0.1-0.1-0.2-0.1-0.2l0-0.1c-0.1-0.2-0.1-0.5-0.1-0.8v-0.1c0-0.1,0-0.2,0-0.3c0-0.1,0.1-0.2,0.1-0.3
												c0-0.1,0-0.2-0.1-0.2c-0.2-0.1-0.4,0-0.8,0.3C3.5,19,3.4,19,3.2,19c-0.2,0-0.3-0.1-0.5-0.1c-0.1,0-0.2,0-0.2,0
												C3,18.4,3.3,18,3.6,17.4c0-0.1,0-0.2,0-0.2c-0.2-0.3-0.5-0.5-0.9-0.7c0.4-0.1,0.8-0.3,1.2-0.3c0.7-0.1,1.3-0.4,1.9-0.8
												c0.5-0.3,1.1-0.6,1.7-0.7c0.9-0.2,1.7,0.3,2.7,1.7c0.4,0.6,0.5,1.2,0.5,1.9c0,0.7-0.1,1.3-0.4,2l-0.1,0.1
												c-0.1,0.2-0.2,0.4-0.2,0.6c0,0.2,0.1,0.5,0.4,0.6c0.2,0.1,0.3,0.2,0.3,0.4c0,0.1-0.1,0.3-0.2,0.4l-0.3,0.5
												c-0.2,0.3-0.4,0.6-0.5,0.9c0,0-0.2,0.3-0.2,0.2l0-0.2l-0.1-0.3c-0.1-0.7-0.2-0.9-0.4-0.9c-0.1,0-0.3,0.1-0.3,0.2
												l-0.2,0.4l-0.2,0.3l-0.2,0.3L8,24c-0.6,0.8-1.5,2-0.6,3.2c0.6,0.5,1.4,0.7,2.1,0.3c0,0.3,0,0.6-0.1,0.9
												C8,28.5,6.9,28,6.5,27.2L6.5,27.2z M5.5,21l-0.2,0.4c-0.3,0.6-0.6,1.1-0.8,1.5l-0.1,0.2c-0.2,0.4-0.2,0.4-0.3,0.4
												c0-0.1,0-0.2,0-0.2c0-0.1,0.1-0.3,0.1-0.4c0,0,0,0,0-0.1C4,22.1,3.7,21.5,3.3,21l-0.1-0.1c-0.1-0.2-0.2-0.5-0.2-0.8
												c0-0.2,0-0.4,0-0.6v0c0.4,0.1,0.7,0,1-0.3v0c0,0.3,0.1,0.6,0.2,1l0,0.1c0.1,0.2,0.2,0.6,0.5,0.6c0.3,0,0.5-0.2,0.9-0.8
												c0.3-0.4,0.4-0.8,0.5-1.3v0l0,0c0,0,0,0,0.1,0C6.2,19.6,6,20.4,5.5,21L5.5,21z M14.4,16.5c-0.1-0.3-0.3-0.6-0.5-0.8v0
												l0,0c0,0,0-0.1-0.1-0.1c-0.9-1.1-0.7-0.7-0.8,0.2c0,0.1,0,0.1,0,0.2c0,0.1,0,0.2,0,0.3c0,0.1,0,0.1-0.1,0.2
												c0,0-0.1,0-0.3,0c-0.6-0.2-1-0.6-1.2-1.2l0,0c0-0.1-0.1-0.2-0.1-0.3c-0.4-1.1-0.3-0.7-0.7-0.3l0,0c0,0-0.1,0.1-0.1,0.1
												l0,0c0,0-0.1,0.1-0.1,0.1c0,0,0,0,0,0c-0.2-0.3-0.4-0.6-0.6-0.9c0-0.1,0-0.2,0-0.3c0-0.3,0-0.5,0.1-0.8l0-0.1l0-0.1
												c0.1-0.4,0.2-0.6,0-0.7s-0.3-0.1-0.7,0l-0.1,0c-0.1,0-0.1,0-0.2,0c0.1-0.3,0.1-0.6,0.1-1c0.1-0.5-0.2-1.1-0.7-1.3
												c-0.1,0-0.1-0.1-0.2-0.1c1-0.2,2-0.7,2.7-1.4L11.2,8c0.2-0.3,0.5-0.5,0.8-0.6c0.2,0,0.4,0.1,0.6,0.2
												c0.1,0,0.2,0.2,0.3,0.2C13,7.9,13.1,8,13.3,7.9c0.1-0.1,0.1-0.2,0-0.3c-0.3-0.3-0.5-0.8-0.4-0.8c0,0,0.1-0.1,0.6,0h0
												c0.4,0.1,1.5,0.6,0.9,0.1c0.1,0,0.3-0.1,0.4-0.1l0.2,0c0.1,0,0.2,0,0.3,0c0.3,0,0.5,0.1,0.6,0.1l0,0h0.2c0,0,0,0.1,0,0.1
												c0,0,0,0.1,0,0.1c0,0.3,0.6,0.8,0.6,0.8c0.1,0.1,0.6,0.5,1,1c0.7,0.7,1.5,1.5,1.8,1.7c0.4,0.4,0.4,0.7,0.3,0.8
												c-0.1,0.1-0.2,0.2-0.3,0.2l-0.1-0.1c-0.2-0.1-0.4-0.2-0.6,0c-0.1,0.1-0.1,0.2-0.1,0.3c0,0.2,0,0.3,0.1,0.4
												c0,0.1,0,0.1,0,0.2c-0.1,0.1-0.4,0.1-0.6,0c-0.2-0.1-0.4-0.3-0.6-0.5l-0.4-0.3c-0.4-0.3-0.9-0.5-1.4-0.5
												c-0.1,0-0.2-0.1-0.3-0.1c-0.1,0-0.1-0.1-0.2-0.1c-0.3-0.2-0.5-0.6-0.6-1c0-0.1-0.1-0.2-0.1,0c-0.1,0.5,0.1,1,0.3,1.4
												c0.1,0.2,0.2,0.4,0.4,0.5l0.2,0.3c0.5,0.7,1.1,1.3,1.9,1.7l0.6,0.3c1.2,0.6,2.9,1.3,3.6,3.1c0.3,0.8,0.3,1.7,0.1,2.5
												c-0.5-0.3-1.1-0.7-1.7-1.1c-0.4-0.2-0.7-0.5-1.1-0.7l0.2-0.1c0.3-0.2,0.6-0.4,0.7-0.8c0.1-0.4-0.2-0.8-0.5-1.2
												c-0.7-1.1-2.2-1.3-3.3-1.4l-0.7-0.1c-1.1-0.2-2.2-0.7-3.1-1.4c-1.1-1-0.9-2.8-0.8-3.4c0-0.1,0-0.4-0.1-0.1
												c-0.2,0.6-0.7,2.7,0.6,3.8c1,0.8,2.2,1.3,3.4,1.5l0.6,0.1c0.9,0.1,2.4,0.4,2.9,1.3c0.2,0.4,0.5,0.6,0.4,0.9
												c0,0.1-0.2,0.3-0.5,0.5l-0.4,0.2c-0.2-0.2-0.5-0.3-0.7-0.5c-0.1-0.1-0.1-0.2-0.2-0.2c-0.7-0.6-0.4-0.2-0.5,0.1
												c-0.1,0.1-0.4,0.1-1.1-0.2c-0.4-0.1-0.4-0.2-0.5-0.4c-0.5-0.6-0.4-0.4-0.5,0.1c0,0.2-0.1,0.2-0.2,0.2
												C14.7,16.7,14.6,16.6,14.4,16.5L14.4,16.5z M13,6.3L13,6.3c-0.2,0-0.4,0.1-0.5,0.2c0,0,0,0,0,0.1
												c-0.3-0.2-0.6-0.4-0.9-0.6c-0.1-0.1-0.2-0.2-0.3-0.3c0.4,0,0.7,0,1.1,0.2l0,0h0c0.1,0,0.2,0.1,0.4,0.1L13,6.3z M14.7,6
												L14.7,6L14.7,6c-0.1,0.1-0.1,0.2-0.2,0.3l-0.3-0.9c0.1-0.1,0.2-0.2,0.2-0.2l0,0l0,0c0.2-0.3,0.5-0.6,0.8-0.8
												c0,0,0,0,0,0.1c0,0.1,0,0.2,0,0.3C15.1,5.2,15,5.6,14.7,6L14.7,6z M11.2,6.4c-0.3-0.2-0.6-0.6-0.6-1.1
												c0-0.2,0.2-0.4,0.3-0.5c0.6-0.2,1.2-0.2,1.7,0.1c0.1,0,0.2,0,0.3,0h0.1c0,0-0.2-0.6-0.2-0.7c0.1,0,0.4-0.1,0.5-0.2
												l0.2,0.7l0.1-0.1c0.1-0.1,0.2-0.2,0.2-0.3c0.3-0.5,0.7-0.9,1.3-1c0.2,0,0.4,0,0.5,0.2C15.9,3.9,16,4.1,16,4.4
												c0,0.2,0,0.3-0.1,0.5c-0.1,0.5-0.3,0.9-0.4,1.3c0,0-0.1,0-0.1,0c-0.1,0-0.2,0-0.2,0c0,0,0,0-0.1,0
												c0.2-0.4,0.4-0.9,0.5-1.4c0-0.1,0.1-0.3,0.1-0.4c0-0.1,0-0.3-0.1-0.4c-0.1-0.1-0.1-0.1-0.2-0.1c-0.3,0.1-0.7,0.4-1.1,1
												c-0.1,0.1-0.2,0.3-0.4,0.4c0,0.1,0.3,0.9,0.3,0.9s0.1,0.2,0.1,0.3h0c-0.2,0-0.5-0.1-0.7-0.1l0-0.1l-0.2-0.8h-0.1
												c-0.2,0-0.4,0-0.6-0.1h0c-0.5-0.2-1-0.3-1.5-0.1c-0.1,0-0.2,0.1-0.2,0.2v0C11,5.8,11.1,6,11.4,6.2
												c0.3,0.3,0.6,0.5,0.9,0.7c0,0,0,0,0,0c-0.1,0-0.2,0-0.3,0c0,0-0.1,0-0.1,0C11.6,6.8,11.4,6.6,11.2,6.4L11.2,6.4z
												 M25.2,35.1c-0.2,0-0.4,0-0.6,0.1c-0.5,0.1-1.1,0.2-1.3,0c-0.1-0.1-0.1-0.1-0.1-0.2c0-1.1,0.4-2.1,1.2-2.8
												c1.3,1.7,3,2.9,5,3.6h0.2c-0.9,0-1.8,0.1-2.6,0.2c-0.1-0.1-0.1-0.1-0.1-0.1l0,0C26.3,35.3,25.8,35.1,25.2,35.1L25.2,35.1
												z M21.6,36c0.1,0,0.2,0,0.3-0.1c0.2-0.1,0.2-0.3,0.3-0.5c0-0.7-0.3-1.4-0.8-2c0.3-1.1,1-2.1,1.9-2.9l0,0
												c0.2,0.4,0.5,0.8,0.8,1.2c-0.9,0.8-1.4,2-1.4,3.2c0,0.2,0.1,0.4,0.2,0.5c0.4,0.3,1.1,0.2,1.7,0.1c0.2,0,0.4-0.1,0.6-0.1
												c0.4,0.1,0.8,0.2,1.1,0.5c-1.3,0.2-2.7,0.4-4,0.6c-0.2-0.1-0.4-0.2-0.5-0.4C21.7,36.2,21.6,36.1,21.6,36L21.6,36z
												 M18,27.1c0.3-0.1,0.7,0,0.9,0.3l0.2,0.4c0.2,0.3,0.3,0.5,0.4,0.8c0.1,0.3-0.9,1.4-1.5,1.7c-0.4,0.2-0.7,0.4-1.1,0.7
												c-0.1,0.2-0.2,0.3-0.2,0.5c0,0.1,0,0.1,0,0.2c0.1,0.3,0.3,0.5,0.6,0.5c0.6,0.3,1.2,0.5,1.8,0.6c0.4,0.1,0.9,0.3,1.2,0.6
												c0.2,0.2,0.4,0.3,0.7,0.4l0.2,0.1c0.3,0.4,0.5,0.9,0.5,1.4c0,0,0,0.1,0,0.1c0,0.1,0,0.1-0.1,0.2c-0.1,0.1-0.3,0-0.4,0
												l-0.2,0l-0.1,0l-0.2,0C20.3,35.3,20,35.2,20,35c0-0.1,0-0.2-0.1-0.3c-0.2-0.8-0.2-0.5-0.5-0.3l-0.1,0
												c-0.2,0-0.3,0-0.9-0.3c-0.2-0.1-0.4-0.3-0.6-0.4c-0.2-0.2-0.4-0.3-0.7-0.5L16.5,33c-0.4-0.1-0.7-0.3-1-0.4l-0.1,0
												c-0.3-0.1-0.7-0.4-0.7-0.6c0-0.2,0.1-0.4,0.2-0.5c0.2-0.3,0.4-0.6,0.7-0.8c0.1,0,0.4-0.3,0.3-0.5
												c-0.1-0.2-0.2-0.4-0.9-0.3c-0.5,0.1-1.1,0-1.6-0.3l-0.1,0c0.2-0.5,0.4-0.9,0.6-1.3c0.1-0.3,0.3-0.5,0.5-0.8l0.1-0.1
												C15.8,27.4,16.9,27.3,18,27.1L18,27.1z M21.1,24.4c-0.2,0.3-0.2,0.4-0.5,0.5c-0.1,0-0.2,0-0.2,0c-0.2-0.1-0.3-0.1-0.5,0
												c-0.7,0.2-0.6,0.6-0.6,1.1l0,0.3c0,0.2,0,0.3,0.1,0.5c0.1,0.1,0.1,0.2,0.2,0.2c0.2,0.1,0.5,0.1,0.7,0
												c0.1,0,0.3-0.1,0.5-0.2c0.3-0.1,0.7-0.2,1-0.4c0.2,1.3,0.6,2.5,1.2,3.6L23,30.2c-1,0.8-1.6,1.9-2,3.1
												c-0.1-0.1-0.2-0.1-0.4-0.2c-0.4-0.4-0.9-0.6-1.4-0.7c-0.6-0.1-1.1-0.3-1.7-0.6c-0.2-0.1-0.3-0.2-0.3-0.3
												c0-0.1,0-0.2,0.1-0.3c0.3-0.2,0.6-0.4,0.9-0.6c0.5-0.3,1.8-1.4,1.7-2.2c-0.1-0.4-0.3-0.7-0.5-1l-0.2-0.4
												c-0.3-0.5-0.9-0.7-1.4-0.5c-0.9,0.2-1.9,0.2-2.8,0.2c0.6-0.5,1.3-0.8,2-0.8c0.9-0.1,1.8-0.5,2.4-1.2
												c0.6-0.6,1.2-1.3,1.6-2.1c0,0,0-0.1,0.1-0.1c0,0.1,0,0.1,0,0.2l0,0.1C21.2,23.5,21.2,23.9,21.1,24.4L21.1,24.4z
												 M9.3,35.5L9.3,35.5l-0.5-0.4c-0.2-0.2-0.5-0.4-0.6-0.5C8,34.3,8,34,8,33.7c0-0.1,0-0.1,0-0.2c0-0.2,0.1-0.5,0.1-0.7
												c0,0,0-0.1,0-0.2c0.2-0.1,0.4-0.1,0.7-0.1c0.5,0.1,1,0.1,1.5-0.1c0.4-0.2,0.7-0.5,0.8-0.9c0.7,0,1.3-0.3,1.7-0.8
												c0.2-0.3,0.3-0.6,0.4-0.9l0,0c0.6,0.3,1.2,0.4,1.8,0.3c0.1,0,0.1,0,0.2,0c-0.3,0.2-0.6,0.5-0.8,0.8
												c-0.2,0.2-0.3,0.5-0.3,0.7c0,0.1,0,0.1,0,0.2c0.1,0.5,0.6,0.7,1,0.9l0.1,0c0.3,0.2,0.7,0.3,1.1,0.4l0.6,0.2
												c0.2,0.1,0.4,0.2,0.5,0.4c0.2,0.2,0.4,0.4,0.7,0.5c0.6,0.3,0.9,0.4,1.2,0.3l0,0c0,0.1,0,0.2,0,0.2
												c0.1,0.6,0.7,0.7,1.1,0.7l0.2,0l0.2,0c0.1,0.2,0.2,0.5,0.4,0.7c0,0,0.2,0.1,0.3,0.2c-1.3,0.3-2.6,0.6-3.9,1l-1.3-1H9.8v0
												C9.9,36.3,9.7,35.8,9.3,35.5L9.3,35.5z M47.3,28.8c0,0,0,0.1,0,0.1c-0.1,0.1-0.2,0.1-0.2,0.2c-0.4,0.2-0.9-0.2-1.2-0.4
												l0,0c-0.6-0.5-1.1-0.6-0.3,0.3l0,0c0.3,0.3,0.7,0.5,1.1,0.6c-0.2,0.5-0.2,1,0.2,1.5l0,0.1c0.1,0.1,0.1,0.2,0.2,0.3
												c0.2,0.2,0.2,0.2,0.1,0.5c-0.1,0.4-1.1,0.4-1.4,0.4h-0.1c-0.7,0.1-1.3,0.3-1.9,0.5c-0.5,0.3-0.9,0.7-1.1,1.2
												c-0.1,0.2-0.3,0.4-0.4,0.5c0,0-0.1,0-0.1,0c-0.1,0-0.1-0.1-0.2-0.1L41.9,34c-0.1-0.4,0-0.6-0.5-0.3c-0.1,0-0.2,0-0.2,0
												c-0.1-0.1-0.2-0.2-0.2-0.3c0,0,0.1-0.2,0.1-0.2c0.3-0.5,0.1-0.5-0.4-0.5l0,0c0,0-0.1,0-0.1,0c-0.1,0-0.2-0.1-0.3-0.3
												c-0.1-0.2,0-0.5,0.3-0.6c0.2-0.1,0.4-0.2,0.6-0.2c0.2,0,0.3-0.1,0.5-0.1c0.5,0,0.9,0,1.4,0l0.4,0c0.5,0,0.9-0.1,1.2-0.4
												c0.1-0.2,0.2-0.4,0.1-0.6c-0.1-0.4-0.4-0.7-0.7-1c-0.2-0.2-0.4-0.4-0.6-0.7c-0.4-0.7-0.4-1.7-0.1-2.4
												c0.1-0.2,0.2-0.4,0.4-0.5c0.1,0,0.2,0,0.4,0.1l0.1,0.1c1.1,0.3,2.2,0.3,3.3,0c0,0.1-0.1,0.2-0.1,0.3
												C47.4,27.1,47.2,28,47.3,28.8L47.3,28.8z M38.4,35.5c0.2,0,0.4,0,0.6,0.1c0.6,0.1,1.3,0.2,1.7-0.1
												c0.2-0.1,0.3-0.3,0.2-0.5c0-0.3,0-0.6-0.1-0.9c0.2,0.2,0.4,0.2,0.6,0.1c0,0.1,0,0.2,0.1,0.2l0,0.1
												c0.1,0.2,0.3,0.4,0.5,0.5c0.1,0,0.1,0,0.2,0c0,0.5-0.2,0.9-0.5,1.3c-0.2,0.1-0.3,0.3-0.5,0.4c-1.3-0.3-2.7-0.5-4-0.6
												C37.6,35.7,38,35.6,38.4,35.5L38.4,35.5z M39.5,31.7c0.3-0.4,0.5-0.8,0.8-1.2l0,0c0.2,0.2,0.4,0.4,0.7,0.7
												c-0.2,0.1-0.4,0.1-0.5,0.2c-0.3,0.1-0.5,0.4-0.6,0.7C39.7,32,39.6,31.9,39.5,31.7z M40.4,34.9c0,0.1,0,0.2-0.1,0.2
												c-0.2,0.2-0.9,0.1-1.3,0c-0.2,0-0.4-0.1-0.6-0.1c-0.6,0-1.2,0.3-1.6,0.7c-0.1,0-0.1,0.1-0.2,0.1
												c-0.9-0.1-1.8-0.2-2.6-0.2h0.2c2-0.6,3.8-1.9,5-3.6C40,32.8,40.5,33.9,40.4,34.9L40.4,34.9z M51.4,36.8h-4.2l-1.2,1
												c-1.3-0.4-2.6-0.7-4-1c0.1-0.1,0.2-0.1,0.2-0.2c0.4-0.5,0.6-1.2,0.6-1.9c0,0,0,0,0,0l0.3-0.4c0.2-0.4,0.6-0.8,1-1.1
												c0.6-0.2,1.2-0.4,1.8-0.5h0.1c0.5,0,1.6,0,1.8-0.6c0.2-0.3,0.1-0.8-0.2-1c0,0-0.1-0.1-0.1-0.1l-0.1-0.1
												c-0.3-0.4-0.3-1,0.1-1.3c0,0,0,0,0,0c0,0,0.1,0,0.1-0.1c0.3,0.9,0.9,1.7,1.7,2.4c0.7,0.6,1.5,1,2.4,1.1
												c0.4,0,0.8,0.1,1.2,0.2c0.2,0.2,0.4,0.4,0.4,0.7c0.1,0.5-0.1,0.9-0.5,1.2c-0.7,0.4-1.1,1-1.3,1.7
												C51.3,36.7,51.4,36.8,51.4,36.8L51.4,36.8z M44.8,23.8L44.8,23.8c0.5,0.4,1.2,0.7,1.8,0.8c0.4,0.1,0.8,0.2,1.2,0.4
												c0,0.2,0.1,0.3,0.1,0.5c-1.1,0.3-2.2,0.4-3.2,0.1l-0.1,0c-0.2-0.1-0.5-0.2-0.8-0.1c-0.3,0.2-0.5,0.4-0.6,0.8
												c-0.5,0.9-0.4,2,0.1,2.9c0.2,0.3,0.4,0.5,0.6,0.7c0.2,0.2,0.4,0.5,0.6,0.8c0,0.1,0,0.1,0,0.2c-0.2,0.2-0.6,0.3-0.9,0.2
												l-0.4,0c-0.6,0-1.1,0-1.7,0.1c-0.3-0.3-0.6-0.6-0.9-0.9l-0.1-0.1c0.7-1.5,1.2-3.1,1.4-4.7c0.1,0,0.1,0,0.2,0
												c0,0,0.1,0.1,0.1,0.1c0.2,0.3,0.5,0.4,0.9,0.4c0.4,0,0.7-0.7,0.8-1.3c0-0.3,0.1-0.3,0.3-0.4l0.2-0.1l0.3-0.1
												C44.8,23.8,44.4,24,44.8,23.8L44.8,23.8z M22.6,23.5c0-0.5,0.1-1,0.2-1.4c0.1-0.3,0.1-0.6,0.1-0.8c0.1-0.4,0-0.8-0.3-1
												c0.4-1.6,1.2-3.2,2.2-4.5c2.6-3.9,7.9-4.9,11.8-2.2c0.9,0.6,1.6,1.3,2.2,2.2c1.3,1.8,2.2,3.8,2.5,6L41.1,22
												c-0.3,0.2-0.6,0.6-0.8,1l0,0c-0.1,0.2-0.1,0.5-0.2,0.7c0,0.1,0,0.2,0.1,0.3c0.1,0.2,0.3,0.3,0.5,0.4c0,0,0.1,0.1,0.1,0.2
												c0,0,0,0,0,0c0,0,0,0,0,0.1c0,0.2,0.1,0.4,0.5,0.6c0,0,0.1,0,0.1,0c-0.6,5.8-4.7,10.2-9.6,10.2c-4.7,0-8.5-4-9.5-9.3
												c0.3-0.2,0.4-0.7,0.3-1l0-0.2C22.6,24.6,22.5,24,22.6,23.5L22.6,23.5z M26.9,10c0-0.1-0.1-0.1-0.1-0.2c0-0.1,0-0.1,0-0.2
												c0-0.5-0.4-0.8-0.8-0.8c0,0,0,0,0,0c-0.1,0-0.1,0-0.2,0c0.1-0.1,0.1-0.3,0.1-0.4c0-0.5-0.4-1-1-1c0,0-0.1,0-0.1,0
												C25,7.2,25,6.9,25,6.7c-0.6-0.2-1-0.8-0.8-1.5c0.1-0.3,0.3-0.6,0.6-0.7c0-0.1,0-0.2-0.1-0.4c0.2,0.1,0.4,0.2,0.6,0.1
												c0.6,0,1.2-0.5,1.2-1.1c0.2,0.3,0.5,0.4,0.8,0.4c0.3,0,0.6-0.1,0.8-0.4c0.1,0.5,0.5,0.8,1,0.7c0.3,0,0.5-0.3,0.6-0.5h0
												l0.3,1.8c-0.9-0.6-2-0.9-3.1-0.9c-0.6,0-1.1,0.4-1.4,0.9c-0.3,0.8-0.2,1.7,0.4,2.3c0.5,0.8,1.1,1.4,1.8,2l0,0
												C27.6,9.7,27.3,9.8,26.9,10L26.9,10z M26,10c-0.2,0-0.4-0.2-0.4-0.4c0-0.2,0.2-0.4,0.4-0.4c0.2,0,0.4,0.2,0.4,0.4
												C26.3,9.8,26.2,10,26,10C26,10,26,10,26,10L26,10z M24.9,8.9c-0.3,0-0.5-0.2-0.5-0.5c0-0.3,0.2-0.5,0.5-0.5
												c0.3,0,0.5,0.2,0.5,0.5C25.4,8.6,25.2,8.9,24.9,8.9C24.9,8.9,24.9,8.9,24.9,8.9L24.9,8.9z M23.9,7.4
												c-0.4,0-0.7-0.3-0.7-0.7c0-0.4,0.3-0.7,0.7-0.7c0.4,0,0.7,0.3,0.7,0.7c0,0,0,0,0,0C24.6,7.1,24.3,7.4,23.9,7.4L23.9,7.4z
												 M23,4.5c0-0.4,0.3-0.7,0.7-0.7c0.4,0,0.7,0.3,0.7,0.7c0,0.4-0.3,0.7-0.7,0.7C23.3,5.3,23,4.9,23,4.5
												C23,4.5,23,4.5,23,4.5L23,4.5z M25.4,2.3c0.4,0,0.8,0.4,0.8,0.8c0,0.4-0.4,0.8-0.8,0.8c-0.4,0-0.8-0.4-0.8-0.8
												C24.6,2.6,24.9,2.3,25.4,2.3L25.4,2.3z M27.4,2.2c0.3,0,0.5,0.2,0.5,0.5c0,0.3-0.2,0.5-0.5,0.5c-0.3,0-0.5-0.2-0.5-0.5
												C26.9,2.4,27.2,2.2,27.4,2.2C27.4,2.2,27.4,2.2,27.4,2.2L27.4,2.2z M29.1,2.8c0.2,0,0.4,0.2,0.4,0.4
												c0,0.2-0.2,0.4-0.4,0.4c0,0,0,0,0,0c-0.2,0-0.4-0.2-0.4-0.4C28.7,2.9,28.8,2.8,29.1,2.8z M31.1,2.3
												c0-0.1,0.1-0.1,0.2-0.1h1c0.1,0,0.2,0,0.2,0.1c0,0.4,0.4,0.8,0.8,0.9L32.3,9v0c-0.2,0-0.3,0-0.5,0s-0.3,0-0.5,0v0
												l-1.1-5.8C30.7,3.1,31,2.8,31.1,2.3L31.1,2.3z M32.7,9L32.7,9l0.6-3.2c0.9-0.7,2-1,3.1-1c0.4,0,0.8,0.3,1,0.6
												c0.3,0.7,0.1,1.4-0.4,2c-0.5,0.8-1.2,1.5-2,2.1l0,0C34.3,9.2,33.5,9.1,32.7,9L32.7,9z M28.5,9.4c-0.8-0.6-1.4-1.3-2-2.1
												c-0.5-0.5-0.7-1.3-0.4-2c0.2-0.4,0.6-0.6,1.1-0.6c1.1,0,2.2,0.4,3.1,1L30.9,9l0,0C30.1,9.1,29.3,9.2,28.5,9.4L28.5,9.4z
												 M36.3,12.9c-2.8-1.7-6.2-1.7-9,0c0.1-0.4,0.1-0.7,0.1-1.1c2.8-1.3,6-1.3,8.7,0C36.1,12.2,36.2,12.5,36.3,12.9L36.3,12.9
												z M36.2,11.3c-2.8-1.3-6-1.3-8.8,0c0-0.3-0.1-0.6-0.3-0.9c3-1.3,6.4-1.3,9.4,0C36.4,10.7,36.2,11,36.2,11.3L36.2,11.3z
												 M33.7,3.5L33.7,3.5c0.2,0.4,0.6,0.7,1.1,0.5c0.3-0.1,0.5-0.4,0.5-0.6c0.2,0.2,0.5,0.4,0.8,0.4c0.3,0,0.6-0.2,0.8-0.4
												c0.1,0.6,0.6,1.1,1.3,1.1c0.2,0,0.4,0,0.6-0.1c0,0.1-0.1,0.2-0.1,0.4c0.6,0.3,0.8,1,0.5,1.6c-0.1,0.3-0.4,0.5-0.7,0.6
												c0,0.2,0.1,0.5,0.2,0.7c0,0-0.1,0-0.1,0c-0.5,0-1,0.4-1,1c0,0.2,0,0.3,0.1,0.4c-0.1,0-0.1,0-0.2,0
												c-0.5,0-0.8,0.4-0.8,0.8c0,0.1,0,0.1,0,0.2c0,0-0.1,0.1-0.2,0.2c-0.3-0.2-0.7-0.3-1-0.4l0,0c0.7-0.6,1.3-1.3,1.8-2
												C38,6.9,38.2,6,37.9,5.2c-0.3-0.5-0.8-0.8-1.4-0.9c-1.1-0.1-2.2,0.3-3,0.9L33.7,3.5z M34.5,2.8c0.2,0,0.4,0.2,0.4,0.4
												s-0.2,0.4-0.4,0.4c-0.2,0-0.4-0.2-0.4-0.4C34.2,2.9,34.3,2.8,34.5,2.8L34.5,2.8z M36.2,2.2c0.3,0,0.5,0.2,0.5,0.5
												c0,0.3-0.2,0.5-0.5,0.5c-0.3,0-0.5-0.2-0.5-0.5c0,0,0,0,0,0C35.6,2.4,35.9,2.2,36.2,2.2L36.2,2.2z M38.2,2.3
												c0.4,0,0.8,0.4,0.8,0.8c0,0.4-0.4,0.8-0.8,0.8s-0.8-0.4-0.8-0.8c0,0,0,0,0,0C37.4,2.6,37.8,2.3,38.2,2.3L38.2,2.3z
												 M39.9,3.8c0.4,0,0.7,0.3,0.7,0.7c0,0.4-0.3,0.7-0.7,0.7c-0.4,0-0.7-0.3-0.7-0.7C39.2,4.1,39.5,3.8,39.9,3.8L39.9,3.8z
												 M40.4,6.7c0,0.4-0.3,0.7-0.7,0.7c-0.4,0-0.7-0.3-0.7-0.7S39.3,6,39.7,6c0,0,0,0,0,0C40.1,6,40.4,6.3,40.4,6.7L40.4,6.7z
												 M38.7,8.9c-0.3,0-0.5-0.2-0.5-0.5s0.2-0.5,0.5-0.5c0.3,0,0.5,0.2,0.5,0.5C39.2,8.6,39,8.9,38.7,8.9
												C38.7,8.9,38.7,8.9,38.7,8.9L38.7,8.9z M37.6,10c-0.2,0-0.4-0.2-0.4-0.4c0-0.2,0.2-0.4,0.4-0.4c0.2,0,0.4,0.2,0.4,0.4
												C38,9.8,37.8,10,37.6,10C37.6,10,37.6,10,37.6,10L37.6,10z M43.4,20.8c-0.2,0.1-0.4,0.2-0.6,0.3c-0.4,0.1-0.7,0.2-1,0.4
												c-0.1-0.8-0.3-1.5-0.6-2.3l2,0.1C43.2,19.8,43.2,20.3,43.4,20.8L43.4,20.8z M40.3,16.3c0.1,0.7,0.7,1.3,1.4,1.4
												c0.4,0,0.8-0.2,1-0.5c0,0.4,0.3,0.8,0.8,0.8c-0.2,0.3-0.3,0.6-0.3,0.9L41,18.7c-0.3-0.8-0.7-1.6-1.2-2.4
												C39.9,16.3,40.1,16.3,40.3,16.3L40.3,16.3z M43.5,14.2l1-0.1c1.5,0,2.9-1,3.4-2.4l0-0.1c0.1-0.3,0.1-0.7,0-1.1l0-0.3
												l-0.3,0.1c-0.5,0.2-1,0.3-1.5,0.4c-0.6,0-1.1,0.2-1.6,0.5l0,0l0,0c0,0,0,0-0.1,0c0,0-0.1,0-0.2-0.1
												c-0.2-0.2-0.3-0.4-0.5-0.6c0,0,0,0,0-0.1c0-0.1,0.1-0.2,0.4-0.2l0.3-0.1c0.4-0.1,0.8-0.2,0.8-0.8v0
												c0-0.2-0.1-0.4-0.2-0.5c-0.5-0.3-1-0.3-1.6-0.2h0l0,0c0,0,0,0-0.1,0c0-0.1-0.1-0.1-0.1-0.2c0-0.1,0-0.2,0-0.2
												c0-0.1,0-0.1,0.1-0.1c0.1-0.1,0.2-0.3,0.2-0.4c0-0.2-0.1-0.4-0.2-0.5l0-0.1c0-0.1-0.1-0.2-0.1-0.3c0,0,0,0,0-0.1
												c0.1-0.1,0.1-0.1,0.2-0.1c0.3,0,0.6-0.1,0.9,0c0.2,0,0.4,0,0.6,0c0.2,0,0.4-0.1,0.6-0.2c0.2-0.1,0.4-0.2,0.6-0.2
												c0.2,0,0.7,0,1.1,0l0.6,0c0.8-0.1,1.5-0.4,2.2-0.9c0,0,0.1-0.1,0.2-0.1c0,0,0,0,0,0c0.1,0.2,0.1,0.4,0.2,0.6
												c0,0.3,0.1,0.6,0.3,0.9c0.2,0.3,0.4,0.5,0.6,0.8c0.1,0.1,0.3,0.3,0.4,0.4c0.1,0.2,0.3,0.5,0.4,0.8
												c0.1,0.4,0.4,0.8,0.7,1.2c0.3,0.3,1,1,1.8,0.8c0,0,0,0,0,0L54,11c-0.3,0.2-0.6,0.5-0.6,0.8v0c0,0.2,0.1,0.4,0.2,0.6l0,0
												c0,0,0,0.1,0.1,0.1c0,0.1-0.1,0.2-0.2,0.3c-0.3,0.3-0.4,0.5-0.4,0.7c0,0.1,0,0.2,0.1,0.3l0,0c0,0.1,0.1,0.2,0.1,0.3
												c0,0,0,0,0,0l0,0l-0.1,0c-0.1,0.1-0.2,0.1-0.3,0.1l0,0c-0.5,0.1-0.8,0.4-0.8,0.9c0,0,0,0.1,0,0.1l0,0.2
												c0,0.1,0,0.2,0,0.3c0,0,0,0,0,0.1c0,0-0.1,0-0.1,0l-0.1,0c-0.3,0.1-0.8,0.2-0.8,1l0,0.3c0,0.7-0.1,1-0.3,1
												c-0.3,0-0.6-0.1-0.7-0.4c0-0.1-0.1-0.4-0.1-0.4c-0.3-0.9-0.2-0.7-0.6,0.1c-0.1,0.1-0.1,0.3-0.2,0.4
												c-0.1,0.3-0.4,0.6-0.7,0.8l-0.1,0.1c0,0-0.1,0-0.1,0c-0.1,0-0.1-0.1-0.2-0.3c-0.1-0.4-0.2-0.8-0.2-1.2
												c0-0.6,0.6-1.3-0.7-0.2c0,0-0.2,0.1-0.3,0.2c-0.2,0.1-1.2,0.6-1.5,0.7c-0.1,0-0.4,0.1-0.4,0c0,0,0-0.1,0-0.1c0,0,0,0,0,0
												c0.2-0.6,0.4-0.4-0.5-0.3l-0.4,0l-0.1,0c-0.2,0.1-0.5,0-0.7-0.1c-0.1-0.1-0.1-0.2-0.1-0.4c0-0.6,0.4-1.2,1-1.4
												c0.6-0.1,2.7-0.3,3.7-0.4c1.2,0,2.3-0.7,3-1.6c0.4-1.1,0.5-2.3,0.4-3.4c-0.1-0.4-0.4-0.9-0.2,0.1
												c0.1,1.1-0.1,2.1-0.5,3.1c-0.6,0.9-1.6,1.4-2.6,1.4c-0.9,0.1-3.1,0.3-3.7,0.4c-0.6,0.1-1,0.5-1.3,1.1
												c-0.2,0.3-0.7,1-1.2,1c-0.5,0-1-0.7-1-1.2C40.7,14.3,41.5,14.3,43.5,14.2L43.5,14.2z M61.4,17c0-0.2,0.1-0.3,0.1-0.5
												c0.1-0.2,0.2-0.4,0.2-0.6c0-0.1,0-0.2-0.1-0.2c-0.2-0.3-0.5-0.3-0.8-0.3h-0.2c-0.1,0-0.3-0.1-0.4-0.2
												c-0.3-0.1-0.6-0.2-1-0.3c-0.3,0-0.5,0-0.8,0.1c-0.3,0.1-0.6,0.1-1,0.1c-0.3-0.1-0.6-0.2-0.9-0.3
												c-0.7-0.3-1.5-0.2-2.2,0.1c-0.8,0.3-1.4,0.9-1.8,1.6c-0.6,1.4-0.6,3,0.2,4.4c0.2,0.5,1.1,1.9,1.6,2.6c0,0,0,0,0,0
												c0,0,0,0,0,0c-0.5,0.3-0.8,0.9-0.8,1.5c0,0.1,0,0.2,0,0.3c0,0.2,0.1,0.4,0.2,0.5c0.1,0,0.2,0,0.3,0
												c0.3-0.2,0.6-0.3,0.9-0.2c0.7,0,1.3,0.6,1.3,1.3c0,0.9-0.7,1.7-1.7,1.8c-0.6,0.1-1.2-0.3-1.4-0.8c0-0.6-0.2-1.3-0.5-1.8
												c-0.1-0.1-0.1-0.2-0.2-0.2c-0.3-0.2-0.7-0.6-0.8-2.3c-0.2-1.7-0.6-3.3-1.4-4.7c0.1,0,0.2,0,0.4,0
												c0.6-0.1,0.6-0.8,0.7-1.4l0-0.3c0-0.5,0.2-0.5,0.5-0.6l0.2,0c0.3-0.1,0.4-0.3,0.4-0.5c0-0.1,0-0.2,0-0.3l0-0.2v-0.1
												c0-0.3,0.2-0.3,0.4-0.4l0.1,0c0.1,0,0.3-0.1,0.4-0.2l0.1,0c0.2-0.1,0.3-0.2,0.2-0.4c0-0.1,0-0.3-0.1-0.4l0,0
												c0,0,0-0.1,0-0.2c0-0.1,0.1-0.2,0.3-0.4c0.2-0.2,0.3-0.4,0.3-0.6c0-0.1,0-0.3-0.1-0.4l0,0c-0.1-0.1-0.1-0.3-0.1-0.4
												c0-0.1,0.3-0.3,0.4-0.4l0.3-0.2c0.1-0.1,0.2-0.3,0.2-0.5c0-0.1,0-0.2-0.1-0.3c-0.1-0.1-0.2-0.1-0.4-0.1l0,0
												c-0.5,0.2-1.1-0.2-1.6-0.7c-0.2-0.3-0.4-0.7-0.5-1C52.1,8.3,52,8,51.8,7.7c-0.1-0.2-0.3-0.3-0.4-0.5
												c-0.2-0.2-0.4-0.4-0.6-0.7c-0.1-0.3-0.2-0.5-0.2-0.8c0-0.3-0.1-0.5-0.2-0.8c-0.1-0.1-0.2-0.2-0.4-0.2
												c-0.2,0-0.4,0.1-0.5,0.3c-0.5,0.4-1.2,0.6-1.8,0.7l-0.6,0c-0.4,0-0.9,0-1.2,0c-0.3,0-0.5,0.1-0.7,0.3
												c-0.1,0.1-0.3,0.1-0.5,0.2c-0.2,0-0.3,0-0.5,0c-0.3,0-0.6,0-1,0c-0.2,0-0.4,0.1-0.5,0.3c-0.1,0.2-0.1,0.5,0,0.7l0.1,0.1
												c0.1,0.2,0.1,0.3,0.1,0.4c-0.2,0.2-0.3,0.6-0.2,0.9c0,0.2,0.2,0.4,0.3,0.5c0.1,0.1,0.3,0.1,0.4,0l0,0
												c0.4-0.1,0.8,0,1.2,0.1c0,0,0.1,0.1,0.1,0.1c0,0.2,0,0.3-0.4,0.3l-0.4,0.1c-0.3,0-0.6,0.2-0.7,0.5c-0.1,0.1,0,0.3,0,0.4
												l0.1,0.1c0.2,0.2,0.3,0.4,0.5,0.6c0.1,0.2,0.3,0.3,0.6,0.3c0.2,0,0.3-0.1,0.4-0.2c0.4-0.3,0.8-0.4,1.3-0.4
												c0.5-0.1,0.9-0.2,1.4-0.3c0,0,0,0.1,0,0.1c0,0.1,0,0.3,0,0.4l0,0.1c-0.4,1.3-1.6,2.2-3,2.1l-1,0.1
												c-1.9,0.1-3.2,0.2-3.2,2.1l0,0c-0.3,0-0.6,0-0.8-0.1l0,0c-0.1-0.1-0.2-0.2-0.2-0.3c-0.6-0.8-1.4-1.6-2.2-2.2
												c-0.5-1-0.4-2.1,0.3-3c0.1,0.1,0.3,0.1,0.4,0.1c0.5,0,0.8-0.4,0.8-0.8c0-0.1,0-0.2-0.1-0.3c0.1,0,0.2,0,0.3,0
												c0.5,0,1-0.4,1-1c0-0.2,0-0.3-0.1-0.5c0.2-1.2,0.7-2.4,1.6-3.3c0-0.6-0.5-1.2-1.2-1.2c-0.2,0-0.4,0-0.5,0.1
												c0-0.1,0.1-0.3,0.1-0.4c0-0.7-0.6-1.3-1.3-1.3c-0.5,0-0.9,0.3-1.1,0.7c-0.1-0.5-0.7-0.8-1.2-0.7
												c-0.4,0.1-0.7,0.4-0.7,0.8c-0.2-0.2-0.4-0.3-0.6-0.3c-0.3,0-0.6,0.2-0.8,0.5h-0.2c-0.3,0-0.5-0.2-0.6-0.5c0,0,0,0,0,0
												c0-0.3-0.3-0.5-0.7-0.5h-1c-0.4,0-0.7,0.2-0.7,0.5c0,0.3-0.3,0.5-0.6,0.5c0,0,0,0,0,0h-0.2c-0.1-0.3-0.4-0.5-0.8-0.5
												c-0.2,0-0.5,0.1-0.6,0.3c-0.1-0.5-0.6-0.9-1.1-0.9c-0.4,0-0.7,0.3-0.8,0.7c-0.3-0.6-1.1-0.8-1.7-0.5
												c-0.4,0.2-0.7,0.6-0.7,1.1c0,0.1,0,0.3,0.1,0.4c-0.2-0.1-0.3-0.1-0.5-0.1c0.1,1.2-0.2,2.4-1,3.3c0,0.6,0.5,1.2,1.2,1.2
												c0.1,0,0.1,0,0.2,0C24,8,23.9,8.2,23.9,8.3c0,0.5,0.4,1,1,1c0.1,0,0.2,0,0.3,0c-0.2,0.4,0,0.9,0.5,1.1
												c0.3,0.1,0.6,0.1,0.8-0.1c0.6,0.4,0.7,1.9,0.2,3c-0.9,0.6-1.6,1.4-2.3,2.2c-0.9,1.1-1.5,2.4-2,3.7c0.1-0.7,0-1.5-0.2-2.2
												c-0.8-2-2.7-2.8-3.8-3.4l-0.6-0.3c-0.7-0.4-1.3-0.9-1.7-1.6l-0.2-0.3l0,0c0,0,0.1,0,0.1,0c0.4,0.1,0.8,0.2,1.2,0.5
												l0.4,0.3c0.2,0.2,0.4,0.4,0.7,0.5c0.4,0.2,0.8,0.2,1.1,0c0.1-0.1,0.1-0.2,0.1-0.3c0-0.1,0-0.3-0.1-0.4c0-0.1,0-0.1,0-0.1
												l0,0l0.2,0.1c0.3,0.1,0.7-0.1,0.8-0.4c0.2-0.5,0.1-1.1-0.4-1.4c-0.3-0.2-1.1-1-1.8-1.7c-0.5-0.5-0.9-0.9-1.1-1
												c-0.1-0.1-0.3-0.3-0.4-0.4c0.1-0.2,0.1-0.4,0-0.5c-0.1-0.1-0.3-0.2-0.4-0.1h-0.1c0,0,0,0,0,0c0,0,0,0-0.1,0l0,0
												c0,0,0,0,0,0c0.2-0.4,0.3-0.9,0.4-1.3c0.2-0.5,0.1-1.1-0.3-1.6c-0.2-0.3-0.6-0.4-0.9-0.3c-0.6,0.1-1,0.5-1.4,0.9
												l-0.1-0.4l-0.2,0.1l-1.1,0.4l0.1,0.4c-0.6-0.2-1.2-0.2-1.7,0c-0.3,0.2-0.5,0.5-0.6,0.8c0,0.6,0.3,1.1,0.7,1.4
												c0.2,0.2,0.4,0.3,0.5,0.4c0,0-0.1,0-0.1,0.1c-0.2,0.1-0.3,0.3-0.4,0.4l-0.2,0.2C9.9,8.5,8.9,9,7.9,9.2
												c-0.1,0-0.2,0.1-0.3,0.2c0,0.2,0.2,0.5,0.6,0.7s0.5,0.7,0.3,1.8l0,0c0,0.1,0,0.3,0.1,0.4c0.1,0.1,0.3,0.1,0.7,0l0.1,0
												l0.1,0c0,0.1,0,0.1,0,0.2l0,0.1l0,0.1c-0.1,0.3-0.1,0.6-0.1,0.9c0,0.2,0,0.3,0.1,0.5c0.2,0.4,0.4,0.8,0.7,1.1
												c0.1,0.1,0.2,0.2,0.4,0.2c0.2,0,0.3-0.1,0.4-0.3c0,0,0,0,0,0c0,0.1,0.1,0.2,0.1,0.2l0,0c0.2,0.7,0.8,1.3,1.5,1.5
												c0.2,0.1,0.4,0.1,0.6,0c0.2-0.1,0.3-0.3,0.3-0.5c0-0.1,0-0.2,0.1-0.4c0,0,0-0.1,0-0.1c0,0,0,0,0.1,0.1c0.6,0.9,1,1.9,1,3
												c0,0.3,0,0.7-0.1,1c-0.1,0.5-0.3,0.9-0.5,1.3c-0.1,0.3-0.2,0.5-0.3,0.8c-0.5,0.4-1.1,0.8-1.6,1.1l-0.3,0.2
												c-1.2,0.9-2,2.2-2.1,3.7c0,0,0,0.1,0,0.1c-0.9,0.3-1.5,0.3-1.8-0.1c-0.7-0.8-0.2-1.7,0.6-2.7L8.6,24l0.2-0.3
												c0,0,0.2-0.2,0.2-0.3c0,0.1,0,0.1,0,0.2L9.2,24l0.1,0.3c0,0.2,0.1,0.3,0.3,0.3c0.1,0,0.3,0.2,0.7-0.7
												c0.1-0.2,0.3-0.5,0.5-0.8l0.3-0.5c0.3-0.4,0.3-0.9-0.1-1.2c-0.1-0.1-0.1-0.1-0.2-0.1c-0.2-0.2-0.2-0.2,0-0.6l0.1-0.1
												c0.6-1.4,0.5-3-0.2-4.3C10,15,8.9,14,7.5,14.3c-0.7,0.2-1.3,0.4-1.9,0.8c-0.5,0.3-1.1,0.6-1.7,0.7
												c-0.5,0.1-1.1,0.3-1.6,0.4c-0.1,0-0.3,0.1-0.4,0.3c0,0,0,0,0,0c0,0.2,0.2,0.3,0.6,0.5c0.2,0.1,0.4,0.2,0.6,0.4
												c-0.3,0.4-0.6,0.8-1,1.1c-0.1,0.1-0.2,0.2-0.2,0.3c0,0,0,0,0,0.1c0,0.2,0.3,0.4,0.7,0.5h0l0,0.1c-0.1,0.6,0,1.2,0.2,1.7
												l0.1,0.1c0.3,0.5,0.6,1,0.8,1.5c0,0.1,0,0.2-0.1,0.3c-0.1,0.2-0.1,0.4,0,0.6c0.1,0.1,0.2,0.2,0.3,0.2
												c0.5,0.1,0.7-0.3,0.8-0.6l0.1-0.2c0.2-0.4,0.5-1,0.8-1.5l0.2-0.3c0.5-0.7,0.8-1.5,0.8-2.4l0.2,0c0.1,0,0.2,0,0.3,0l0.1,0
												c0.2,0,0.4-0.1,0.5-0.3S7.5,18.2,7.4,18C7,17.6,6.9,17.1,7,16.6C7.1,16.2,7.3,16,7.5,16c0.7,0.1,1.3,0.4,1.7,1
												c0.3,0.5,0.5,1,0.5,1.5c0,0.2,0,0.3,0,0.5c-0.1,0.5-0.2,0.6-0.2,0.6c0,0-0.1,0-0.1,0l-0.2,0c-0.4-0.1-0.8,0-1.1,0.2
												l-0.1,0.1c-0.2,0.1-0.5,0.3-0.5,0.7c0,0.3,0.3,0.4,0.5,0.5c0.1,0,0.2,0.1,0.2,0.2c0,0.5-0.2,1-0.5,1.3l-0.1,0.2L7.3,23
												c-1.3,1.7-1.7,3.3-1.2,4.4c0.3,0.7,1.2,1.5,3.3,1.5C9.3,29.3,9.2,29.7,9,30c-0.4,0.6-1.1,1-1.9,1L7,31l-0.1,0
												c-0.2,0-0.3,0.1-0.5,0.2c-0.2,0.2-0.2,0.6-0.2,1.4c0.1,0.7,0,1.4-0.1,2.1C6,34.8,6,35,6,35.1c0,0.1,0,0.2-0.1,0.4
												c0,0.2-0.1,0.3-0.1,0.5c0,0.1,0,0.3,0.1,0.4c0.1,0.1,0.3,0.2,0.4,0.2l0.5,0c0.1,0,0.2,0,0.3,0c0,0,0,0,0,0
												c0,0,0,0.1,0,0.1H1.7l1.7,3c-0.1,0.2-1.6,3.1-1.6,3.1h14.5l0.8,2.8c4.7-1.7,9.7-2.5,14.6-2.6h0c5,0,10,0.9,14.7,2.6
												l0.8-2.8h14.2c0,0-1.5-2.9-1.6-3.1c0.1-0.2,1.7-3,1.7-3h-6.1c0.1-0.4,0.1-0.8,0.1-1.1c0-0.2-0.1-0.5-0.1-0.8
												c-0.1-0.3-0.1-0.5-0.1-0.8c0-0.3,0-1.3,0-1.5c0.1-0.6-0.6-1.2-0.9-1.4l-0.1-0.1c-0.3-0.3-0.6-0.6-0.9-0.9
												c1.3,0.5,2.8,0.1,3.6-1c0.3-0.4,0.6-0.9,0.7-1.3l0-0.1c0.1-0.3,0.3-0.6,0.6-0.9c0.3-0.3,1.6-2,1.2-2.7
												c-0.3-0.5-1-0.2-1.3-0.1c-0.1,0-0.2,0-0.3-0.4c-0.1-0.3-0.3-1.1-0.3-1.2v0c0-0.1,0-0.4-0.3-0.5c-0.2-0.1-0.4,0-0.5,0.1
												c-0.1,0.1-0.1,0.1-0.2,0.1c-0.1,0-0.1-0.1-0.2-0.2c-0.1-0.2-0.2-0.5-0.2-0.7l-0.1-0.2l0-0.1c0-0.2-0.1-0.4-0.3-0.4
												s-0.4,0.1-0.5,0.3c-0.1,0.1-0.2,0.2-0.3,0.4c-0.9-0.7-1.3-1.8-1.1-3c0-0.7,0.4-1.3,1-1.6c0.6-0.2,1.3-0.2,1.8,0l0.1,0.1
												c0.1,0,0.1,0.1,0.2,0.1c0,0,0,0-0.1,0.1l0,0l0,0c-0.3,0.3-0.5,0.7-0.5,1.1c0.2,1,0.6,1.8,1.4,2.5v0
												c-0.1,1,0.2,1.9,0.8,2.7c0.2,0.2,0.5,0.3,0.8,0.3c0.5-0.1,0.9-0.3,1.3-0.5c0.1-0.1,0.5-0.4-0.1-0.6s-0.4-0.7-0.4-0.9
												c0.1-0.5,0.2-0.9,0.5-1.3c0.1-0.2,0.1-0.4,0.1-0.6c0-0.3-0.1-0.7-0.2-1c0.1,0,0.2,0,0.3-0.1c0.3-0.1,0.5-0.3,0.6-0.5
												c0,0,0-0.1,0-0.1c0-0.2-0.1-0.3-0.2-0.4C61.4,17.3,61.4,17.1,61.4,17z">
            </path>
           </defs>
           <clipPath id="SVGID_64_">
            <use xlink:href="#SVGID_63_" style="overflow:visible;">
            </use>
           </clipPath>
           <g id="Group_2338" class="st32">
            <g id="Group_2337" transform="translate(0 0)">
             <g>
              <defs>
               <rect id="SVGID_65_" x="1.7" y="1.7" width="60.2" height="44">
               </rect>
              </defs>
              <clipPath id="SVGID_66_">
               <use xlink:href="#SVGID_65_" style="overflow:visible;">
               </use>
              </clipPath>
              <g id="Group_2336" class="st33">
               <rect id="Rectangle_5281" y="0" class="st1" width="63.5" height="47.3">
               </rect>
              </g>
             </g>
            </g>
           </g>
          </g>
         </g>
        </g>
       </g>
      </g>
     </g>
    </g>
   </g>
  </g>
  <g id="Group_2346" transform="translate(108.466 358.239)">
   <g>
    <defs>
     <path id="SVGID_67_" d="M2.9,1.9c-0.3-0.2-0.7-0.3-1-0.2C1.8,1.8,1.7,1.9,1.7,2c0,0.1,0.3,0.3,0.4,0.4c0.2,0.1,0.4,0.1,0.6,0
					C2.8,2.4,3,2.4,3.1,2.3c0.2,0,0.2-0.1,0.1-0.2C3.1,2.1,3,2,2.9,1.9">
     </path>
    </defs>
    <clipPath id="SVGID_68_">
     <use xlink:href="#SVGID_67_" style="overflow:visible;">
     </use>
    </clipPath>
    <g id="Group_2345" transform="translate(0 0)" class="st34">
     <rect id="Rectangle_5285" x="0" y="0" class="st1" width="5" height="4.2">
     </rect>
    </g>
   </g>
  </g>
  <g id="Group_2348" transform="translate(77.707 359.663)">
   <g>
    <defs>
     <path id="SVGID_69_" d="M1.9,2.1c0.2,0.1,0.4,0.2,0.6,0.3c0.3,0.1,0.4,0,0.5-0.3S2.8,1.7,2.7,1.7s-0.4,0-0.7,0
					C1.5,1.8,1.8,2,1.9,2.1">
     </path>
    </defs>
    <clipPath id="SVGID_70_">
     <use xlink:href="#SVGID_69_" style="overflow:visible;">
     </use>
    </clipPath>
    <g id="Group_2347" transform="translate(0)" class="st35">
     <rect id="Rectangle_5286" x="0" y="0" class="st1" width="4.7" height="4.2">
     </rect>
    </g>
   </g>
  </g>
 </g>
</svg>