<svg width="64" height="64" viewBox="0 0 64 64" fill="none" xmlns="http://www.w3.org/2000/svg">
<g clip-path="url(#clip0_208_797)">
<path d="M14 51.2733C14.1049 51.6863 14.4591 52.1084 14.9451 52.2141H16.4139L16.4889 52.244V55.9852H17.4061V52.244L17.4894 52.2141H18.9595C19.4509 52.0863 19.7975 51.6863 19.9006 51.2733V51.2642H14V51.2733Z" fill="#E82127"/>
<path d="M23.0778 55.9957H26.5672C27.0527 55.8983 27.4135 55.4665 27.5146 55.0486H22.1304C22.2309 55.4666 22.597 55.8983 23.0778 55.9957Z" fill="#E82127"/>
<path d="M23.0778 54.0766H26.5672C27.0527 53.98 27.4135 53.5481 27.5146 53.1296H22.1304C22.2309 53.5482 22.597 53.98 23.0778 54.0766Z" fill="#E82127"/>
<path d="M23.0778 52.2091H26.5672C27.0527 52.1114 27.4135 51.6799 27.5146 51.2617H22.1304C22.2309 51.6799 22.597 52.1114 23.0778 52.2091Z" fill="#E82127"/>
<path d="M31.036 52.2H34.2596C34.7456 52.0575 35.1537 51.6838 35.2532 51.2695H30.1323V54.062H34.3236V55.0419L31.036 55.0445C30.5208 55.1895 30.0839 55.5387 29.866 55.9999L30.1323 55.995H35.2241V53.1336H31.036V52.2Z" fill="#E82127"/>
<path d="M42.0064 55.9961C42.4641 55.8003 42.7103 55.4615 42.8046 55.0651H38.7331L38.7357 51.2682L37.823 51.2708V55.9961H42.0064Z" fill="#E82127"/>
<path d="M45.5624 52.2128H49.053C49.5378 52.1155 49.8983 51.6837 50 51.2659H44.6155C44.7161 51.6838 45.082 52.1155 45.5624 52.2128Z" fill="#E82127"/>
<path d="M44.7559 53.1371V55.9943H45.6636V54.092H48.9675V55.9943H49.8747V53.142L44.7559 53.1371Z" fill="#E82127"/>
<path d="M32.0019 41.9255L36.5848 15.9089C40.9531 15.9089 42.331 16.3924 42.53 18.3659C42.53 18.3659 45.4604 17.263 46.9384 15.0231C41.1708 12.3254 35.3758 12.2038 35.3758 12.2038L31.9942 16.3611L32.0019 16.3606L28.6203 12.2031C28.6203 12.2031 22.8251 12.3249 17.0583 15.0226C18.5351 17.2625 21.4666 18.3654 21.4666 18.3654C21.6667 16.3917 23.0429 15.9082 27.382 15.9051L32.0019 41.9255Z" fill="#E82127"/>
<path d="M32.0001 11.0029C36.6624 10.9669 41.9988 11.7309 47.4618 14.1342C48.1919 12.8077 48.3796 12.2215 48.3796 12.2215C42.4078 9.83663 36.8153 9.02047 31.9995 9C27.1839 9.02047 21.5916 9.83676 15.6206 12.2215C15.6206 12.2215 15.887 12.9436 16.5378 14.1342C21.9997 11.7309 27.3371 10.9669 31.9995 11.0029H32.0001Z" fill="#E82127"/>
</g>
<defs>
<clipPath id="clip0_208_797">
<rect width="36" height="47" fill="white" transform="translate(14 9)"/>
</clipPath>
</defs>
</svg>
