<svg width="64" height="64" viewBox="0 0 64 64" fill="none" xmlns="http://www.w3.org/2000/svg">
<g clip-path="url(#clip0_208_858)">
<path d="M28.2601 40.2342C26.9209 39.2793 25.2894 38.858 23.8079 38.9178C22.3092 38.9777 21.6356 40.1104 21.6356 40.1104C20.9599 38.9164 19.6236 38.182 17.5589 38.1991C14.2231 38.2369 10.9106 39.7957 8.28971 39.7943C5.77277 39.7928 3.94014 38.1924 4.0015 35.3485C4.11043 30.3634 8.2704 25.8726 11.3796 23.8516C13.166 22.6899 14.6624 22.3456 15.6417 22.4569C16.3547 22.5373 17.2137 23.3732 16.6714 24.6034C15.876 26.4066 14.7772 26.2553 14.8172 25.3942C14.8408 24.8343 15.2081 24.4818 15.4844 24.2895C15.6607 24.1664 15.9704 24.1306 16.1324 24.1279C16.2894 23.9932 16.4097 23.0073 15.1297 23.3321C13.8488 23.6562 12.3086 24.9296 10.8387 26.5705C9.36886 28.211 7.08199 31.3234 6.51592 34.5863C6.25183 36.1008 6.42711 38.8595 9.96697 38.8299C12.9674 38.8048 17.4003 36.8046 21.4693 36.8421C23.0489 36.8569 24.4232 37.2881 25.4943 37.9592C26.5513 38.6207 27.8136 39.58 28.2601 40.2342ZM29.226 31.1953L29.8414 31.1956C29.8414 31.1956 26.7566 35.7104 25.0134 35.5046C24.0404 35.3905 24.3289 34.1737 24.3289 34.1737C24.3289 34.1737 22.9594 35.7944 21.7097 35.4697C20.5719 35.1738 21.3055 33.2573 21.3055 33.2573C21.1765 33.3096 18.7129 36.123 16.9837 35.4474C15.1731 34.7398 16.113 32.3851 16.4581 31.6769C16.7495 31.0802 17.0723 30.4981 17.0723 30.4981C17.0723 30.4981 16.7944 30.5781 16.6219 30.6186C16.4497 30.6586 16.187 30.7102 16.187 30.7102C16.187 30.7102 15.3303 32.1203 14.8075 32.8234C14.2837 33.5279 12.0588 35.9467 10.7473 35.464C9.43722 34.9803 9.76135 33.1244 10.4983 31.6485C11.6932 29.2549 14.5279 26.3147 16.2333 26.7559C17.9568 27.2021 16.5297 30.0352 16.5297 30.0352C16.5297 30.0352 16.8726 30.08 17.6948 29.5124C18.8805 28.6954 20.4403 26.4946 22.132 26.7528C22.9265 26.8737 23.665 27.6997 22.6538 29.2672C22.3291 29.7704 21.7861 30.2206 21.3691 29.7764C21.1105 29.5015 21.3359 28.9959 21.608 28.6497C21.9924 28.1601 22.5223 28.2276 22.5223 28.2276C22.5223 28.2276 22.8005 27.5772 22.0914 27.5903C21.5161 27.6012 20.0596 28.9598 19.2368 30.3323C18.4816 31.5916 17.3396 33.7386 18.4873 34.2072C19.5395 34.6369 21.5397 32.2314 22.4674 30.9702C23.3951 29.7103 25.5042 26.8511 27.2751 26.7354C27.8847 26.6952 28.2482 27.258 28.2482 27.258L28.4535 26.9297L30.2214 26.9306C30.2214 26.9306 26.885 32.571 26.6238 32.9983C26.418 33.3329 26.1455 34.0841 26.9013 33.6623C27.6564 33.2399 29.226 31.1953 29.226 31.1953ZM15.4991 30.6156C15.4681 30.6044 15.0227 30.4747 14.5881 30.1924C14.153 29.9109 13.9531 29.4933 13.9377 29.4633C13.9213 29.4344 13.9039 29.4568 13.8869 29.4816C13.8684 29.5057 13.7758 29.6268 13.1442 30.5655C12.5126 31.5035 11.5764 33.4257 12.4527 33.7547C13.0142 33.9649 13.9565 32.9672 14.4667 32.3069C14.9395 31.6943 15.5029 30.7522 15.5277 30.6963C15.552 30.6403 15.5292 30.6262 15.4991 30.6156ZM16.2003 27.6172C15.7368 27.262 14.5549 28.0924 14.5481 28.942C14.5412 29.8133 15.6151 30.0617 15.7533 30.0689C15.7533 30.0689 15.8743 30.1026 15.9224 29.9987C15.9527 29.9342 16.0986 29.6616 16.2623 29.2291C16.4257 28.7971 16.632 27.9495 16.2003 27.6172ZM25.2137 32.3206C25.9284 31.3276 27.9017 27.8507 27.9017 27.8507C27.9017 27.8507 27.8691 27.6058 27.6391 27.5956C27.3665 27.5833 26.9143 27.6761 26.0076 28.8223C25.0998 29.968 24.402 30.8819 23.8901 31.8299C23.3301 32.8651 23.0848 33.5962 23.4063 33.7949C23.4963 33.8494 23.6328 33.8579 23.7439 33.8297C23.9542 33.7767 24.2276 33.564 24.6038 33.1249C24.7804 32.9189 24.9806 32.6436 25.2137 32.3206ZM33.169 26.9392L31.489 26.9384L30.5397 28.4946L32.2199 28.4954L33.169 26.9392ZM57.9737 24.1566C56.7309 24.9647 55.0091 25.6973 53.3559 25.535C52.9382 25.974 52.4895 26.4805 52.04 27.0344C54.9076 27.6086 57.4185 25.8104 58.7542 24.2777C59.5887 23.3215 60 22.4675 60 22.4675C60 22.4675 59.2046 23.3554 57.9737 24.1566ZM53.0498 37.3529C52.8119 37.739 52.5419 38.4777 53.328 38.0172C54.2848 37.4574 55.6478 35.3629 55.6478 35.3629L56.2645 35.3632C56.2645 35.3632 55.4514 36.6642 54.3909 37.8524C53.4208 38.9403 52.2383 39.9299 51.4051 39.8311C50.4323 39.7169 50.737 38.4219 50.737 38.4219C50.737 38.4219 49.3396 39.9242 48.3801 39.8159C47.0797 39.6703 47.4762 38.0404 47.4762 38.0404C47.4762 38.0404 46.0048 39.8728 45.0031 39.8142C43.431 39.7226 43.8267 37.7796 44.264 36.421C44.4986 35.6924 44.7149 35.1186 44.7149 35.1186C44.7149 35.1186 44.5586 35.1603 44.2249 35.2101C44.0501 35.2353 43.7313 35.2528 43.7313 35.2528C43.7313 35.2528 43.0766 36.4228 42.5538 37.1259C42.0299 37.8304 39.8044 40.2515 38.4949 39.767C37.2846 39.3184 37.6843 37.4408 38.39 35.9486C39.4187 33.7739 42.3119 30.6485 43.9796 31.0585C45.7094 31.4837 44.019 34.68 44.019 34.68C44.019 34.68 44.0196 34.6927 44.0368 34.6996C44.0719 34.7132 44.1614 34.7219 44.3707 34.6823C44.7032 34.6177 45.0036 34.4911 45.0036 34.4911C45.0036 34.4911 46.7425 30.8021 48.664 28.3895C50.5843 25.9762 54.4173 21.8214 55.9218 22.8272C56.2901 23.074 56.1224 23.9259 55.6267 24.9594C55.4076 25.0293 55.1802 25.0905 54.9479 25.1398C55.2788 24.5307 55.4994 24.0168 55.564 23.6584C55.7896 22.4117 52.9164 25.0387 50.8621 27.8679C48.8081 30.6959 47.5752 33.2576 47.5752 33.2576C47.5752 33.2576 47.9892 33.0199 48.635 32.4932C49.3093 31.943 50.2368 31.0813 51.244 30.0274C51.9219 29.3185 52.7187 28.4277 53.4642 27.4324C53.6868 27.4215 53.9048 27.3987 54.1172 27.3646C53.2857 28.4986 52.4106 29.5335 51.6679 30.2955C50.8512 31.1338 49.9627 32.0376 49.191 32.6954C47.9649 33.7392 47.0185 34.3303 47.0185 34.3303C47.0185 34.3303 45.2174 37.9956 46.1954 38.2325C46.7701 38.3714 47.9048 36.6014 47.9048 36.6014C47.9048 36.6014 49.3838 34.3139 50.2762 33.2852C51.494 31.8831 52.5411 31.0743 53.5879 31.0572C54.198 31.0463 54.5579 31.7052 54.5579 31.7052L54.8453 31.2556L56.6119 31.2565C56.6119 31.2565 53.3132 36.9264 53.0498 37.3529ZM43.115 35.1149C43.0842 35.1041 42.7013 34.9267 42.3034 34.5902C41.9074 34.2551 41.7065 33.8701 41.6914 33.8407C41.6758 33.8116 41.6582 33.8341 41.6402 33.8583C41.6227 33.883 41.5519 33.9465 40.9191 34.8846C40.2881 35.8237 39.3216 37.7582 40.198 38.0878C40.759 38.2983 41.6929 37.3039 42.2036 36.6444C42.677 36.0316 43.1197 35.2525 43.1434 35.1961C43.1684 35.1402 43.1464 35.1264 43.115 35.1149ZM44.0086 33.5317C44.1715 33.0996 44.3788 32.2519 43.9472 31.9198C43.483 31.5651 42.3017 32.3957 42.2951 33.2452C42.2875 34.1159 43.1263 34.5094 43.3292 34.5649C43.4437 34.5969 43.4838 34.5922 43.5396 34.4984C43.5746 34.4375 43.8451 33.9641 44.0086 33.5317ZM54.1564 32.3404C54.192 32.2761 54.2091 32.2197 54.2091 32.2197C54.2091 32.2197 54.1766 31.9747 53.9466 31.9647C53.674 31.9515 53.3002 32.0042 52.3244 33.0993C51.3523 34.1897 50.7606 35.1372 50.2481 36.0846C49.6885 37.1206 49.4627 37.8909 49.7845 38.0893C49.8746 38.1455 50.0117 38.1521 50.122 38.1251C50.3407 38.0708 50.5858 37.8656 50.9629 37.426C51.1386 37.2208 51.3342 36.9275 51.5672 36.6035C52.2103 35.7118 53.8343 32.9058 54.1564 32.3404ZM57.9737 24.1566C56.7309 24.9648 55.0091 25.6973 53.3559 25.535C52.9382 25.974 52.4895 26.4805 52.04 27.0344C54.9076 27.6086 57.4185 25.8104 58.7542 24.2777C59.5887 23.3215 60 22.4675 60 22.4675C60 22.4675 59.2046 23.3554 57.9737 24.1566ZM49.9133 26.2591C48.5566 25.5549 47.566 24.6934 46.5338 24.1568C45.5491 23.6446 44.913 23.4311 44.1178 23.5379C43.9867 23.5567 43.7896 23.6207 43.7896 23.6207C43.7896 23.6207 44.1996 25.0379 42.5694 27.4207C40.9176 29.8334 39.419 29.8203 38.9938 29.1531C38.548 28.4535 39.1228 27.0256 40.0853 25.7563C41.0926 24.4282 42.8627 23.3258 42.8627 23.3258C42.8627 23.3258 42.2982 22.9765 40.9116 23.7722C39.5619 24.5457 37.2296 26.3894 35.0744 29.5001C32.9194 32.6101 32.4879 34.3225 32.1764 35.67C31.8642 37.0176 32.1482 38.4597 33.6237 38.4606C35.1 38.4613 36.8166 36.1816 37.3006 35.389C38.2008 33.9135 38.7886 31.6496 37.5633 31.9617C36.9595 32.1144 36.4711 32.7928 36.1631 33.4432C35.8461 34.1129 35.7189 34.7527 35.7189 34.7527C35.7189 34.7527 35.2088 34.9373 34.5236 35.4568C33.8378 35.9763 33.39 36.4717 33.39 36.4717C33.39 36.4717 33.3948 35.3955 34.2428 33.6524C35.0906 31.9096 36.6467 31.1121 37.5272 31.0385C38.3216 30.973 39.3541 31.6571 38.4793 34.1775C37.6044 36.6987 35.0208 39.7552 32.3068 39.7943C29.8027 39.8294 28.1632 36.5908 31.6494 30.9418C35.5053 24.694 40.0346 22.7781 41.5032 22.5647C42.9737 22.3511 43.4497 23.0084 43.4497 23.0084C43.4497 23.0084 44.6816 22.4333 46.2435 22.5414C48.0382 22.6646 49.4264 23.9511 51.2561 24.8546C50.7774 25.324 50.3221 25.806 49.9133 26.2591ZM43.2315 23.8059C43.2315 23.8059 42.1812 24.2291 40.9606 25.5919C39.7356 26.9588 39.0285 28.4885 39.5542 28.8943C39.7558 29.0494 40.2212 29.0755 41.0684 28.3053C41.7295 27.7045 42.4017 26.9173 42.8585 25.7907C43.4055 24.4406 43.2315 23.8225 43.2315 23.8059Z" fill="black"/>
<path d="M29.0248 16.002L25.2728 16L25.2725 16.8409L26.686 16.8421L26.6841 20.2961L27.6089 20.2965L27.6107 16.8423L29.0244 16.8431L29.0248 16.002ZM33.0233 16.0042L33.0223 17.5613L30.8547 17.5602L30.8555 16.003L29.9313 16.0024L29.929 20.2978L30.8532 20.2984L30.8541 18.3954L33.0218 18.3965L33.0209 20.2993L33.9455 20.2999L33.948 16.0045L33.0233 16.0042ZM38.6104 19.4849L36.102 19.4835L36.1026 18.494L37.7923 18.4947L37.7927 17.6714L36.103 17.6704L36.1034 16.8234L38.553 16.8249L38.6719 16.0072L35.1791 16.0055L35.1769 20.3006L38.7278 20.3026L38.6104 19.4849Z" fill="black"/>
<path d="M17.2628 48.9974C17.6087 48.9979 17.9313 48.9411 18.2319 48.828C18.5322 48.7158 18.7791 48.5458 18.9711 48.3185L18.3939 47.6799C18.088 47.9942 17.7173 48.1507 17.2814 48.1505C17.006 48.1503 16.7578 48.0899 16.5364 47.9683C16.3139 47.8469 16.142 47.6818 16.0187 47.4735C15.8952 47.2636 15.8329 47.0306 15.8329 46.7722C15.8331 46.5133 15.8957 46.2798 16.0221 46.0708C16.1473 45.862 16.3195 45.6975 16.5375 45.5759C16.7561 45.4548 16.9995 45.3937 17.2706 45.394C17.479 45.394 17.6722 45.4338 17.851 45.5104C18.0295 45.5885 18.2017 45.7115 18.3657 45.8788L18.9436 45.2286C18.7549 45.0055 18.513 44.8369 18.2167 44.7212C17.9204 44.6056 17.5972 44.5471 17.2478 44.5471C16.7967 44.5466 16.3898 44.6427 16.0287 44.8361C15.6677 45.028 15.3847 45.2951 15.1805 45.6348C14.9763 45.9753 14.8736 46.3535 14.8733 46.7716C14.8731 47.1891 14.9753 47.5679 15.1794 47.9081C15.3832 48.2474 15.6664 48.5146 16.0294 48.7077C16.3919 48.9015 16.8036 48.9972 17.2628 48.9974ZM21.7151 48.9999C22.1518 49.0002 22.5412 48.9059 22.8848 48.718C23.2285 48.5284 23.4976 48.2655 23.6924 47.9272C23.8865 47.5896 23.984 47.2056 23.9843 46.7766C23.9845 46.3468 23.8874 45.9633 23.6935 45.6248C23.4992 45.2871 23.2305 45.0227 22.887 44.8331C22.5434 44.6448 22.1541 44.5496 21.7175 44.5494C21.2817 44.5489 20.8931 44.6438 20.5485 44.832C20.2048 45.0211 19.9358 45.2849 19.7418 45.6226C19.5468 45.961 19.4493 46.3445 19.4492 46.7743C19.449 47.203 19.5461 47.5873 19.7404 47.9251C19.9342 48.2638 20.203 48.5265 20.5464 48.7167C20.8908 48.9052 21.2792 48.9996 21.7151 48.9999ZM21.7156 48.1529C21.4643 48.1529 21.2398 48.0944 21.0424 47.9765C20.8432 47.8587 20.688 47.6962 20.5769 47.4871C20.4653 47.278 20.4094 47.0409 20.4095 46.7746C20.4095 46.5075 20.4655 46.2698 20.5777 46.0618C20.6888 45.8521 20.8445 45.6894 21.0435 45.5725C21.2413 45.4556 21.4656 45.3962 21.717 45.3963C21.9692 45.3963 22.1927 45.456 22.3918 45.5734C22.59 45.6905 22.7454 45.853 22.8565 46.0629C22.9681 46.2712 23.0241 46.5089 23.0239 46.776C23.0236 47.0423 22.9678 47.2794 22.8558 47.4883C22.7444 47.6971 22.589 47.8598 22.3905 47.9775C22.1913 48.095 21.9676 48.153 21.7156 48.1529ZM29.9863 44.6318L28.7443 44.6312L27.4989 47.6135L26.2286 44.6298L24.9864 44.629L24.9842 48.9244L25.8792 48.9251L25.8807 45.8527L27.1692 48.866L27.7874 48.8663L29.0902 45.7762L29.0885 48.9266L29.9842 48.9272L29.9863 44.6318ZM33.3964 44.6337L31.217 44.6324L31.2147 48.9276L32.1396 48.9282L32.1402 47.3594L33.3948 47.36C33.7159 47.3603 33.9899 47.3008 34.2137 47.1816C34.4367 47.0619 34.606 46.8993 34.7196 46.6926C34.8336 46.4859 34.8905 46.2532 34.8905 45.9951C34.8907 45.7353 34.8342 45.5036 34.7202 45.296C34.6071 45.0899 34.4379 44.928 34.2149 44.81C33.9912 44.6929 33.7174 44.6338 33.3963 44.6337M33.3713 46.5308L32.1405 46.53L32.1413 45.4625L33.3718 45.4631C33.5557 45.4632 33.7003 45.5089 33.8019 45.6001C33.9042 45.692 33.955 45.8232 33.955 45.9947C33.955 46.1652 33.9039 46.2978 33.8013 46.3906C33.6996 46.4839 33.5551 46.5308 33.3713 46.5308ZM38.4289 48.9318L39.4009 48.9323L37.7192 44.636L36.5817 44.6354L34.8956 48.9297L35.8617 48.9304L36.2151 47.9761L38.0762 47.977L38.4289 48.9318ZM36.5159 47.1653L37.1473 45.465L37.7769 47.166L36.5159 47.1653ZM43.2016 44.639L43.2001 47.5502L41.1698 44.6378L40.2109 44.6374L40.2088 48.9325L41.1085 48.9332L41.1102 45.9741L43.1697 48.9341L44.1002 48.9348L44.1023 44.6395L43.2016 44.639ZM49.1265 44.6423L48.108 44.6416L46.9992 46.6506L45.8757 44.6404L44.8333 44.6397L46.5273 47.5107L46.5265 48.9361L47.4521 48.9366L47.4528 47.4929L49.1265 44.6423Z" fill="black"/>
</g>
<defs>
<clipPath id="clip0_208_858">
<rect width="56" height="33" fill="white" transform="translate(4 16)"/>
</clipPath>
</defs>
</svg>
