<svg version="1.1" id="Layer_1" xmlns="http://www.w3.org/2000/svg" xmlns:xlink="http://www.w3.org/1999/xlink" x="0px" y="0px" viewBox="0 0 368.6 26.7" style="enable-background:new 0 0 368.6 26.7;" xml:space="preserve">
 <style type="text/css">
  .st0{fill:#00456F;}
 </style>
 <g>
  <path class="st0" d="M285.5,13.6c2.8,0,4-1.3,4-3.7S288.1,6,285.6,6h-3.8v19c0,0.6-0.5,1.1-1.1,1.1h-2.4c-0.6,0-1.1-0.5-1.1-1.1
		V4.5c0-0.6,0.5-1.1,1.1-1.1h7.6c4.7,0,7.6,2.1,7.6,6.5c0,3.4-2.2,5-4.7,5.7l4.9,9.2c0.1,0.2,0.2,0.4,0.2,0.6c0,0.4-0.2,0.7-0.6,0.8
		h-2.9c-0.4,0-0.7-0.3-0.9-0.6l-5.3-10.3c-0.2-0.3-0.3-0.7-0.4-1.1c0-0.3,0.2-0.6,0.8-0.6L285.5,13.6z">
  </path>
  <path class="st0" d="M307.2,26.6c-4.4,0-10-1.5-10-11.9s5.6-11.9,10-11.9s10,1.6,10,11.9S311.8,26.6,307.2,26.6z M307.2,5.5
		c-4.7,0-5.5,4.2-5.5,9.3s0.9,9.3,5.5,9.3s5.6-4,5.6-9.3C312.8,9.7,311.9,5.5,307.2,5.5z">
  </path>
  <path class="st0" d="M330.1,26.6c-6.1,0-8.6-3.4-8.6-7.6V4.5c0-0.6,0.5-1.1,1.1-1.1h2.3c0.6,0,1.1,0.5,1.1,1.1v14.8
		c0,3.8,1.8,4.8,4.3,4.8c3.3,0,4.3-2,4.3-4.8V4.5c0-0.6,0.5-1.1,1.1-1.1h1.9c0.6,0,1.1,0.5,1.1,1.1V19
		C338.7,23.8,335.7,26.6,330.1,26.6z">
  </path>
  <path class="st0" d="M350.7,14.8h1.1c2.3,0,4.1-1.2,4.1-4.3c0-3.4-1.8-4.5-4.2-4.5h-3.5v19.1c0,0.6-0.4,1-0.9,1.1c0,0-0.1,0-0.1,0
		h-2.3c-0.6,0-1.1-0.5-1.1-1.1V4.5c0-0.6,0.5-1.1,1.1-1.1h8.2c4.4,0,7,2.7,7,7.1c0,4-2.3,6.7-7,6.7c-0.8,0-1.5-0.1-2.3-0.2
		c-0.9-0.2-1.4-0.7-1.4-1.2C349.5,15.2,350,14.7,350.7,14.8C350.6,14.8,350.7,14.8,350.7,14.8z">
  </path>
  <path class="st0" d="M240.7,26.2h-2.2c-0.6,0-1.1-0.5-1.1-1.1c0,0,0,0,0,0V16h-8.8V25c0,0.6-0.5,1.1-1.1,1.1c0,0,0,0,0,0h-2.2
		c-0.6,0-1.1-0.5-1.1-1.1c0,0,0,0,0,0V4.5c0-0.6,0.5-1.1,1.1-1.1c0,0,0,0,0,0h2.2c0.6,0,1.1,0.5,1.1,1.1v8.3h8.8V4.5
		c0-0.6,0.5-1.1,1.1-1.1h2.2c0.6,0,1.1,0.5,1.1,1.1V25C241.8,25.6,241.4,26.1,240.7,26.2C240.7,26.2,240.7,26.2,240.7,26.2z">
  </path>
  <path class="st0" d="M9.5,26.6c-7,0-9.5-3.9-9.5-8.6V1.7C0,1,0.6,0.4,1.2,0.4h2c0.7,0,1.2,0.6,1.2,1.3v16.7c0,4.2,2.3,5.4,5.1,5.4
		c3.7,0,5.1-1.9,5.1-5.4V1.7c0-0.7,0.6-1.2,1.2-1.3h1.7c0.7,0,1.2,0.6,1.2,1.3v16.3C18.9,23.4,15.6,26.6,9.5,26.6z">
  </path>
  <path class="st0" d="M107.6,26.2h-8.2c-0.6,0-1.1-0.5-1.1-1.1V4.5c0-0.6,0.5-1.1,1.1-1.1h8.2c5.4,0,9.7,2.9,9.7,11.5
		S112.6,26.2,107.6,26.2z M106.5,6h-3.9v17.5h3.9c5.1,0,6.4-3.9,6.4-8.6S111.7,6,106.5,6L106.5,6z">
  </path>
  <path class="st0" d="M140.7,26.2h-2c-0.7,0-1.2-0.5-1.2-1.2c0,0,0,0,0,0V14.5H127v10.4c0,0.7-0.6,1.3-1.2,1.3c0,0,0,0,0,0h-1.9
		c-0.7,0-1.2-0.5-1.2-1.2c0,0,0,0,0,0V1.8c0-0.7,0.5-1.2,1.2-1.2h2c0.7,0,1.2,0.6,1.2,1.2v9.4h10.5V1.8c0-0.7,0.5-1.2,1.2-1.2h2
		c0.7,0,1.2,0.6,1.2,1.2v23.1C141.9,25.6,141.4,26.2,140.7,26.2z">
  </path>
  <path class="st0" d="M201.9,26.2h-11c-0.6,0-1.1-0.5-1.1-1.1c0,0,0,0,0,0V4.5c0-0.6,0.5-1.1,1.1-1.1h2.3c0.6,0,1.1,0.5,1.1,1.1
		v18.5h7.6c0.6,0,1.1,0.5,1.1,1.1v1C203,25.7,202.5,26.2,201.9,26.2z">
  </path>
  <path class="st0" d="M53.2,26.2H51c-0.6,0-1.1-0.5-1.1-1.1c0,0,0,0,0,0V4.5c0-0.6,0.5-1.1,1.1-1.1h2.3c0.6,0,1.1,0.5,1.1,1.1V25
		C54.4,25.7,53.9,26.2,53.2,26.2C53.3,26.2,53.3,26.2,53.2,26.2z">
  </path>
  <path class="st0" d="M74.3,6.6h-5.2V25c0,0.6-0.5,1.1-1.1,1.1c0,0,0,0,0,0h-2.2c-0.6,0-1.1-0.5-1.1-1.1V6.6h-5.2
		c-0.6,0-1.1-0.5-1.1-1.1v-1c0-0.6,0.5-1.1,1.1-1.1h14.8c0.6,0,1.1,0.5,1.1,1.1v1C75.4,6.1,74.9,6.6,74.3,6.6z">
  </path>
  <path class="st0" d="M219.1,6.6h-5.5V25c0,0.6-0.5,1.1-1.1,1.1h-2.2c-0.6,0-1.1-0.5-1.1-1.1V6.6h-5.6c-0.6,0-1.1-0.5-1.1-1.1v-1
		c0-0.6,0.5-1.1,1.1-1.1h15.6c0.6,0,1.1,0.5,1.1,1.1v1C220.1,6.1,219.7,6.6,219.1,6.6z">
  </path>
  <path class="st0" d="M93.2,26.2H80.3c-0.6,0-1-0.4-1.1-0.9c0,0,0-0.1,0-0.1V4.5c0-0.6,0.5-1.1,1.1-1.1h12.4c0.6,0,1.1,0.5,1.1,1.1
		v0.9c0,0.6-0.5,1.1-1.1,1.1h-9v6.3h8.1c0.6,0,1.1,0.5,1.1,1.1v0.9c0,0.6-0.5,1.1-1.1,1.1h-8.1V23h9.5c0.6,0,1.1,0.5,1.1,1.1
		c0,0,0,0,0,0.1v1c0,0.6-0.4,1-1,1C93.3,26.2,93.2,26.2,93.2,26.2z">
  </path>
  <path class="st0" d="M161.8,26.2H149c-0.6,0-1-0.4-1.1-0.9c0,0,0-0.1,0-0.1V4.5c0-0.6,0.5-1.1,1.1-1.1h12.4c0.6,0,1.1,0.5,1.1,1.1
		v0.9c0,0.6-0.5,1.1-1.1,1.1h-9v6.3h8.1c0.6,0,1.1,0.5,1.1,1.1v0.9c0,0.6-0.5,1.1-1.1,1.1h-8.1V23h9.5c0.6,0,1.1,0.5,1.1,1.1v1
		C162.9,25.7,162.4,26.2,161.8,26.2C161.9,26.2,161.8,26.2,161.8,26.2z">
  </path>
  <path class="st0" d="M42,26.2h-3.4c-0.8,0.1-1.5-0.4-1.8-1.1C35.1,21.5,28.7,7,28.7,7v18c0,0.6-0.5,1.1-1.1,1.1h-1.5
		c-0.6,0-1.1-0.5-1.1-1.1V4.5c0-0.6,0.5-1.1,1.1-1.1h3.2c0.8-0.1,1.6,0.3,1.9,1.1c1.8,3.8,8.1,17.9,8.1,17.9V4.5
		c0-0.6,0.5-1.1,1.1-1.1h1.5c0.6,0,1.1,0.5,1.1,1.1v20.6C43,25.6,42.5,26.1,42,26.2z">
  </path>
  <path class="st0" d="M271.2,25.4c-2.2,1-4.6,1.4-7,1.3c-6.4,0-12.2-2.7-12.2-13.4C252,5,255.6,0,264.2,0c2.3-0.1,4.6,0.4,6.7,1.3
		c0.8,0.3,0.8,0.5,0.8,0.9c0,0.2-0.1,0.7-0.1,0.9c-0.1,0.6-0.3,1.7-0.4,2.3c-0.1,0.3-0.1,0.8-0.6,0.8s-0.7-0.5-1-0.7
		c-1.4-1.5-3.4-2.3-5.5-2.3C258,3,257,8.9,257,13.4c0,6.2,2,10.3,7.2,10.3c1.1,0,2.2-0.1,3.3-0.4v-8.4c0-0.5,0.3-0.7,0.8-0.7h2.8
		c0.6,0,0.8,0.2,0.8,0.7v9.2C272,25,271.9,25.1,271.2,25.4z">
  </path>
  <path class="st0" d="M185.6,24.7L179,4.4c-0.2-0.7-0.9-1.1-1.6-1h-2.9c-0.7-0.1-1.3,0.4-1.5,1l-6.5,20.4c-0.1,0.2-0.1,0.3-0.1,0.5
		c0,0.4,0.4,0.8,0.8,0.8h1.5c0.7,0.1,1.4-0.4,1.6-1l1.3-4.3h8.3l1.4,4.3c0.2,0.7,0.9,1.1,1.6,1h2.1c0.4,0,0.8-0.3,0.8-0.7
		c0,0,0-0.1,0-0.1C185.7,25.1,185.6,24.9,185.6,24.7z M172.3,18l3.4-11.3l3.2,11.3H172.3z">
  </path>
  <path class="st0" d="M365.3,2.9c1.8,0,3.3,1.5,3.3,3.3c0,1.8-1.5,3.3-3.3,3.3c-1.8,0-3.3-1.5-3.3-3.3c0,0,0,0,0,0
		C362,4.4,363.5,2.9,365.3,2.9C365.3,2.9,365.3,2.9,365.3,2.9z M365.3,9c1.5,0.1,2.8-1.1,2.9-2.7c0.1-1.5-1.1-2.8-2.7-2.9
		c-1.5-0.1-2.8,1.1-2.9,2.7c0,0,0,0.1,0,0.1c-0.1,1.5,1.1,2.7,2.5,2.8C365.3,9,365.3,9,365.3,9L365.3,9z M364.1,4.3h1.5
		c0.9,0,1.3,0.4,1.3,1.1c0,0.6-0.4,1-0.9,1.1c0,0,0,0-0.1,0l1.1,1.7h-0.6l-1.1-1.7h-0.5v1.7h-0.6L364.1,4.3z M364.7,5.9h0.8
		c0.5,0,0.8-0.1,0.8-0.6s-0.4-0.6-0.8-0.6h-0.8V5.9z">
  </path>
 </g>
</svg>