<svg width="64" height="64" viewBox="0 0 64 64" fill="none" xmlns="http://www.w3.org/2000/svg">
<g clip-path="url(#clip0_208_769)">
<path d="M15.3201 41.6378C15.3201 39.7667 16.3769 38.7551 17.7895 38.7551C19.0966 38.7551 19.7188 39.4719 19.9704 40.4907L19.0658 40.7468C18.8529 40.0082 18.5269 39.6301 17.782 39.6301C16.8316 39.6301 16.2776 40.3622 16.2776 41.6306C16.2776 42.9592 16.8473 43.6904 17.7974 43.6904C18.5269 43.6904 18.9368 43.3282 19.15 42.4903L20.0539 42.6946C19.78 43.8042 19.0881 44.551 17.7895 44.551C16.3458 44.551 15.3201 43.5625 15.3201 41.6378Z" fill="black"/>
<path d="M20.5715 42.4451C20.5715 40.9662 21.5527 40.3623 22.5391 40.3623C23.5199 40.3623 24.508 40.9662 24.508 42.4451C24.508 43.9101 23.5199 44.5283 22.5391 44.5283C21.5596 44.5283 20.5715 43.9101 20.5715 42.4451ZM23.5651 42.4451C23.5651 41.6987 23.2467 41.1553 22.5391 41.1553C21.8636 41.1553 21.5144 41.6378 21.5144 42.4451C21.5144 43.2072 21.8259 43.751 22.5391 43.751C23.2159 43.751 23.5651 43.2677 23.5651 42.4451Z" fill="black"/>
<path d="M25.1658 44.4453V40.4384H26.0998V40.9886C26.4123 40.6489 26.8677 40.3623 27.4835 40.3623C28.1597 40.3623 28.4251 40.6265 28.5849 41.0189C28.904 40.6717 29.3833 40.3623 29.9979 40.3623C30.8182 40.3623 31.1763 40.8533 31.1763 41.5701V44.4453H30.2413V41.8034C30.2413 41.3586 30.1122 41.1552 29.6716 41.1552C29.2909 41.1552 28.9879 41.3664 28.6383 41.6759V44.4453H27.7037V41.8034C27.7037 41.3586 27.5743 41.1552 27.134 41.1552C26.7612 41.1552 26.45 41.3664 26.0998 41.6759V44.4453H25.1658Z" fill="black"/>
<path d="M32.0376 45.9548V40.4384H32.9722V40.9662C33.2386 40.6489 33.6563 40.3619 34.2564 40.3619C35.1757 40.3619 35.8518 41.0495 35.8518 42.438C35.8518 43.8271 35.16 44.5059 34.127 44.5059C33.6946 44.5059 33.2687 44.3318 32.9722 44.0005V45.9548H32.0376ZM34.9179 42.4451C34.9179 41.6001 34.5529 41.1553 33.9524 41.1553C33.5649 41.1553 33.1927 41.3967 32.9722 41.6599V43.2677C33.2232 43.5921 33.5875 43.7659 33.9213 43.7659C34.6286 43.7659 34.9179 43.3361 34.9179 42.4451Z" fill="black"/>
<path d="M36.2654 43.4795C36.2654 42.6117 37.0097 42.0299 38.894 41.8184V41.6986C38.894 41.2977 38.6818 41.1246 38.2329 41.1246C37.6711 41.1246 37.2148 41.3967 36.8734 41.6674L36.4174 41.0862C36.8505 40.6938 37.527 40.3619 38.362 40.3619C39.4411 40.3619 39.8139 40.876 39.8139 41.8109V43.4639C39.8139 43.9468 39.8444 44.2413 39.9276 44.445H38.9858C38.9324 44.2793 38.894 44.1583 38.894 43.9321C38.4842 44.3474 38.0049 44.5055 37.4048 44.5055C36.7522 44.5055 36.2654 44.143 36.2654 43.4795ZM38.894 43.3279V42.4448C37.7769 42.5958 37.1846 42.8678 37.1846 43.3058C37.1846 43.6224 37.4048 43.788 37.7471 43.788C38.2251 43.788 38.5985 43.6077 38.894 43.3279Z" fill="black"/>
<path d="M40.6567 44.4453V40.4384H41.5917V41.0791C41.8957 40.7322 42.3665 40.3623 43.0354 40.3623C43.7719 40.3623 44.2282 40.7394 44.2282 41.5321V44.4453H43.2939V41.7966C43.2939 41.3586 43.1114 41.1325 42.6859 41.1325C42.2754 41.1325 41.9331 41.3358 41.5917 41.6534V44.4453H40.6567Z" fill="black"/>
<path d="M44.4541 45.879L44.6664 45.1322C44.7807 45.1621 45.0235 45.2155 45.3504 45.2155C45.6852 45.2155 45.8595 45.0863 45.9892 44.7619L46.1026 44.4677L44.5527 40.4383H45.525L46.5665 43.3581H46.5812L47.6148 40.4383H48.5416L46.8243 44.8829C46.5586 45.5845 46.2094 46 45.4113 46C44.9327 46 44.6516 45.932 44.4541 45.879Z" fill="black"/>
<path d="M27.3092 22.5851V17.876H25.5771V17H29.9916V17.876H28.2589V22.5851H27.3092Z" fill="black"/>
<path d="M30.5527 22.5851V17H31.4952V19.1206C31.7531 18.8495 32.2395 18.5024 32.9694 18.5024C33.6757 18.5024 34.1318 18.9179 34.1318 19.7092V22.5851H33.1893V19.9432C33.1893 19.499 32.9996 19.2947 32.5891 19.2947C32.1793 19.2947 31.8369 19.5059 31.4952 19.8153V22.5851H30.5527Z" fill="black"/>
<path d="M34.7676 20.5852C34.7676 19.0604 35.8542 18.5023 36.6903 18.5023C37.5944 18.5023 38.4603 19.0376 38.4603 20.6675V20.8871H35.7022C35.7402 21.6111 36.1884 21.9284 36.7817 21.9284C37.3058 21.9284 37.6098 21.755 37.9132 21.4601L38.4075 21.943C37.9892 22.4044 37.4346 22.6683 36.7125 22.6683C35.7022 22.6683 34.7676 22.0572 34.7676 20.5852ZM37.602 20.1927C37.5482 19.581 37.2449 19.2566 36.6824 19.2566C36.2264 19.2566 35.8087 19.513 35.7173 20.1927H37.602Z" fill="black"/>
<path d="M38.6226 29.0221C38.6226 29.0221 38.7615 28.8152 38.8781 28.6577C39.0907 28.3713 39.475 27.9744 39.764 27.7284C39.8531 27.6535 39.9569 27.5679 39.9569 27.5679C39.9569 27.5679 39.7935 27.5849 39.7014 27.6037C39.4819 27.6464 39.1599 27.8588 38.9987 27.9962C38.7333 28.2213 38.4418 28.5884 38.5731 28.9138C38.5928 28.9606 38.6226 29.0221 38.6226 29.0221ZM40.0981 29.4142C40.5174 29.3862 40.9106 29.2655 41.2758 29.0647C41.6346 28.8656 42.1617 28.4771 42.1079 28.0196C42.0906 27.8722 41.9936 27.7602 41.8704 27.7079C41.7099 27.6385 41.6267 27.6509 41.422 27.7105C41.2739 27.7541 41.2074 27.7801 41.0675 27.8598C40.6554 28.0974 40.0726 28.6053 39.7558 29.0111C39.6824 29.1061 39.6084 29.2131 39.551 29.286C39.5137 29.3306 39.4858 29.3726 39.4891 29.384C39.5016 29.4305 39.934 29.4259 40.0981 29.4142ZM39.0298 30.1935C38.9869 30.2381 38.9414 30.3488 38.8935 30.4285C38.8683 30.4708 38.8211 30.5254 38.7903 30.5469C38.6812 30.6266 38.5892 30.6302 38.483 30.5381C38.3356 30.4093 38.2505 30.2079 38.2442 30.0126C38.241 29.927 38.255 29.8337 38.2396 29.7608C38.2125 29.6397 38.0899 29.5154 38.0244 29.3993C37.9471 29.2616 37.8845 29.0237 37.877 28.8702C37.8498 28.3905 38.1047 27.9493 38.4355 27.6005C38.7684 27.2481 39.2038 26.9552 39.6778 26.7564C40.1253 26.5683 40.7818 26.4408 41.2735 26.6103C41.4331 26.665 41.6565 26.8003 41.7686 26.9412C41.7921 26.9712 41.8118 27.0037 41.8364 27.019C41.8577 27.0327 41.915 27.0382 41.9605 27.0463C42.1178 27.0733 42.3438 27.1911 42.4359 27.2695C42.6203 27.4287 42.7225 27.5806 42.7694 27.8009C42.8637 28.2438 42.6069 28.7302 42.3143 29.0257C41.8128 29.5356 41.3178 29.8932 40.6763 30.1431C40.3953 30.2524 39.9566 30.3543 39.6369 30.3257C39.5379 30.3175 39.4354 30.2918 39.3391 30.2847C39.2903 30.2804 39.1097 30.2352 39.0907 30.2209C39.0668 30.2036 39.0364 30.1874 39.0298 30.1935ZM23.7365 31.5023C24.0028 31.486 24.1679 31.4733 24.3759 31.3838C24.4909 31.3354 24.6239 31.2241 24.5584 31.0913C24.5188 31.01 24.3779 30.9817 24.2957 30.9878C24.0169 31.0064 23.8161 31.2101 23.7207 31.4824C23.7171 31.4922 23.7181 31.5023 23.7365 31.5023ZM24.9021 30.818C25.0573 31.0109 25.1274 31.2374 25.1448 31.486C25.1622 31.7366 25.0816 31.9777 24.941 32.1687C24.6999 32.4941 24.2976 32.6565 23.894 32.6864C23.8387 32.69 23.5094 32.6997 23.4249 32.6737C23.4095 32.6682 23.4 32.6623 23.3915 32.6646C23.382 32.6656 23.3266 32.8914 23.3165 32.9701C23.2804 33.247 23.2365 33.4429 23.2044 33.661C23.1776 33.8341 23.1582 34.0199 23.1428 34.2047C23.0518 35.2817 23.0832 35.8138 23.173 36.8677C23.1792 36.9321 23.1825 37.0054 23.173 37.0496C23.1487 37.1762 23.0714 37.2644 22.9469 37.2963C22.5728 37.3939 22.2151 37.0262 22.0316 36.732C21.6031 36.0445 21.743 34.6394 21.8665 33.9453C21.917 33.658 22.0487 33.0199 22.1401 32.7902C22.1885 32.6665 22.2662 32.4235 22.2603 32.4118C22.255 32.401 22.0591 32.3268 21.8796 32.2582C21.8121 32.2338 21.5858 32.117 21.4888 32.0571C21.2893 31.9328 21.1527 31.8316 21.0147 31.677C20.9728 31.6289 20.8333 31.4229 20.8126 31.377C20.7012 31.1251 20.6947 30.9058 20.7936 30.638C20.8188 30.5694 20.9577 30.2801 21.0501 30.2892C21.1831 30.3009 21.154 30.5196 21.189 30.6328C21.2005 30.6719 21.2378 30.737 21.2673 30.7721C21.4514 30.9878 22.0696 31.2267 22.3229 31.3018C22.3592 31.3132 22.7553 31.433 22.8133 31.4066C22.8287 31.3995 22.904 31.2664 22.9522 31.186C22.9781 31.1408 23.0072 31.1073 23.039 31.0731C23.2798 30.8157 23.6356 30.572 23.9897 30.4997C24.1456 30.4685 24.4513 30.4945 24.6059 30.5821C24.641 30.6019 24.7563 30.6471 24.9021 30.818ZM21.1602 33.8715C21.1713 33.8721 21.1884 33.8777 21.2031 33.8838C21.3849 33.9629 21.3849 34.2854 21.341 34.437C21.2231 34.836 20.8421 35.2479 20.5381 35.4529C20.3566 35.5733 19.9851 35.7445 19.7194 35.7949C19.3037 35.8743 18.9355 35.765 18.713 35.4308C18.5119 35.1285 18.4231 34.7546 18.4071 34.4032C18.3612 33.3941 18.6816 31.9201 19.076 31.0776C19.1291 30.9647 19.3899 30.4382 19.6323 30.3533C19.8734 30.2687 19.9795 30.5495 20.0034 30.7594C20.0342 31.0295 19.9474 31.3874 19.8786 31.677C19.7574 32.1837 19.5835 32.9757 19.5422 33.2028C19.4986 33.4429 19.3977 33.9571 19.4341 34.2193C19.4528 34.3586 19.4793 34.4282 19.5858 34.4198C19.6342 34.4155 20.3166 34.1038 20.6891 33.9655C20.8287 33.9141 21.0023 33.8585 21.1602 33.8715ZM16.1132 33.4062C16.1132 33.4062 16.1908 33.4075 16.2708 33.4062C16.5253 33.4029 16.9522 33.3564 16.9522 33.3564C16.9522 33.3564 16.9043 32.9832 16.8657 32.745C16.8395 32.5858 16.8185 32.4876 16.7841 32.3616C16.7684 32.3057 16.7294 32.1459 16.6885 32.0834C16.6813 32.0707 16.6708 32.0574 16.6708 32.0574C16.6708 32.0574 16.4647 32.4524 16.3494 32.7277C16.2577 32.9461 16.2118 33.1088 16.1476 33.2412C16.1322 33.2721 16.1152 33.3144 16.1132 33.3509C16.1112 33.3762 16.1132 33.4062 16.1132 33.4062ZM14.7478 33.4491C14.7478 33.4491 14.87 33.1764 14.965 32.9701C15.0649 32.7534 15.5697 31.7463 15.7777 31.4616C16.0084 31.1434 16.4493 30.5427 16.4529 30.5245C16.4624 30.4584 16.4768 30.3409 16.5387 30.2469C16.5869 30.1721 16.7058 30.1405 16.8215 30.133C16.9496 30.1255 17.0822 30.2196 17.1399 30.3244C17.251 30.5235 17.4403 31.0903 17.4813 31.2257C17.7024 31.9803 17.9412 33.3896 18.0195 34.1136C18.0398 34.3036 18.1034 35.2935 18.1083 35.5164C18.1129 35.6729 18.1083 35.9325 18.0179 36.0607C17.9844 36.1095 17.9202 36.1502 17.8583 36.1492C17.7748 36.1463 17.6064 36.0302 17.5327 35.9618C17.3286 35.7705 17.1926 35.5762 17.1491 35.3384C17.1117 35.1314 17.059 34.5376 17.059 34.5376L16.1692 34.573L15.6736 34.5812C15.6736 34.5812 15.6267 34.696 15.5884 34.7917C15.5055 34.9967 15.4311 35.2017 15.399 35.3169C15.3342 35.5482 15.2093 36.0071 15.1795 36.0786C15.117 36.229 15.0619 36.3165 14.9148 36.336C14.7517 36.3572 14.6396 36.3689 14.5217 36.3054C14.2996 36.1844 14.1984 35.9286 14.1607 35.6647C14.0945 35.2154 14.2777 34.8529 14.4657 34.3199C14.5446 34.0957 14.4359 34.0212 14.2485 33.7296C14.2243 33.6922 14.1994 33.6528 14.1948 33.6229C14.1882 33.5929 14.217 33.5152 14.258 33.483C14.2708 33.4725 14.2744 33.4712 14.2976 33.4703L14.7478 33.4491ZM9.66668 30.5394C9.66668 30.5394 9.65521 30.2541 9.6313 30.0949C9.61131 29.9602 9.58412 29.859 9.51958 29.7562C9.44882 29.6433 9.39477 29.5724 9.28306 29.5554C9.14612 29.5356 9.07044 29.6283 8.98494 29.7617C8.87126 29.943 8.75791 30.2791 8.69108 30.4916C8.59444 30.7936 8.55349 30.979 8.50173 31.3227C8.41623 31.8862 8.32974 32.8449 8.42179 33.497C8.43883 33.6092 8.467 33.7735 8.467 33.7735C8.467 33.7735 8.60394 33.6209 8.70386 33.5142C8.74645 33.468 8.94956 33.1664 8.96758 33.1348C9.00263 33.0743 9.09665 32.9148 9.10976 32.8823C9.12974 32.8475 9.27618 32.5354 9.30173 32.4622C9.35087 32.3223 9.42229 32.1069 9.47732 31.9351C9.60607 31.5394 9.58314 31.3929 9.66668 30.9537C9.67618 30.9032 9.68437 30.5394 9.67519 30.5394C9.67126 30.5381 9.66668 30.5394 9.66668 30.5394ZM8.69502 34.7201C8.69502 34.7201 8.74907 34.8142 8.79166 34.8848C9.02851 35.2769 9.40689 35.5014 9.86389 35.5238C10.332 35.5473 10.9332 35.2778 11.2762 35.041C12.256 34.3641 12.7717 33.1439 13.0528 31.9744C13.384 30.6032 13.399 29.1568 13.0043 27.8299C12.7753 27.0597 12.3297 26.0955 11.7777 25.5189C11.6133 25.3478 11.3614 25.1145 11.2896 25.0188C11.2149 24.9202 11.1969 24.8372 11.3109 24.7712C11.4311 24.7025 11.6945 24.845 11.8259 24.9238C12.4703 25.3126 12.8916 25.7002 13.2732 26.2569C13.3695 26.3975 13.7564 27.0297 13.8272 27.1618C14.2603 27.9737 14.4824 28.6811 14.6013 29.5772C14.7514 30.7178 14.6554 32.0128 14.2577 33.1563C14.084 33.658 13.8161 34.1744 13.5369 34.6098C13.4708 34.712 13.0639 35.2551 13.0138 35.3084C12.8739 35.4549 12.5283 35.7523 12.3668 35.8814C11.5589 36.5254 10.6862 36.9474 9.72827 36.8309C9.20149 36.7665 8.76905 36.5931 8.3471 36.2524C8.18527 36.1203 7.91205 35.8453 7.80263 35.6494C7.73154 35.5238 7.64309 35.3712 7.63162 35.3693C7.61918 35.3663 7.57233 35.3979 7.52122 35.4334C7.47667 35.464 7.28699 35.5515 7.18642 35.5886C6.52925 35.832 5.79411 35.7747 5.19035 35.3855C4.75234 35.1041 4.38183 34.5691 4.21803 34.084C3.97659 33.3645 3.95726 32.6194 4.05554 31.854C4.2236 30.5554 4.69436 29.3251 5.39608 28.236C5.83899 27.5497 6.41328 26.8719 7.09862 26.3858C7.17561 26.3305 7.59362 26.089 7.67913 26.05C7.83375 25.9777 8.03949 25.911 8.15841 26.0373C8.22032 26.1027 8.21836 26.1557 8.17249 26.2419C8.09977 26.3757 7.91369 26.5573 7.81082 26.6659C7.72171 26.7616 7.21688 27.3763 7.11271 27.5201C6.99837 27.6737 6.4847 28.438 6.41721 28.5555C5.76922 29.67 5.25456 31.4356 5.30435 32.8048C5.31483 33.0876 5.35677 33.4953 5.42065 33.7608C5.50746 34.1188 5.72204 34.6033 6.04407 34.8294C6.38314 35.0683 6.69731 35.0546 7.10321 34.8945C7.21099 34.8512 7.3643 34.7826 7.3643 34.7826C7.3643 34.7826 7.24604 34.4816 7.16872 34.2554C6.95611 33.6271 6.87061 32.6249 6.94891 31.9351C7.01344 31.3695 7.14055 30.9364 7.39804 30.4874C7.60312 30.1275 7.87929 29.7744 8.22425 29.4822C8.55677 29.2004 9.08814 28.9551 9.55562 28.9427C9.94416 28.9336 10.3464 29.1015 10.5505 29.4523C10.905 30.0624 10.9276 31.0253 10.8277 31.6598C10.6777 32.6194 10.1774 33.5204 9.4557 34.1308C9.19657 34.3495 8.69502 34.7201 8.69502 34.7201ZM39.6028 31.1762C39.6221 31.1798 39.6526 31.1886 39.6785 31.1977C39.9032 31.283 39.9956 31.4899 40.0509 31.7164C40.1794 32.2435 40.2344 33.4088 40.2554 33.866C40.2711 34.2076 40.2796 34.5457 40.294 34.8838C40.3061 35.1705 40.3291 35.5518 40.2695 35.8209C40.2475 35.9176 40.1826 36.0289 40.0893 36.0871C39.9821 36.1548 39.7394 36.16 39.6061 36.1327C39.2768 36.065 39.1697 35.8548 39.1232 35.5316C39.0115 34.7601 39.0649 33.2461 39.131 32.607C39.1523 32.3971 39.2329 31.7209 39.344 31.4379C39.3813 31.3415 39.4622 31.1489 39.6028 31.1762ZM29.4629 32.334C29.4629 32.334 28.9754 32.3682 28.6406 32.4053C28.2138 32.4505 27.4121 32.5881 26.9502 32.7531C26.811 32.8013 26.5289 32.9187 26.5043 33.0599C26.4794 33.2077 26.5705 33.3219 26.6731 33.4413C26.732 33.51 27.0662 33.8292 27.1595 33.907C27.5523 34.232 28.3484 34.7348 28.9358 34.9788C29.1363 35.0618 29.4698 35.1802 29.4698 35.1802C29.4698 35.1802 29.4449 34.2376 29.4498 33.3092C29.4518 32.8185 29.4629 32.334 29.4629 32.334ZM38.3936 32.7092C38.4218 32.9623 38.3556 33.4413 38.3448 33.5044C38.3238 33.6499 38.2131 33.9854 38.1954 34.0267C38.106 34.2301 38.0185 34.3983 37.9248 34.5646C37.7649 34.8503 37.3856 35.3029 37.1595 35.4965C36.3215 36.2163 35.0236 36.6263 33.9098 36.7613C33.1546 36.8521 32.2865 36.8381 31.4855 36.6914C31.2103 36.6409 30.8008 36.5479 30.8008 36.5479C30.8008 36.5479 30.8018 36.7106 30.7884 36.8254C30.7822 36.8768 30.7422 37.0148 30.7202 37.0594C30.6616 37.1788 30.5663 37.2403 30.4277 37.2663C30.26 37.2982 30.0821 37.3077 29.9268 37.2426C29.6726 37.1355 29.5808 36.8986 29.5369 36.6273C29.5009 36.4086 29.4632 36.0289 29.4632 36.0289C29.4632 36.0289 29.2732 35.9397 29.1143 35.8609C28.6269 35.6221 28.1633 35.3338 27.7587 35.0357C27.6467 34.9534 27.1645 34.5519 27.0577 34.4517C26.7592 34.1715 26.4909 33.891 26.2865 33.5318C26.1276 33.2513 26.0821 33.0017 26.2026 32.7046C26.3697 32.2904 26.9676 31.9777 27.3771 31.7997C27.6781 31.6679 28.6121 31.365 29.0007 31.309C29.1838 31.283 29.4681 31.2329 29.4855 31.2211C29.4927 31.2159 29.498 31.2114 29.5029 31.2052C29.5117 31.1925 29.5268 30.7819 29.5238 30.6322C29.5206 30.4844 29.6339 29.5157 29.6703 29.3111C29.6899 29.1995 29.7745 28.7729 29.8609 28.6613C29.917 28.5858 30.0169 28.591 30.0981 28.6414C30.5433 28.9157 30.6783 29.8698 30.7114 30.3553C30.7314 30.6507 30.7412 31.0955 30.7412 31.0955C30.7412 31.0955 31.2519 31.0809 31.5664 31.089C31.8714 31.0965 32.2079 31.1447 32.525 31.1948C32.9309 31.2586 33.7217 31.43 34.1751 31.6588C34.5489 31.8465 34.8981 32.1638 35.0111 32.4993C35.1166 32.8068 35.1006 33.0189 34.9404 33.2965C34.7605 33.6102 34.4195 33.8425 34.0739 33.8617C33.9707 33.8686 33.5838 33.8171 33.4649 33.7257C33.4177 33.6886 33.4203 33.6229 33.4544 33.5783C33.4672 33.562 33.6477 33.468 33.7548 33.4114C33.8082 33.3824 33.8527 33.3515 33.894 33.3138C33.9831 33.2353 34.0627 33.1501 34.0539 33.0505C34.0414 32.9204 33.9035 32.84 33.7712 32.7886C33.152 32.5445 31.9156 32.3412 31.3174 32.306C31.0835 32.2923 30.7514 32.2806 30.7514 32.2806L30.8215 35.558C30.8215 35.558 31.0966 35.6104 31.3132 35.6455C31.438 35.6638 31.9648 35.7109 32.1047 35.7145C33.171 35.7425 34.3612 35.6481 35.3397 35.1884C35.7692 34.9876 36.1633 34.738 36.4614 34.3999C36.8552 33.9512 37.0613 33.3388 37.0066 32.6991C36.9466 31.9988 36.4509 31.1697 36.0559 30.6644C35.0105 29.3286 33.2188 28.2311 31.6431 27.5875C30.0336 26.9305 28.4434 26.5517 26.735 26.4886C26.295 26.473 25.3345 26.4951 24.85 26.6285C24.7799 26.6477 24.7104 26.6711 24.6459 26.6848C24.5948 26.6972 24.5155 26.7307 24.4932 26.7479C24.4814 26.7587 24.4686 26.7714 24.4686 26.7714C24.4686 26.7714 24.4988 26.7876 24.5273 26.8003C24.5787 26.8228 24.7953 26.8355 24.9073 26.8556C25.0069 26.8745 25.112 26.9276 25.1527 27.0008C25.192 27.0698 25.1976 27.1241 25.15 27.1817C25.04 27.3154 24.6259 27.292 24.4441 27.264C24.2547 27.2334 24.0192 27.1765 23.9756 27.0125C23.9258 26.8195 24.0172 26.6305 24.1171 26.4554C24.3176 26.1056 24.6039 25.9234 25.0246 25.8098C25.6208 25.6471 26.374 25.5329 26.9374 25.5114C28.2128 25.4643 29.4193 25.6849 30.6544 26.0581C31.3613 26.2699 32.2878 26.6262 32.965 26.9507C33.4505 27.183 34.217 27.6119 34.6475 27.892C34.7831 27.9809 35.5776 28.5604 35.7007 28.6622C35.9582 28.8711 36.2953 29.1715 36.5384 29.4119C37.0102 29.8763 37.5969 30.5876 37.8826 31.1518C37.9504 31.2878 38.0041 31.4209 38.0919 31.5774C38.1224 31.6308 38.2531 31.9523 38.2747 32.0454C38.296 32.1371 38.3274 32.2722 38.332 32.277C38.3386 32.3268 38.3982 32.6021 38.3936 32.7092ZM43.8875 32.9474C43.9114 32.9496 43.9173 32.9506 43.9392 32.9539C44.3297 33.0066 44.7124 33.0762 45.0049 33.2064C45.2765 33.3261 45.4364 33.4765 45.5815 33.7456C45.8026 34.1533 45.8174 34.7237 45.6175 35.1558C45.4678 35.477 45.1402 35.7467 44.8414 35.8899C44.5299 36.0396 44.2249 36.1105 43.8737 36.1502C43.2611 36.2169 42.5974 36.0913 42.045 35.8258C41.7184 35.6673 41.3194 35.3947 41.1179 35.0429C40.9699 34.7845 40.9744 34.4497 41.155 34.205C41.4416 33.8152 42.0559 33.7293 42.5194 33.7456C42.8726 33.7586 43.5075 33.8676 43.8432 33.9854C43.9366 34.0189 44.279 34.1516 44.3386 34.2115C44.3805 34.2545 44.4084 34.3153 44.3894 34.3729C44.312 34.6056 43.7437 34.7282 43.5795 34.7527C43.1389 34.8194 42.9109 34.6544 42.4106 34.4582C42.2865 34.41 42.1211 34.3566 41.9939 34.3449C41.7672 34.3235 41.493 34.3856 41.4501 34.6326C41.4278 34.7598 41.5779 34.8783 41.6922 34.9274C41.9605 35.0429 42.1787 35.0836 42.4434 35.0878C43.2228 35.0995 44.0991 34.9723 44.7376 34.5232C44.8257 34.4617 44.9109 34.3706 44.9122 34.2564C44.9122 34.2418 44.8912 34.1188 44.8513 34.1061C44.8454 34.1035 44.8391 34.1064 44.8346 34.1054C44.8198 34.1012 44.7953 34.0612 44.7746 34.0348C44.7287 33.9792 44.5437 33.9001 44.5073 33.8848C44.0775 33.7068 43.2834 33.6203 42.8735 33.5868C42.4444 33.5503 41.7692 33.4937 41.6067 33.4703C41.44 33.4468 41.2585 33.414 41.1134 33.3492C40.9689 33.2841 40.8267 33.1384 40.7841 32.9773C40.7094 32.6864 40.8054 32.3291 40.9679 32.0961C41.3944 31.487 42.3923 31.2563 43.1389 31.1645C43.8613 31.075 45.0288 31.076 45.7381 31.4505C45.8478 31.5085 45.9042 31.5628 45.8806 31.6793C45.8347 31.8976 45.6683 32.0382 45.4688 32.1C45.2591 32.1664 44.8244 32.1921 44.6337 32.2038C43.7784 32.2517 42.7448 32.2266 41.9307 32.4476C41.8668 32.4658 41.7568 32.4941 41.7204 32.5344C41.593 32.6718 41.9573 32.7108 42.0355 32.7277C42.0585 32.7323 42.0634 32.7333 42.0873 32.7355L43.8875 32.9474ZM46.5558 36.1248C46.2105 35.9989 46.1322 35.4451 46.1161 35.1649C46.0614 34.2528 46.3042 32.9838 46.6125 32.129C46.7006 31.8856 46.8274 31.488 47.1016 31.5104C47.2903 31.527 47.4249 31.6715 47.5307 31.8199C47.8013 32.199 48.1571 32.7128 48.393 33.0704C48.6567 33.4712 48.9099 33.8751 49.1589 34.2405C49.1894 34.2847 49.2182 34.3277 49.2516 34.355C49.2968 34.3911 49.3374 34.3931 49.3558 34.3596C49.3643 34.3466 49.3479 33.8858 49.3364 33.7934C49.3171 33.6463 49.3083 33.5272 49.2916 33.4003C49.2457 33.0316 49.1274 32.513 49.0347 32.1622C48.9325 31.7698 48.8077 31.3607 48.7143 30.981C48.6845 30.8577 48.6567 30.733 48.6577 30.6156C48.6586 30.4457 48.7684 30.3517 48.9466 30.4151C49.2978 30.5381 49.7633 31.2953 49.8989 31.5583C49.9451 31.6471 50.1279 32.0987 50.1689 32.2253C50.3147 32.6591 50.4028 33.0704 50.4431 33.5432C50.4817 34.0026 50.4493 34.672 50.2537 35.1249C50.182 35.2915 50.0346 35.5157 49.912 35.6286C49.7197 35.8056 49.3364 35.9439 49.0724 35.7942C48.7835 35.6315 48.3088 34.8148 48.2278 34.6752C47.9523 34.1975 47.4783 33.2633 47.4049 33.1585C47.3889 33.1354 47.3679 33.1133 47.3312 33.1022C47.3034 33.0941 47.2922 33.1517 47.285 33.1891C47.2378 33.4612 47.2054 34.7335 47.2048 34.7689C47.1969 34.983 47.1864 35.5082 47.1242 35.7669C47.0835 35.9358 47.0423 36.0744 46.886 36.1453C46.7749 36.1951 46.6904 36.1743 46.5558 36.1248ZM51.3158 36.0435C51.2785 36.0152 51.2182 35.954 51.1743 35.9049C51.1674 35.898 51.0432 35.7132 51.0187 35.6563C50.9971 35.6071 50.9807 35.5717 50.9649 35.5307C50.8519 35.2407 50.8549 34.9554 50.9174 34.644C50.9754 34.3534 51.0305 34.3407 51.1805 33.9418C51.19 33.92 51.1946 33.9011 51.1979 33.877C51.2041 33.8223 51.115 33.4547 51.1097 33.3365C51.1035 33.1563 51.2444 33.0284 51.4803 33.0037C51.5019 33.0017 51.5179 33.002 51.5337 32.9975C51.6277 32.9747 51.688 32.7957 51.7394 32.6522C51.8111 32.4505 51.9232 32.143 51.9232 32.143C51.9232 32.143 51.6251 32.0747 51.4655 32.0148C51.2873 31.9481 51.1527 31.8618 51.0721 31.6995C50.9754 31.5094 51.039 31.404 51.2388 31.3425C51.3122 31.3191 51.8907 31.2088 52.0735 31.1831C52.3016 31.1499 52.5161 31.1216 52.733 31.0949C52.9217 31.0721 53.7872 30.9725 54.0627 30.9797C54.4827 30.9917 54.7553 31.1635 55.0007 31.5166C55.1327 31.705 55.2228 31.9289 55.0236 32.0502C54.7176 32.2347 53.7263 32.2487 53.5445 32.2507C53.2552 32.2536 52.8552 32.2487 52.8552 32.2487L52.6534 32.9187C52.6534 32.9187 53.3636 32.9112 53.7627 32.9096C53.8596 32.9096 53.9566 32.9148 54.011 32.9262C54.2147 32.9711 54.2852 33.1267 54.2934 33.3509C54.3045 33.6131 54.2547 33.7338 54.0444 33.769C53.9356 33.7862 52.7156 33.7934 52.5502 33.8126C52.447 33.8236 52.3379 33.8399 52.3379 33.8399C52.3379 33.8399 52.2498 34.0683 52.1731 34.2991C52.0958 34.5395 52.0296 34.7845 52.0296 34.7845C52.0296 34.7845 52.0916 34.7871 52.143 34.7871C52.2288 34.7878 52.316 34.7754 52.3841 34.7637C52.7563 34.696 53.3096 34.6147 53.7636 34.5437C54.0077 34.505 54.1305 34.4878 54.259 34.6485C54.37 34.7907 54.4277 34.9098 54.4355 35.0816C54.4424 35.2433 54.3183 35.3504 54.1666 35.4656C53.6867 35.83 52.8663 36.2251 52.255 36.2927C51.9726 36.3243 51.9039 36.2931 51.6565 36.229C51.6093 36.2169 51.4383 36.1375 51.44 36.1291C51.44 36.1291 51.3473 36.0679 51.3158 36.0435ZM59.0288 32.6763C58.7143 32.9379 58.3081 33.4712 58.1142 33.7482C57.855 34.1152 57.6113 34.5356 57.378 34.8613C57.3279 34.9345 57.1776 35.1965 57.1828 35.2053C57.1933 35.2238 57.3446 35.218 57.5002 35.1919C57.8314 35.1366 58.2819 34.9056 58.5224 34.7149C58.8889 34.423 59.1441 34.0221 59.2647 33.5532C59.3181 33.3401 59.3453 32.8933 59.1933 32.6945C59.1635 32.6565 59.0875 32.6265 59.0288 32.6763ZM56.5312 36.5069C56.5312 36.5069 56.4316 36.7971 56.3586 37.0249C56.2324 37.418 55.955 38.4765 55.8907 38.8054C55.7941 39.2935 55.5189 40.5727 55.5048 40.6C55.4855 40.6371 55.4727 40.6488 55.4262 40.6784C55.3129 40.7445 55.2673 40.7227 55.1301 40.6498C54.9518 40.5567 54.7952 40.4617 54.6616 40.2863C54.393 39.9398 54.4572 39.2877 54.5096 38.905C54.694 37.5667 54.8804 36.978 55.3931 35.6459C55.4016 35.6231 55.4016 35.6179 55.3912 35.5977C55.2313 35.2596 55.1451 34.8512 55.1451 34.5213C55.1464 33.4771 55.7505 32.444 56.428 31.6142C56.4791 31.5511 56.8116 31.1554 56.9627 31.1632C57.114 31.1704 57.1386 31.3458 57.116 31.4922C57.04 31.9744 56.6983 32.4658 56.4647 32.8725C56.202 33.3271 56.145 33.5142 56.0165 33.931C55.9959 33.9961 55.9445 34.3007 55.9468 34.3397C55.952 34.4517 55.9766 34.5929 55.9766 34.5929C55.9766 34.5929 56.4038 33.9987 56.6858 33.632C56.8398 33.4306 56.9505 33.2975 57.079 33.154C57.209 33.0082 57.7099 32.4912 57.8541 32.3548C58.1571 32.0675 58.2914 31.9481 58.619 31.7792C58.8788 31.6458 59.112 31.6126 59.3653 31.7789C59.7669 32.0408 59.9418 32.595 59.9871 33.0443C60.0398 33.5812 59.9294 34.1852 59.6909 34.6449C59.4082 35.1936 59.0219 35.5886 58.4968 35.9342C57.9599 36.2875 57.3299 36.528 56.712 36.5137C56.6285 36.5117 56.5312 36.5069 56.5312 36.5069Z" fill="black"/>
</g>
<defs>
<clipPath id="clip0_208_769">
<rect width="56" height="29" fill="white" transform="translate(4 17)"/>
</clipPath>
</defs>
</svg>
