<svg width="48" height="48" viewBox="0 0 48 48" fill="none" xmlns="http://www.w3.org/2000/svg">
<path d="M0 24C0 10.7452 10.7452 0 24 0C37.2548 0 48 10.7452 48 24C48 37.2548 37.2548 48 24 48C10.7452 48 0 37.2548 0 24Z" fill="#143886"/>
<path d="M31.75 32.0412C31.8376 32.1391 31.9051 32.2533 31.9485 32.3773C31.992 32.5013 32.0106 32.6326 32.0033 32.7638C31.996 32.895 31.9629 33.0234 31.9059 33.1418C31.849 33.2602 31.7692 33.3662 31.6712 33.4537C30.2959 34.6853 28.6066 35.5121 26.7903 35.8425C24.974 36.173 23.1017 35.9942 21.3807 35.326C19.6598 34.6578 18.1574 33.5262 17.04 32.0567C15.9226 30.5871 15.2339 28.8369 15.05 27H13C12.7348 27 12.4804 26.8946 12.2929 26.7071C12.1054 26.5196 12 26.2652 12 26C12 25.7348 12.1054 25.4804 12.2929 25.2929C12.4804 25.1053 12.7348 25 13 25H15V23H13C12.7348 23 12.4804 22.8946 12.2929 22.7071C12.1054 22.5196 12 22.2652 12 22C12 21.7348 12.1054 21.4804 12.2929 21.2929C12.4804 21.1053 12.7348 21 13 21H15.05C15.2344 19.1638 15.9233 17.4144 17.0404 15.9455C18.1576 14.4766 19.6594 13.3455 21.3797 12.6773C23.1 12.0092 24.9716 11.8302 26.7873 12.1601C28.6031 12.4899 30.2921 13.3158 31.6675 14.5462C31.8653 14.7233 31.9846 14.9716 31.9992 15.2366C32.0139 15.5016 31.9227 15.7616 31.7456 15.9594C31.5686 16.1571 31.3203 16.2764 31.0552 16.2911C30.7902 16.3057 30.5303 16.2145 30.3325 16.0375C29.2449 15.0656 27.9123 14.4095 26.4788 14.1403C25.0453 13.871 23.5654 13.9988 22.1993 14.5098C20.8331 15.0208 19.6327 15.8955 18.7277 17.0394C17.8228 18.1834 17.2478 19.5529 17.065 21H25C25.2652 21 25.5196 21.1053 25.7071 21.2929C25.8946 21.4804 26 21.7348 26 22C26 22.2652 25.8946 22.5196 25.7071 22.7071C25.5196 22.8946 25.2652 23 25 23H17V25H23C23.2652 25 23.5196 25.1053 23.7071 25.2929C23.8946 25.4804 24 25.7348 24 26C24 26.2652 23.8946 26.5196 23.7071 26.7071C23.5196 26.8946 23.2652 27 23 27H17.065C17.2476 28.4472 17.8225 29.8169 18.7273 30.961C19.6322 32.1051 20.8326 32.98 22.1988 33.4911C23.565 34.0022 25.0449 34.1301 26.4785 33.8609C27.9121 33.5917 29.2448 32.9357 30.3325 31.9637C30.4304 31.8753 30.5449 31.8071 30.6693 31.7631C30.7937 31.7191 30.9256 31.7001 31.0574 31.7073C31.1892 31.7145 31.3182 31.7477 31.4371 31.8051C31.5559 31.8624 31.6623 31.9426 31.75 32.0412Z" fill="#ECF0F8"/>
</svg>
