<svg width="48" height="48" viewBox="0 0 48 48" fill="none" xmlns="http://www.w3.org/2000/svg">
<path d="M0 24C0 10.7452 10.7452 0 24 0C37.2548 0 48 10.7452 48 24C48 37.2548 37.2548 48 24 48C10.7452 48 0 37.2548 0 24Z" fill="#117E3B"/>
<path d="M27 23H25V15H26C27.0609 15 28.0783 15.4214 28.8284 16.1716C29.5786 16.9217 30 17.9391 30 19C30 19.2652 30.1054 19.5196 30.2929 19.7071C30.4804 19.8946 30.7348 20 31 20C31.2652 20 31.5196 19.8946 31.7071 19.7071C31.8946 19.5196 32 19.2652 32 19C31.9983 17.4092 31.3657 15.884 30.2408 14.7592C29.116 13.6343 27.5908 13.0017 26 13H25V11C25 10.7348 24.8946 10.4804 24.7071 10.2929C24.5196 10.1054 24.2652 10 24 10C23.7348 10 23.4804 10.1054 23.2929 10.2929C23.1054 10.4804 23 10.7348 23 11V13H22C20.4087 13 18.8826 13.6321 17.7574 14.7574C16.6321 15.8826 16 17.4087 16 19C16 20.5913 16.6321 22.1174 17.7574 23.2426C18.8826 24.3679 20.4087 25 22 25H23V33H21C19.9391 33 18.9217 32.5786 18.1716 31.8284C17.4214 31.0783 17 30.0609 17 29C17 28.7348 16.8946 28.4804 16.7071 28.2929C16.5196 28.1054 16.2652 28 16 28C15.7348 28 15.4804 28.1054 15.2929 28.2929C15.1054 28.4804 15 28.7348 15 29C15.0017 30.5908 15.6343 32.116 16.7592 33.2408C17.884 34.3657 19.4092 34.9983 21 35H23V37C23 37.2652 23.1054 37.5196 23.2929 37.7071C23.4804 37.8946 23.7348 38 24 38C24.2652 38 24.5196 37.8946 24.7071 37.7071C24.8946 37.5196 25 37.2652 25 37V35H27C28.5913 35 30.1174 34.3679 31.2426 33.2426C32.3679 32.1174 33 30.5913 33 29C33 27.4087 32.3679 25.8826 31.2426 24.7574C30.1174 23.6321 28.5913 23 27 23ZM22 23C20.9391 23 19.9217 22.5786 19.1716 21.8284C18.4214 21.0783 18 20.0609 18 19C18 17.9391 18.4214 16.9217 19.1716 16.1716C19.9217 15.4214 20.9391 15 22 15H23V23H22ZM27 33H25V25H27C28.0609 25 29.0783 25.4214 29.8284 26.1716C30.5786 26.9217 31 27.9391 31 29C31 30.0609 30.5786 31.0783 29.8284 31.8284C29.0783 32.5786 28.0609 33 27 33Z" fill="#ECFAF2"/>
</svg>
